SplineFontDB: 3.2
FontName: B612Mono-BoldItalic
FullName: B612 Mono Bold Italic
FamilyName: B612 Mono
Weight: Bold
Copyright: Copyright 2012 The B612 Project Authors (https://github.com/polarsys/b612)
Version: 1.008
ItalicAngle: -10
UnderlinePosition: -300
UnderlineWidth: 100
Ascent: 1600
Descent: 400
InvalidEm: 0
sfntRevision: 0x0001020c
LayerCount: 2
Layer: 0 1 "Back" 1
Layer: 1 1 "Fore" 0
XUID: [1021 203 -901246744 5582861]
StyleMap: 0x0021
FSType: 0
OS2Version: 3
OS2_WeightWidthSlopeOnly: 0
OS2_UseTypoMetrics: 0
CreationTime: 1511795160
ModificationTime: 1695107217
PfmFamily: 17
TTFWeight: 700
TTFWidth: 5
LineGap: 0
VLineGap: 0
Panose: 2 11 6 9 5 0 0 2 0 4
OS2TypoAscent: 1930
OS2TypoAOffset: 0
OS2TypoDescent: -500
OS2TypoDOffset: 0
OS2TypoLinegap: 0
OS2WinAscent: 1966
OS2WinAOffset: 0
OS2WinDescent: 712
OS2WinDOffset: 0
HheadAscent: 1930
HheadAOffset: 0
HheadDescent: -500
HheadDOffset: 0
OS2SubXSize: 1300
OS2SubYSize: 1399
OS2SubXOff: 0
OS2SubYOff: 279
OS2SupXSize: 1300
OS2SupYSize: 1399
OS2SupXOff: 0
OS2SupYOff: 960
OS2StrikeYSize: 100
OS2StrikeYPos: 500
OS2CapHeight: 1500
OS2XHeight: 1100
OS2FamilyClass: 2053
OS2Vendor: '    '
OS2CodePages: 20000011.81d40000
OS2UnicodeRanges: 800000af.5000e0fb.00000000.00000000
DEI: 91125
TtTable: prep
PUSHW_1
 511
SCANCTRL
PUSHB_1
 4
SCANTYPE
EndTTInstrs
TtTable: fpgm
PUSHW_1
 0
FDEF
MPPEM
PUSHW_1
 9
LT
IF
PUSHB_2
 1
 1
INSTCTRL
EIF
PUSHW_1
 511
SCANCTRL
PUSHW_1
 68
SCVTCI
PUSHW_2
 9
 3
SDS
SDB
ENDF
PUSHW_1
 1
FDEF
DUP
DUP
RCVT
ROUND[Black]
WCVTP
PUSHB_1
 1
ADD
ENDF
PUSHW_1
 2
FDEF
PUSHW_1
 1
LOOPCALL
POP
ENDF
PUSHW_1
 3
FDEF
DUP
GC[cur]
PUSHB_1
 3
CINDEX
GC[cur]
GT
IF
SWAP
EIF
DUP
ROLL
DUP
ROLL
MD[grid]
ABS
ROLL
DUP
GC[cur]
DUP
ROUND[Grey]
SUB
ABS
PUSHB_1
 4
CINDEX
GC[cur]
DUP
ROUND[Grey]
SUB
ABS
GT
IF
SWAP
NEG
ROLL
EIF
MDAP[rnd]
DUP
PUSHB_1
 0
GTEQ
IF
ROUND[Black]
DUP
PUSHB_1
 0
EQ
IF
POP
PUSHB_1
 64
EIF
ELSE
ROUND[Black]
DUP
PUSHB_1
 0
EQ
IF
POP
PUSHB_1
 64
NEG
EIF
EIF
MSIRP[no-rp0]
ENDF
PUSHW_1
 4
FDEF
DUP
GC[cur]

StartChar: .notdef
Encoding: 65536 -1 0
Width: 1300
GlyphClass: 1
Flags: W
LayerCount: 2
Fore
SplineSet
272 1500 m 1,0,-1
 1292 1500 l 1,1,-1
 1027 0 l 1,2,-1
 8 0 l 1,3,-1
 272 1500 l 1,0,-1
243 200 m 1,4,-1
 863 200 l 1,5,-1
 1056 1300 l 1,6,-1
 436 1300 l 1,7,-1
 243 200 l 1,4,-1
EndSplineSet
Validated: 1
EndChar

StartChar: exclam
Encoding: 33 33 2
Width: 1300
GlyphClass: 1
Flags: W
LayerCount: 2
Fore
SplineSet
785 1500 m 1,0,-1
 599 444 l 1,1,-1
 293 409 l 1,2,-1
 485 1500 l 1,3,-1
 785 1500 l 1,0,-1
233 149 m 0,4,5
 239 183 239 183 256.5 212.5 c 128,-1,6
 274 242 274 242 300.5 264.5 c 128,-1,7
 327 287 327 287 359 300 c 128,-1,8
 391 313 391 313 425 313 c 256,9,10
 459 313 459 313 486 300 c 128,-1,11
 513 287 513 287 531.5 264.5 c 128,-1,12
 550 242 550 242 557.5 212.5 c 128,-1,13
 565 183 565 183 559 149 c 0,14,15
 553 116 553 116 535 85.5 c 128,-1,16
 517 55 517 55 491.5 32.5 c 128,-1,17
 466 10 466 10 434 -3.5 c 128,-1,18
 402 -17 402 -17 368 -17 c 0,19,20
 335 -17 335 -17 307 -3.5 c 128,-1,21
 279 10 279 10 260 32.5 c 128,-1,22
 241 55 241 55 234 85.5 c 128,-1,23
 227 116 227 116 233 149 c 0,4,5
EndSplineSet
Validated: 33
EndChar

StartChar: quotedbl
Encoding: 34 34 3
Width: 1300
GlyphClass: 1
Flags: W
LayerCount: 2
Fore
SplineSet
893 1500 m 1,0,-1
 870 1367 l 2,1,2
 867 1349 867 1349 862.5 1324.5 c 128,-1,3
 858 1300 858 1300 852 1273 c 128,-1,4
 846 1246 846 1246 839 1218.5 c 128,-1,5
 832 1191 832 1191 825 1168 c 2,6,-1
 775 1013 l 1,7,-1
 595 1013 l 1,8,-1
 599 1168 l 2,9,10
 600 1191 600 1191 602.5 1218.5 c 128,-1,11
 605 1246 605 1246 609 1273 c 128,-1,12
 613 1300 613 1300 617 1324.5 c 128,-1,13
 621 1349 621 1349 624 1367 c 2,14,-1
 647 1500 l 1,15,-1
 893 1500 l 1,0,-1
593 1500 m 1,16,-1
 570 1367 l 2,17,18
 567 1349 567 1349 562.5 1324.5 c 128,-1,19
 558 1300 558 1300 552 1273 c 128,-1,20
 546 1246 546 1246 539 1218.5 c 128,-1,21
 532 1191 532 1191 525 1168 c 2,22,-1
 475 1013 l 1,23,-1
 295 1013 l 1,24,-1
 299 1168 l 2,25,26
 300 1191 300 1191 302.5 1218.5 c 128,-1,27
 305 1246 305 1246 309 1273 c 128,-1,28
 313 1300 313 1300 317 1324.5 c 128,-1,29
 321 1349 321 1349 324 1367 c 2,30,-1
 347 1500 l 1,31,-1
 593 1500 l 1,16,-1
EndSplineSet
Validated: 1
EndChar

StartChar: numbersign
Encoding: 35 35 4
Width: 1300
GlyphClass: 1
Flags: W
LayerCount: 2
Fore
SplineSet
1074 885 m 1,0,1
 1062 845 1062 845 1051 809 c 128,-1,2
 1040 773 1040 773 1029 738 c 128,-1,3
 1018 703 1018 703 1006.5 666 c 128,-1,4
 995 629 995 629 983 587 c 1,5,-1
 1216 587 l 1,6,-1
 1152 373 l 1,7,-1
 922 373 l 1,8,9
 909 329 909 329 894.5 281 c 128,-1,10
 880 233 880 233 865 184.5 c 128,-1,11
 850 136 850 136 836 89 c 128,-1,12
 822 42 822 42 809 0 c 1,13,-1
 500 -17 l 1,14,-1
 619 373 l 1,15,-1
 453 373 l 1,16,17
 440 329 440 329 425 281 c 128,-1,18
 410 233 410 233 395 184.5 c 128,-1,19
 380 136 380 136 365.5 89 c 128,-1,20
 351 42 351 42 338 0 c 1,21,-1
 30 -17 l 1,22,-1
 152 373 l 1,23,-1
 1 373 l 1,24,-1
 37 587 l 1,25,-1
 214 587 l 1,26,-1
 304 885 l 1,27,-1
 81 885 l 1,28,-1
 146 1100 l 1,29,-1
 368 1100 l 1,30,31
 379 1135 379 1135 388.5 1167.5 c 128,-1,32
 398 1200 398 1200 409 1235 c 1,33,-1
 455 1500 l 1,34,-1
 796 1520 l 1,35,-1
 669 1100 l 1,36,-1
 836 1100 l 1,37,38
 849 1144 849 1144 865 1196 c 128,-1,39
 881 1248 881 1248 897.5 1301.5 c 128,-1,40
 914 1355 914 1355 929.5 1406.5 c 128,-1,41
 945 1458 945 1458 957 1500 c 1,42,-1
 1269 1520 l 1,43,-1
 1138 1100 l 1,44,-1
 1299 1100 l 1,45,-1
 1261 885 l 1,46,-1
 1074 885 l 1,0,1
771 885 m 1,47,-1
 607 885 l 1,48,49
 595 845 595 845 584 809 c 128,-1,50
 573 773 573 773 562.5 738 c 128,-1,51
 552 703 552 703 540.5 666 c 128,-1,52
 529 629 529 629 517 587 c 1,53,-1
 681 587 l 1,54,-1
 771 885 l 1,47,-1
EndSplineSet
Validated: 1
EndChar

StartChar: dollar
Encoding: 36 36 5
Width: 1300
GlyphClass: 1
Flags: W
LayerCount: 2
Fore
SplineSet
412 -14 m 1,0,1
 308 -6 308 -6 222 28 c 128,-1,2
 136 62 136 62 53 121 c 1,3,-1
 231 348 l 1,4,5
 250 333 250 333 275.5 316 c 128,-1,6
 301 299 301 299 330.5 283 c 128,-1,7
 360 267 360 267 392 253.5 c 128,-1,8
 424 240 424 240 456 233 c 1,9,-1
 540 712 l 1,10,11
 477 745 477 745 417 781 c 128,-1,12
 357 817 357 817 312.5 862 c 128,-1,13
 268 907 268 907 246.5 964.5 c 128,-1,14
 225 1022 225 1022 238 1097 c 0,15,16
 253 1179 253 1179 294 1245.5 c 128,-1,17
 335 1312 335 1312 394.5 1363 c 128,-1,18
 454 1414 454 1414 527.5 1448.5 c 128,-1,19
 601 1483 601 1483 679 1500 c 1,20,-1
 711 1681 l 1,21,-1
 1018 1719 l 1,22,-1
 979 1499 l 1,23,24
 1119 1466 1119 1466 1246 1369 c 1,25,-1
 1062 1178 l 1,26,27
 987 1226 987 1226 935 1252 c 1,28,-1
 867 866 l 1,29,30
 927 835 927 835 982 797 c 128,-1,31
 1037 759 1037 759 1077 709.5 c 128,-1,32
 1117 660 1117 660 1135.5 596 c 128,-1,33
 1154 532 1154 532 1139 448 c 0,34,35
 1124 363 1124 363 1084 293.5 c 128,-1,36
 1044 224 1044 224 986.5 170 c 128,-1,37
 929 116 929 116 857.5 77.5 c 128,-1,38
 786 39 786 39 708 16 c 1,39,-1
 671 -190 l 1,40,-1
 381 -190 l 1,41,-1
 412 -14 l 1,0,1
850 430 m 0,42,43
 859 484 859 484 833 524 c 128,-1,44
 807 564 807 564 762 596 c 1,45,-1
 701 249 l 1,46,47
 727 258 727 258 751 272.5 c 128,-1,48
 775 287 775 287 794.5 308.5 c 128,-1,49
 814 330 814 330 828.5 360 c 128,-1,50
 843 390 843 390 850 430 c 0,42,43
549 1125 m 0,51,52
 544 1096 544 1096 549 1073 c 128,-1,53
 554 1050 554 1050 567.5 1031.5 c 128,-1,54
 581 1013 581 1013 600.5 998.5 c 128,-1,55
 620 984 620 984 644 972 c 1,56,-1
 696 1268 l 1,57,58
 670 1260 670 1260 646 1248.5 c 128,-1,59
 622 1237 622 1237 602 1219.5 c 128,-1,60
 582 1202 582 1202 568 1178.5 c 128,-1,61
 554 1155 554 1155 549 1125 c 0,51,52
EndSplineSet
Validated: 33
EndChar

StartChar: percent
Encoding: 37 37 6
Width: 1300
GlyphClass: 1
Flags: W
LayerCount: 2
Fore
SplineSet
331 746 m 0,0,1
 245 746 245 746 190 774.5 c 128,-1,2
 135 803 135 803 106 853 c 128,-1,3
 77 903 77 903 72 972 c 128,-1,4
 67 1041 67 1041 81 1121 c 0,5,6
 95 1200 95 1200 123 1267.5 c 128,-1,7
 151 1335 151 1335 197 1384 c 128,-1,8
 243 1433 243 1433 308 1461 c 128,-1,9
 373 1489 373 1489 462 1489 c 0,10,11
 547 1489 547 1489 602 1461 c 128,-1,12
 657 1433 657 1433 686.5 1384 c 128,-1,13
 716 1335 716 1335 721 1267.5 c 128,-1,14
 726 1200 726 1200 712 1121 c 0,15,16
 706 1086 706 1086 697 1053 c 1,17,-1
 960 1473 l 1,18,-1
 1264 1473 l 1,19,-1
 761 670 l 1,20,21
 787 687 787 687 816 699 c 0,22,23
 882 727 882 727 971 727 c 0,24,25
 1056 727 1056 727 1111 699.5 c 128,-1,26
 1166 672 1166 672 1195 622.5 c 128,-1,27
 1224 573 1224 573 1229.5 505.5 c 128,-1,28
 1235 438 1235 438 1221 359 c 0,29,30
 1207 279 1207 279 1178.5 210 c 128,-1,31
 1150 141 1150 141 1104.5 91 c 128,-1,32
 1059 41 1059 41 993.5 12.5 c 128,-1,33
 928 -16 928 -16 840 -16 c 0,34,35
 754 -16 754 -16 699 12.5 c 128,-1,36
 644 41 644 41 615 91 c 128,-1,37
 586 141 586 141 581 210 c 128,-1,38
 576 279 576 279 590 359 c 0,39,40
 595 388 595 388 602 416 c 1,41,-1
 341 0 l 1,42,-1
 37 0 l 1,43,-1
 542 806 l 1,44,45
 515 788 515 788 484 774 c 0,46,47
 419 746 419 746 331 746 c 0,0,1
458 1165 m 2,48,49
 462 1190 462 1190 465 1213 c 128,-1,50
 468 1236 468 1236 465 1253 c 128,-1,51
 462 1270 462 1270 452.5 1280.5 c 128,-1,52
 443 1291 443 1291 424 1291 c 0,53,54
 407 1291 407 1291 395.5 1282 c 128,-1,55
 384 1273 384 1273 376.5 1257.5 c 128,-1,56
 369 1242 369 1242 364.5 1221.5 c 128,-1,57
 360 1201 360 1201 356 1178 c 2,58,-1
 340 1084 l 2,59,60
 335 1058 335 1058 332.5 1035 c 128,-1,61
 330 1012 330 1012 332.5 994.5 c 128,-1,62
 335 977 335 977 344 966.5 c 128,-1,63
 353 956 353 956 373 956 c 0,64,65
 389 956 389 956 400.5 965 c 128,-1,66
 412 974 412 974 419.5 989.5 c 128,-1,67
 427 1005 427 1005 432 1025 c 128,-1,68
 437 1045 437 1045 441 1068 c 2,69,-1
 458 1165 l 2,48,49
967 404 m 2,70,71
 971 429 971 429 974 451.5 c 128,-1,72
 977 474 977 474 974 491.5 c 128,-1,73
 971 509 971 509 961.5 519 c 128,-1,74
 952 529 952 529 933 529 c 0,75,76
 916 529 916 529 905 520 c 128,-1,77
 894 511 894 511 886.5 495.5 c 128,-1,78
 879 480 879 480 874 459.5 c 128,-1,79
 869 439 869 439 865 417 c 2,80,-1
 849 323 l 2,81,82
 844 297 844 297 841.5 273.5 c 128,-1,83
 839 250 839 250 842 232.5 c 128,-1,84
 845 215 845 215 854.5 204.5 c 128,-1,85
 864 194 864 194 884 194 c 0,86,87
 900 194 900 194 910.5 203 c 128,-1,88
 921 212 921 212 928.5 227.5 c 128,-1,89
 936 243 936 243 941 263 c 128,-1,90
 946 283 946 283 950 306 c 2,91,-1
 967 404 l 2,70,71
EndSplineSet
Validated: 33
EndChar

StartChar: ampersand
Encoding: 38 38 7
Width: 1300
GlyphClass: 1
Flags: W
LayerCount: 2
Fore
SplineSet
1258 740 m 1,0,1
 1241 642 1241 642 1210.5 559.5 c 128,-1,2
 1180 477 1180 477 1141 409.5 c 128,-1,3
 1102 342 1102 342 1056.5 289.5 c 128,-1,4
 1011 237 1011 237 963 200 c 1,5,-1
 1040 200 l 1,6,-1
 1166 -17 l 1,7,-1
 787 -17 l 1,8,-1
 731 100 l 1,9,-1
 680 11 l 1,10,11
 656 5 656 5 631.5 0 c 128,-1,12
 607 -5 607 -5 580.5 -8.5 c 128,-1,13
 554 -12 554 -12 524.5 -14.5 c 128,-1,14
 495 -17 495 -17 459 -17 c 0,15,16
 346 -17 346 -17 262 21.5 c 128,-1,17
 178 60 178 60 125.5 124.5 c 128,-1,18
 73 189 73 189 53 274.5 c 128,-1,19
 33 360 33 360 50 454 c 0,20,21
 63 532 63 532 96.5 597 c 128,-1,22
 130 662 130 662 174 714 c 128,-1,23
 218 766 218 766 268 804 c 128,-1,24
 318 842 318 842 366 867 c 1,25,26
 354 896 354 896 342.5 930 c 128,-1,27
 331 964 331 964 324 999.5 c 128,-1,28
 317 1035 317 1035 314.5 1069.5 c 128,-1,29
 312 1104 312 1104 318 1134 c 0,30,31
 331 1208 331 1208 365 1274.5 c 128,-1,32
 399 1341 399 1341 457 1391 c 128,-1,33
 515 1441 515 1441 597.5 1470.5 c 128,-1,34
 680 1500 680 1500 790 1500 c 0,35,36
 867 1500 867 1500 922.5 1482.5 c 128,-1,37
 978 1465 978 1465 1018.5 1435.5 c 128,-1,38
 1059 1406 1059 1406 1089 1367.5 c 128,-1,39
 1119 1329 1119 1329 1146 1286 c 1,40,-1
 972 1100 l 1,41,42
 951 1137 951 1137 930.5 1165.5 c 128,-1,43
 910 1194 910 1194 886.5 1212.5 c 128,-1,44
 863 1231 863 1231 834.5 1240.5 c 128,-1,45
 806 1250 806 1250 768 1250 c 0,46,47
 732 1250 732 1250 708 1238.5 c 128,-1,48
 684 1227 684 1227 668.5 1210 c 128,-1,49
 653 1193 653 1193 645 1172.5 c 128,-1,50
 637 1152 637 1152 634 1133 c 0,51,52
 629 1107 629 1107 632 1084 c 0,53,54
 634 1065 634 1065 642.5 1037.5 c 128,-1,55
 651 1010 651 1010 669.5 965.5 c 128,-1,56
 688 921 688 921 717.5 854 c 128,-1,57
 747 787 747 787 791 688 c 0,58,59
 804 657 804 657 813 637.5 c 128,-1,60
 822 618 822 618 831.5 598 c 128,-1,61
 841 578 841 578 852.5 551.5 c 128,-1,62
 864 525 864 525 884 480 c 1,63,64
 903 500 903 500 914.5 527 c 128,-1,65
 926 554 926 554 937.5 621 c 128,-1,66
 949 688 949 688 955 720 c 1,67,-1
 1258 740 l 1,0,1
450 694 m 1,68,-1
 433 596 l 1,69,70
 390 542 390 542 375 463 c 0,71,72
 365 405 365 405 374.5 362 c 128,-1,73
 384 319 384 319 406.5 290.5 c 128,-1,74
 429 262 429 262 461 247.5 c 128,-1,75
 493 233 493 233 526 233 c 0,76,77
 568 233 568 233 596.5 243.5 c 128,-1,78
 625 254 625 254 647 269 c 1,79,-1
 450 694 l 1,68,-1
EndSplineSet
Validated: 33
EndChar

StartChar: quotesingle
Encoding: 39 39 8
Width: 1300
GlyphClass: 1
Flags: W
LayerCount: 2
Fore
SplineSet
300 1500 m 1,0,-1
 570 1500 l 1,1,-1
 546 1367 l 2,2,3
 540 1331 540 1331 527 1298.5 c 128,-1,4
 514 1266 514 1266 491.5 1231.5 c 128,-1,5
 469 1197 469 1197 435 1157.5 c 128,-1,6
 401 1118 401 1118 352 1068 c 1,7,-1
 213 1068 l 1,8,9
 230 1148 230 1148 247.5 1224.5 c 128,-1,10
 265 1301 265 1301 276 1367 c 2,11,-1
 300 1500 l 1,0,-1
EndSplineSet
Validated: 1
EndChar

StartChar: parenleft
Encoding: 40 40 9
Width: 1300
GlyphClass: 1
Flags: W
LayerCount: 2
Fore
SplineSet
449 1158 m 2,0,1
 465 1251 465 1251 489.5 1331.5 c 128,-1,2
 514 1412 514 1412 559.5 1472 c 128,-1,3
 605 1532 605 1532 679 1566 c 128,-1,4
 753 1600 753 1600 867 1600 c 0,5,6
 892 1600 892 1600 919.5 1596.5 c 128,-1,7
 947 1593 947 1593 974 1586 c 128,-1,8
 1001 1579 1001 1579 1026 1568.5 c 128,-1,9
 1051 1558 1051 1558 1069 1545 c 1,10,-1
 959 1431 l 1,11,12
 941 1431 941 1431 915.5 1426 c 128,-1,13
 890 1421 890 1421 864.5 1400.5 c 128,-1,14
 839 1380 839 1380 816.5 1339 c 128,-1,15
 794 1298 794 1298 782 1227 c 2,16,-1
 557 -46 l 2,17,18
 544 -119 544 -119 552.5 -159.5 c 128,-1,19
 561 -200 561 -200 579 -219 c 128,-1,20
 597 -238 597 -238 618.5 -241.5 c 128,-1,21
 640 -245 640 -245 655 -245 c 1,22,-1
 732 -365 l 1,23,24
 709 -378 709 -378 681 -388.5 c 128,-1,25
 653 -399 653 -399 623 -406 c 128,-1,26
 593 -413 593 -413 564 -416.5 c 128,-1,27
 535 -420 535 -420 510 -420 c 0,28,29
 396 -420 396 -420 335 -383.5 c 128,-1,30
 274 -347 274 -347 250 -284 c 128,-1,31
 226 -221 226 -221 230 -138 c 128,-1,32
 234 -55 234 -55 251 38 c 2,33,-1
 449 1158 l 2,0,1
EndSplineSet
Validated: 33
EndChar

StartChar: parenright
Encoding: 41 41 10
Width: 1300
GlyphClass: 1
Flags: W
LayerCount: 2
Fore
SplineSet
824 38 m 2,0,1
 807 -55 807 -55 782.5 -138 c 128,-1,2
 758 -221 758 -221 711.5 -284 c 128,-1,3
 665 -347 665 -347 591 -383.5 c 128,-1,4
 517 -420 517 -420 403 -420 c 0,5,6
 378 -420 378 -420 350.5 -416.5 c 128,-1,7
 323 -413 323 -413 296 -406 c 128,-1,8
 269 -399 269 -399 244 -388.5 c 128,-1,9
 219 -378 219 -378 201 -365 c 1,10,-1
 320 -245 l 1,11,12
 335 -245 335 -245 358 -241.5 c 128,-1,13
 381 -238 381 -238 406 -219 c 128,-1,14
 431 -200 431 -200 453 -159.5 c 128,-1,15
 475 -119 475 -119 488 -46 c 2,16,-1
 713 1227 l 2,17,18
 725 1298 725 1298 717 1339 c 128,-1,19
 709 1380 709 1380 691 1400.5 c 128,-1,20
 673 1421 673 1421 649.5 1426 c 128,-1,21
 626 1431 626 1431 608 1431 c 1,22,-1
 538 1545 l 1,23,24
 561 1558 561 1558 589 1568.5 c 128,-1,25
 617 1579 617 1579 647 1586 c 128,-1,26
 677 1593 677 1593 706 1596.5 c 128,-1,27
 735 1600 735 1600 760 1600 c 0,28,29
 874 1600 874 1600 935.5 1566 c 128,-1,30
 997 1532 997 1532 1021.5 1472 c 128,-1,31
 1046 1412 1046 1412 1042 1331.5 c 128,-1,32
 1038 1251 1038 1251 1022 1158 c 2,33,-1
 824 38 l 2,0,1
EndSplineSet
Validated: 33
EndChar

StartChar: asterisk
Encoding: 42 42 11
Width: 1300
GlyphClass: 1
Flags: W
LayerCount: 2
Fore
SplineSet
884 926 m 1,0,-1
 954 805 l 1,1,-1
 760 654 l 1,2,-1
 673 800 l 1,3,-1
 652 990 l 1,4,-1
 568 800 l 1,5,-1
 442 656 l 1,6,-1
 265 781 l 1,7,-1
 417 950 l 1,8,-1
 594 1041 l 1,9,-1
 384 1041 l 1,10,-1
 241 1090 l 1,11,-1
 324 1309 l 1,12,-1
 500 1259 l 1,13,-1
 635 1120 l 1,14,-1
 602 1315 l 1,15,-1
 625 1446 l 1,16,-1
 858 1470 l 1,17,-1
 830 1309 l 1,18,-1
 719 1117 l 1,19,-1
 889 1247 l 1,20,-1
 1041 1294 l 1,21,-1
 1098 1083 l 1,22,-1
 952 1037 l 1,23,-1
 729 1037 l 1,24,-1
 884 926 l 1,0,-1
EndSplineSet
Validated: 1
EndChar

StartChar: plus
Encoding: 43 43 12
Width: 1300
GlyphClass: 1
Flags: W
LayerCount: 2
Fore
SplineSet
205 700 m 1,0,-1
 565 700 l 1,1,-1
 638 1117 l 1,2,-1
 858 1117 l 1,3,-1
 785 700 l 1,4,-1
 1145 700 l 1,5,-1
 1109 500 l 1,6,-1
 749 500 l 1,7,-1
 679 100 l 1,8,-1
 459 100 l 1,9,-1
 529 500 l 1,10,-1
 169 500 l 1,11,-1
 205 700 l 1,0,-1
EndSplineSet
Validated: 1
EndChar

StartChar: comma
Encoding: 44 44 13
Width: 1300
VWidth: 2706
GlyphClass: 1
Flags: W
LayerCount: 2
Fore
SplineSet
343.74609375 216.900390625 m 0,0,1
 351.846679688 264.150390625 351.846679688 264.150390625 378.170898438 306.674804688 c 128,-1,2
 404.49609375 349.200195312 404.49609375 349.200195312 443.646484375 380.25 c 128,-1,3
 482.795898438 411.299804688 482.795898438 411.299804688 530.045898438 430.875 c 128,-1,4
 577.295898438 450.450195312 577.295898438 450.450195312 625.896484375 450.450195312 c 0,5,6
 673.146484375 450.450195312 673.146484375 450.450195312 712.295898438 433.575195312 c 128,-1,7
 751.446289062 416.700195312 751.446289062 416.700195312 779.795898438 384.299804688 c 128,-1,8
 808.146484375 351.900390625 808.146484375 351.900390625 819.62109375 301.950195312 c 128,-1,9
 831.096679688 252 831.096679688 252 820.295898438 189.900390625 c 0,10,11
 804.096679688 103.5 804.096679688 103.5 779.12109375 23.1748046875 c 128,-1,12
 754.146484375 -57.150390625 754.146484375 -57.150390625 706.896484375 -139.5 c 128,-1,13
 659.646484375 -221.849609375 659.646484375 -221.849609375 582.696289062 -307.575195312 c 128,-1,14
 505.74609375 -393.299804688 505.74609375 -393.299804688 388.295898438 -486.450195312 c 1,15,-1
 311.346679688 -448.650390625 l 1,16,17
 361.295898438 -377.099609375 361.295898438 -377.099609375 403.146484375 -301.5 c 0,18,19
 439.596679688 -238.049804688 439.596679688 -238.049804688 472.670898438 -163.125 c 128,-1,20
 505.74609375 -88.2001953125 505.74609375 -88.2001953125 519.24609375 -16.650390625 c 1,21,22
 478.74609375 -15.2998046875 478.74609375 -15.2998046875 442.295898438 0.900390625 c 128,-1,23
 405.846679688 17.099609375 405.846679688 17.099609375 380.196289062 45.4501953125 c 128,-1,24
 354.545898438 73.7998046875 354.545898438 73.7998046875 344.420898438 117.674804688 c 128,-1,25
 334.295898438 161.549804688 334.295898438 161.549804688 343.74609375 216.900390625 c 0,0,1
EndSplineSet
Validated: 524321
EndChar

StartChar: hyphen
Encoding: 45 45 14
Width: 1300
GlyphClass: 1
Flags: W
LayerCount: 2
Fore
SplineSet
339 624 m 1,0,-1
 966 624 l 1,1,-1
 927 400 l 1,2,-1
 300 400 l 1,3,-1
 339 624 l 1,0,-1
EndSplineSet
Validated: 1
EndChar

StartChar: period
Encoding: 46 46 15
Width: 1300
VWidth: 2636
GlyphClass: 1
Flags: W
LayerCount: 2
Fore
SplineSet
283.979492188 183.349609375 m 0,0,1
 293.428710938 238.700195312 293.428710938 238.700195312 323.12890625 287.299804688 c 128,-1,2
 352.829101562 335.900390625 352.829101562 335.900390625 395.354492188 372.349609375 c 128,-1,3
 437.87890625 408.799804688 437.87890625 408.799804688 489.854492188 429.724609375 c 128,-1,4
 541.829101562 450.650390625 541.829101562 450.650390625 597.178710938 450.650390625 c 256,5,6
 652.529296875 450.650390625 652.529296875 450.650390625 697.079101562 429.724609375 c 128,-1,7
 741.62890625 408.799804688 741.62890625 408.799804688 772.00390625 372.349609375 c 128,-1,8
 802.37890625 335.900390625 802.37890625 335.900390625 814.529296875 287.299804688 c 128,-1,9
 826.678710938 238.700195312 826.678710938 238.700195312 817.229492188 183.349609375 c 0,10,11
 806.428710938 128 806.428710938 128 777.404296875 78.724609375 c 128,-1,12
 748.37890625 29.4501953125 748.37890625 29.4501953125 705.854492188 -7 c 128,-1,13
 663.329101562 -43.4501953125 663.329101562 -43.4501953125 611.354492188 -65.0498046875 c 128,-1,14
 559.37890625 -86.650390625 559.37890625 -86.650390625 504.029296875 -86.650390625 c 256,15,16
 448.678710938 -86.650390625 448.678710938 -86.650390625 403.454101562 -65.0498046875 c 128,-1,17
 358.229492188 -43.4501953125 358.229492188 -43.4501953125 328.529296875 -7 c 128,-1,18
 298.829101562 29.4501953125 298.829101562 29.4501953125 286.00390625 78.724609375 c 128,-1,19
 273.178710938 128 273.178710938 128 283.979492188 183.349609375 c 0,0,1
EndSplineSet
Validated: 524321
EndChar

StartChar: slash
Encoding: 47 47 16
Width: 1300
GlyphClass: 1
Flags: W
LayerCount: 2
Fore
SplineSet
331 -100 m 1,0,-1
 0 -100 l 1,1,-1
 977 1600 l 1,2,-1
 1300 1600 l 1,3,-1
 331 -100 l 1,0,-1
EndSplineSet
Validated: 1
EndChar

StartChar: zero
Encoding: 48 48 17
Width: 1300
GlyphClass: 1
Flags: W
LayerCount: 2
Fore
SplineSet
512 -16 m 0,0,1
 419 -16 419 -16 347 16.5 c 128,-1,2
 275 49 275 49 222.5 105 c 128,-1,3
 170 161 170 161 137 236 c 128,-1,4
 104 311 104 311 87.5 396 c 128,-1,5
 71 481 71 481 71.5 572 c 128,-1,6
 72 663 72 663 88 750 c 0,7,8
 104 840 104 840 133 931.5 c 128,-1,9
 162 1023 162 1023 205.5 1108.5 c 128,-1,10
 249 1194 249 1194 306.5 1268 c 128,-1,11
 364 1342 364 1342 436 1397.5 c 128,-1,12
 508 1453 508 1453 594.5 1484.5 c 128,-1,13
 681 1516 681 1516 783 1516 c 0,14,15
 876 1516 876 1516 948 1483.5 c 128,-1,16
 1020 1451 1020 1451 1072.5 1395 c 128,-1,17
 1125 1339 1125 1339 1158.5 1264 c 128,-1,18
 1192 1189 1192 1189 1208 1104 c 128,-1,19
 1224 1019 1224 1019 1223.5 928 c 128,-1,20
 1223 837 1223 837 1208 750 c 0,21,22
 1192 660 1192 660 1162.5 568.5 c 128,-1,23
 1133 477 1133 477 1089.5 391.5 c 128,-1,24
 1046 306 1046 306 988.5 232 c 128,-1,25
 931 158 931 158 859 102.5 c 128,-1,26
 787 47 787 47 700 15.5 c 128,-1,27
 613 -16 613 -16 512 -16 c 0,0,1
423 791 m 0,28,29
 414 739 414 739 407 676 c 128,-1,30
 400 613 400 613 400 549 c 1,31,-1
 360 384 l 1,32,-1
 845 1203 l 1,33,34
 826 1235 826 1235 798.5 1254 c 128,-1,35
 771 1273 771 1273 732 1273 c 0,36,37
 690 1273 690 1273 653 1252.5 c 128,-1,38
 616 1232 616 1232 585 1196.5 c 128,-1,39
 554 1161 554 1161 528.5 1113.5 c 128,-1,40
 503 1066 503 1066 482.5 1012.5 c 128,-1,41
 462 959 462 959 447.5 902 c 128,-1,42
 433 845 433 845 423 791 c 0,28,29
872 709 m 0,43,44
 887 791 887 791 892 889 c 1,45,-1
 940 1071 l 1,46,-1
 470 266 l 1,47,48
 487 247 487 247 510 236.5 c 128,-1,49
 533 226 533 226 562 226 c 0,50,51
 604 226 604 226 641 246.5 c 128,-1,52
 678 267 678 267 709 302.5 c 128,-1,53
 740 338 740 338 766 385.5 c 128,-1,54
 792 433 792 433 812.5 487 c 128,-1,55
 833 541 833 541 847.5 597.5 c 128,-1,56
 862 654 862 654 872 709 c 0,43,44
EndSplineSet
EndChar

StartChar: one
Encoding: 49 49 18
Width: 1300
GlyphClass: 1
Flags: W
LayerCount: 2
Fore
SplineSet
616 880 m 1,0,-1
 754 1243 l 1,1,-1
 479 972 l 1,2,-1
 382 898 l 1,3,-1
 259 1083 l 1,4,-1
 817 1520 l 1,5,-1
 1056 1500 l 1,6,-1
 827 200 l 1,7,-1
 1070 200 l 1,8,-1
 1034 0 l 1,9,-1
 217 0 l 1,10,-1
 253 200 l 1,11,-1
 496 200 l 1,12,-1
 616 880 l 1,0,-1
EndSplineSet
Validated: 1
EndChar

StartChar: two
Encoding: 50 50 19
Width: 1300
GlyphClass: 1
Flags: W
LayerCount: 2
Fore
SplineSet
49 0 m 1,0,-1
 81 190 l 1,1,2
 141 264 141 264 217 345.5 c 128,-1,3
 293 427 293 427 371.5 505.5 c 128,-1,4
 450 584 450 584 524.5 654 c 128,-1,5
 599 724 599 724 655 775 c 0,6,7
 720 833 720 833 764.5 873 c 128,-1,8
 809 913 809 913 838.5 947 c 128,-1,9
 868 981 868 981 884.5 1015.5 c 128,-1,10
 901 1050 901 1050 909 1097 c 0,11,12
 916 1134 916 1134 910 1170.5 c 128,-1,13
 904 1207 904 1207 886 1236 c 128,-1,14
 868 1265 868 1265 838.5 1282.5 c 128,-1,15
 809 1300 809 1300 768 1300 c 0,16,17
 686 1300 686 1300 614 1245 c 128,-1,18
 542 1190 542 1190 478 1096 c 1,19,-1
 260 1183 l 1,20,21
 303 1260 303 1260 359.5 1321.5 c 128,-1,22
 416 1383 416 1383 486 1426.5 c 128,-1,23
 556 1470 556 1470 640 1493.5 c 128,-1,24
 724 1517 724 1517 821 1517 c 0,25,26
 935 1517 935 1517 1017.5 1479.5 c 128,-1,27
 1100 1442 1100 1442 1150.5 1381 c 128,-1,28
 1201 1320 1201 1320 1219.5 1242.5 c 128,-1,29
 1238 1165 1238 1165 1224 1086 c 0,30,31
 1212 1016 1212 1016 1179.5 957 c 128,-1,32
 1147 898 1147 898 1100.5 843.5 c 128,-1,33
 1054 789 1054 789 997.5 735 c 128,-1,34
 941 681 941 681 880 621 c 0,35,36
 820 561 820 561 755.5 499 c 128,-1,37
 691 437 691 437 632.5 381 c 128,-1,38
 574 325 574 325 526 278 c 128,-1,39
 478 231 478 231 451 200 c 1,40,-1
 1093 200 l 1,41,-1
 1058 0 l 1,42,-1
 49 0 l 1,0,-1
EndSplineSet
Validated: 33
EndChar

StartChar: three
Encoding: 51 51 20
Width: 1300
GlyphClass: 1
Flags: W
LayerCount: 2
Fore
SplineSet
361 938 m 1,0,1
 394 959 394 959 440 989 c 128,-1,2
 486 1019 486 1019 539 1055 c 128,-1,3
 592 1091 592 1091 647.5 1130.5 c 128,-1,4
 703 1170 703 1170 754.5 1211.5 c 128,-1,5
 806 1253 806 1253 850.5 1294.5 c 128,-1,6
 895 1336 895 1336 926 1374 c 1,7,-1
 652 1300 l 1,8,-1
 321 1300 l 1,9,-1
 378 1500 l 1,10,-1
 1220 1500 l 1,11,-1
 1189 1327 l 1,12,13
 1144 1248 1144 1248 1074.5 1182 c 128,-1,14
 1005 1116 1005 1116 923 1052 c 1,15,-1
 752 969 l 1,16,17
 857 969 857 969 938.5 941.5 c 128,-1,18
 1020 914 1020 914 1072 863 c 128,-1,19
 1124 812 1124 812 1144.5 738.5 c 128,-1,20
 1165 665 1165 665 1149 573 c 0,21,22
 1131 474 1131 474 1076 393 c 128,-1,23
 1021 312 1021 312 939.5 248.5 c 128,-1,24
 858 185 858 185 755.5 138 c 128,-1,25
 653 91 653 91 540 60.5 c 128,-1,26
 427 30 427 30 310 15 c 128,-1,27
 193 0 193 0 82 0 c 1,28,-1
 118 200 l 1,29,30
 236 204 236 204 353 231 c 128,-1,31
 470 258 470 258 566 304.5 c 128,-1,32
 662 351 662 351 727 416.5 c 128,-1,33
 792 482 792 482 807 563 c 0,34,35
 817 621 817 621 799.5 660.5 c 128,-1,36
 782 700 782 700 744 724.5 c 128,-1,37
 706 749 706 749 652.5 759.5 c 128,-1,38
 599 770 599 770 537 770 c 0,39,40
 522 770 522 770 493 768.5 c 128,-1,41
 464 767 464 767 432.5 765.5 c 128,-1,42
 401 764 401 764 372.5 762.5 c 128,-1,43
 344 761 344 761 329 760 c 1,44,-1
 361 938 l 1,0,1
EndSplineSet
Validated: 33
EndChar

StartChar: four
Encoding: 52 52 21
Width: 1300
GlyphClass: 1
Flags: W
LayerCount: 2
Fore
SplineSet
1155 300 m 1,0,-1
 977 300 l 1,1,-1
 924 0 l 1,2,-1
 603 0 l 1,3,-1
 656 300 l 1,4,-1
 96 300 l 1,5,-1
 132 500 l 1,6,-1
 805 1520 l 1,7,-1
 1082 1500 l 1,8,-1
 621 763 l 1,9,-1
 401 500 l 1,10,-1
 692 500 l 1,11,-1
 741 780 l 1,12,-1
 1066 800 l 1,13,-1
 1013 500 l 1,14,-1
 1212 500 l 1,15,-1
 1155 300 l 1,0,-1
EndSplineSet
Validated: 1
EndChar

StartChar: five
Encoding: 53 53 22
Width: 1300
GlyphClass: 1
Flags: W
LayerCount: 2
Fore
SplineSet
619 1046 m 1,0,1
 644 1052 644 1052 673 1055.5 c 128,-1,2
 702 1059 702 1059 737 1059 c 0,3,4
 853 1059 853 1059 938.5 1025 c 128,-1,5
 1024 991 1024 991 1077.5 932 c 128,-1,6
 1131 873 1131 873 1150.5 794.5 c 128,-1,7
 1170 716 1170 716 1154 626 c 0,8,9
 1136 523 1136 523 1079.5 437 c 128,-1,10
 1023 351 1023 351 940.5 281.5 c 128,-1,11
 858 212 858 212 754.5 159.5 c 128,-1,12
 651 107 651 107 538.5 71.5 c 128,-1,13
 426 36 426 36 309.5 18 c 128,-1,14
 193 0 193 0 85 0 c 1,15,-1
 125 226 l 1,16,17
 197 228 197 228 274 242 c 128,-1,18
 351 256 351 256 425 280 c 128,-1,19
 499 304 499 304 567 338 c 128,-1,20
 635 372 635 372 689 413.5 c 128,-1,21
 743 455 743 455 778 503.5 c 128,-1,22
 813 552 813 552 823 606 c 0,23,24
 830 647 830 647 823 686 c 128,-1,25
 816 725 816 725 796 755 c 128,-1,26
 776 785 776 785 744 803.5 c 128,-1,27
 712 822 712 822 669 822 c 0,28,29
 631 822 631 822 597 816 c 128,-1,30
 563 810 563 810 534.5 800.5 c 128,-1,31
 506 791 506 791 483 780 c 128,-1,32
 460 769 460 769 444 759 c 1,33,-1
 219 759 l 1,34,-1
 350 1500 l 1,35,-1
 1216 1500 l 1,36,-1
 1180 1300 l 1,37,-1
 663 1300 l 1,38,-1
 619 1046 l 1,0,1
EndSplineSet
Validated: 33
EndChar

StartChar: six
Encoding: 54 54 23
Width: 1300
GlyphClass: 1
Flags: W
LayerCount: 2
Fore
SplineSet
1132 1280 m 1,0,1
 1109 1294 1109 1294 1078.5 1297 c 128,-1,2
 1048 1300 1048 1300 1024 1300 c 0,3,4
 955 1300 955 1300 875.5 1266.5 c 128,-1,5
 796 1233 796 1233 720 1169 c 128,-1,6
 644 1105 644 1105 579 1012 c 128,-1,7
 514 919 514 919 475 800 c 1,8,-1
 666 945 l 1,9,10
 724 956 724 956 769 956 c 0,11,12
 866 956 866 956 952 931.5 c 128,-1,13
 1038 907 1038 907 1099 854.5 c 128,-1,14
 1160 802 1160 802 1187.5 720.5 c 128,-1,15
 1215 639 1215 639 1195 525 c 0,16,17
 1175 414 1175 414 1118 315.5 c 128,-1,18
 1061 217 1061 217 975 143 c 128,-1,19
 889 69 889 69 779.5 26 c 128,-1,20
 670 -17 670 -17 547 -17 c 0,21,22
 439 -17 439 -17 362 15 c 128,-1,23
 285 47 285 47 233 99.5 c 128,-1,24
 181 152 181 152 151 219.5 c 128,-1,25
 121 287 121 287 108 358.5 c 128,-1,26
 95 430 95 430 96.5 500 c 128,-1,27
 98 570 98 570 108 627 c 0,28,29
 129 745 129 745 174 857 c 128,-1,30
 219 969 219 969 285 1067.5 c 128,-1,31
 351 1166 351 1166 436 1249 c 128,-1,32
 521 1332 521 1332 621.5 1391.5 c 128,-1,33
 722 1451 722 1451 835.5 1484 c 128,-1,34
 949 1517 949 1517 1072 1517 c 0,35,36
 1090 1517 1090 1517 1123 1514.5 c 128,-1,37
 1156 1512 1156 1512 1204 1498 c 1,38,-1
 1132 1280 l 1,0,1
720 756 m 0,39,40
 684 756 684 756 644.5 741 c 128,-1,41
 605 726 605 726 567.5 703 c 128,-1,42
 530 680 530 680 497 652.5 c 128,-1,43
 464 625 464 625 440 601 c 1,44,45
 435 575 435 575 432 553.5 c 128,-1,46
 429 532 429 532 427.5 512.5 c 128,-1,47
 426 493 426 493 426 474 c 128,-1,48
 426 455 426 455 428 434 c 0,49,50
 432 387 432 387 443.5 344.5 c 128,-1,51
 455 302 455 302 475.5 270 c 128,-1,52
 496 238 496 238 524 219 c 128,-1,53
 552 200 552 200 589 200 c 0,54,55
 643 200 643 200 688 228.5 c 128,-1,56
 733 257 733 257 767 302.5 c 128,-1,57
 801 348 801 348 823.5 404.5 c 128,-1,58
 846 461 846 461 856 516 c 0,59,60
 865 566 865 566 859 610 c 128,-1,61
 853 654 853 654 835 686.5 c 128,-1,62
 817 719 817 719 787.5 737.5 c 128,-1,63
 758 756 758 756 720 756 c 0,39,40
EndSplineSet
Validated: 33
EndChar

StartChar: seven
Encoding: 55 55 24
Width: 1300
GlyphClass: 1
Flags: W
LayerCount: 2
Fore
SplineSet
179 1500 m 1,0,-1
 1186 1500 l 1,1,-1
 1157 1339 l 2,2,3
 1152 1312 1152 1312 1131 1274 c 128,-1,4
 1110 1236 1110 1236 1077.5 1189.5 c 128,-1,5
 1045 1143 1045 1143 1003 1088.5 c 128,-1,6
 961 1034 961 1034 915 976 c 0,7,8
 861 906 861 906 801 827 c 128,-1,9
 741 748 741 748 686.5 666 c 128,-1,10
 632 584 632 584 588.5 502.5 c 128,-1,11
 545 421 545 421 523 346 c 0,12,13
 512 310 512 310 502 266 c 128,-1,14
 492 222 492 222 483 175.5 c 128,-1,15
 474 129 474 129 466 84 c 128,-1,16
 458 39 458 39 451 0 c 1,17,-1
 114 0 l 1,18,19
 120 32 120 32 130 86 c 128,-1,20
 140 140 140 140 153 200 c 128,-1,21
 166 260 166 260 181 318.5 c 128,-1,22
 196 377 196 377 212 418 c 0,23,24
 246 507 246 507 296.5 597.5 c 128,-1,25
 347 688 347 688 405 774 c 128,-1,26
 463 860 463 860 523.5 939 c 128,-1,27
 584 1018 584 1018 638 1086 c 0,28,29
 683 1143 683 1143 720 1191 c 128,-1,30
 757 1239 757 1239 775 1272 c 1,31,-1
 139 1272 l 1,32,-1
 179 1500 l 1,0,-1
EndSplineSet
Validated: 1
EndChar

StartChar: eight
Encoding: 56 56 25
Width: 1300
GlyphClass: 1
Flags: W
LayerCount: 2
Fore
SplineSet
810 1517 m 0,0,1
 913 1517 913 1517 996 1490.5 c 128,-1,2
 1079 1464 1079 1464 1134 1414.5 c 128,-1,3
 1189 1365 1189 1365 1212.5 1294 c 128,-1,4
 1236 1223 1236 1223 1220 1134 c 0,5,6
 1211 1083 1211 1083 1183.5 1040 c 128,-1,7
 1156 997 1156 997 1118 961 c 128,-1,8
 1080 925 1080 925 1035 896 c 128,-1,9
 990 867 990 867 945 844 c 1,10,11
 1006 812 1006 812 1056 769.5 c 128,-1,12
 1106 727 1106 727 1140 674.5 c 128,-1,13
 1174 622 1174 622 1187.5 560 c 128,-1,14
 1201 498 1201 498 1189 427 c 0,15,16
 1168 312 1168 312 1105 228 c 128,-1,17
 1042 144 1042 144 953 89.5 c 128,-1,18
 864 35 864 35 757.5 9 c 128,-1,19
 651 -17 651 -17 545 -17 c 0,20,21
 441 -17 441 -17 349 12.5 c 128,-1,22
 257 42 257 42 192 100 c 128,-1,23
 127 158 127 158 96.5 243.5 c 128,-1,24
 66 329 66 329 86 441 c 0,25,26
 98 512 98 512 130.5 573.5 c 128,-1,27
 163 635 163 635 210.5 686 c 128,-1,28
 258 737 258 737 318 777.5 c 128,-1,29
 378 818 378 818 446 848 c 1,30,31
 405 875 405 875 371 905.5 c 128,-1,32
 337 936 337 936 314 970 c 128,-1,33
 291 1004 291 1004 281 1042 c 128,-1,34
 271 1080 271 1080 279 1124 c 0,35,36
 291 1192 291 1192 321.5 1248 c 128,-1,37
 352 1304 352 1304 394 1347.5 c 128,-1,38
 436 1391 436 1391 487.5 1423 c 128,-1,39
 539 1455 539 1455 594 1476 c 128,-1,40
 649 1497 649 1497 704.5 1507 c 128,-1,41
 760 1517 760 1517 810 1517 c 0,0,1
863 422 m 0,42,43
 872 476 872 476 857 520 c 128,-1,44
 842 564 842 564 811.5 599.5 c 128,-1,45
 781 635 781 635 740.5 662.5 c 128,-1,46
 700 690 700 690 659 711 c 1,47,48
 612 690 612 690 570.5 662.5 c 128,-1,49
 529 635 529 635 495.5 599 c 128,-1,50
 462 563 462 563 439 519 c 128,-1,51
 416 475 416 475 406 421 c 0,52,53
 398 373 398 373 410 332 c 128,-1,54
 422 291 422 291 448 262 c 128,-1,55
 474 233 474 233 510 216.5 c 128,-1,56
 546 200 546 200 585 200 c 0,57,58
 630 200 630 200 676 215 c 128,-1,59
 722 230 722 230 760 258.5 c 128,-1,60
 798 287 798 287 826 328 c 128,-1,61
 854 369 854 369 863 422 c 0,42,43
605 1156 m 0,62,63
 599 1122 599 1122 608 1093.5 c 128,-1,64
 617 1065 617 1065 636.5 1041 c 128,-1,65
 656 1017 656 1017 682.5 998 c 128,-1,66
 709 979 709 979 739 964 c 1,67,68
 799 993 799 993 845.5 1041 c 128,-1,69
 892 1089 892 1089 903 1152 c 0,70,71
 910 1190 910 1190 900.5 1218 c 128,-1,72
 891 1246 891 1246 873 1264 c 128,-1,73
 855 1282 855 1282 832 1291 c 128,-1,74
 809 1300 809 1300 789 1300 c 0,75,76
 761 1300 761 1300 730.5 1289 c 128,-1,77
 700 1278 700 1278 674 1258.5 c 128,-1,78
 648 1239 648 1239 629 1212.5 c 128,-1,79
 610 1186 610 1186 605 1156 c 0,62,63
EndSplineSet
Validated: 33
EndChar

StartChar: nine
Encoding: 57 57 26
Width: 1300
GlyphClass: 1
Flags: W
LayerCount: 2
Fore
SplineSet
190 200 m 1,0,1
 259 202 259 202 329.5 223 c 128,-1,2
 400 244 400 244 466 279 c 128,-1,3
 532 314 532 314 590.5 361.5 c 128,-1,4
 649 409 649 409 696 463.5 c 128,-1,5
 743 518 743 518 775 578 c 128,-1,6
 807 638 807 638 819 700 c 1,7,-1
 614 548 l 1,8,9
 598 546 598 546 581 545 c 128,-1,10
 564 544 564 544 547 544 c 0,11,12
 438 544 438 544 349 577.5 c 128,-1,13
 260 611 260 611 201 673 c 128,-1,14
 142 735 142 735 117.5 822.5 c 128,-1,15
 93 910 93 910 112 1017 c 0,16,17
 131 1128 131 1128 185.5 1220 c 128,-1,18
 240 1312 240 1312 322 1378 c 128,-1,19
 404 1444 404 1444 510.5 1480.5 c 128,-1,20
 617 1517 617 1517 741 1517 c 0,21,22
 851 1517 851 1517 929.5 1486 c 128,-1,23
 1008 1455 1008 1455 1060.5 1403.5 c 128,-1,24
 1113 1352 1113 1352 1142 1285 c 128,-1,25
 1171 1218 1171 1218 1183.5 1146.5 c 128,-1,26
 1196 1075 1196 1075 1194 1004 c 128,-1,27
 1192 933 1192 933 1181 873 c 0,28,29
 1150 696 1150 696 1066.5 540.5 c 128,-1,30
 983 385 983 385 855 266.5 c 128,-1,31
 727 148 727 148 559 73.5 c 128,-1,32
 391 -1 391 -1 190 -17 c 1,33,-1
 190 200 l 1,0,1
594 761 m 0,34,35
 628 761 628 761 666.5 777 c 128,-1,36
 705 793 705 793 742 819 c 128,-1,37
 779 845 779 845 811.5 878 c 128,-1,38
 844 911 844 911 866 945 c 1,39,40
 875 1008 875 1008 869.5 1071.5 c 128,-1,41
 864 1135 864 1135 844.5 1186 c 128,-1,42
 825 1237 825 1237 791 1268.5 c 128,-1,43
 757 1300 757 1300 709 1300 c 0,44,45
 662 1300 662 1300 618.5 1278.5 c 128,-1,46
 575 1257 575 1257 539.5 1221 c 128,-1,47
 504 1185 504 1185 479 1136.5 c 128,-1,48
 454 1088 454 1088 445 1034 c 0,49,50
 435 980 435 980 439.5 931 c 128,-1,51
 444 882 444 882 463 844 c 128,-1,52
 482 806 482 806 514.5 783.5 c 128,-1,53
 547 761 547 761 594 761 c 0,34,35
EndSplineSet
Validated: 33
EndChar

StartChar: colon
Encoding: 58 58 27
Width: 1300
VWidth: 2545
GlyphClass: 1
Flags: W
LayerCount: 2
Fore
SplineSet
301.950195312 92.875 m 256,0,1
 311.400390625 148.224609375 311.400390625 148.224609375 341.099609375 196.825195312 c 128,-1,2
 370.799804688 245.424804688 370.799804688 245.424804688 414 281.875 c 128,-1,3
 457.200195312 318.325195312 457.200195312 318.325195312 508.5 339.25 c 128,-1,4
 559.799804688 360.174804688 559.799804688 360.174804688 615.150390625 360.174804688 c 256,5,6
 670.5 360.174804688 670.5 360.174804688 715.724609375 339.25 c 128,-1,7
 760.950195312 318.325195312 760.950195312 318.325195312 790.650390625 281.875 c 128,-1,8
 820.349609375 245.424804688 820.349609375 245.424804688 832.5 196.825195312 c 128,-1,9
 844.650390625 148.224609375 844.650390625 148.224609375 835.200195312 92.875 c 256,10,11
 825.75 37.525390625 825.75 37.525390625 796.049804688 -11.75 c 128,-1,12
 766.349609375 -61.025390625 766.349609375 -61.025390625 723.825195312 -97.474609375 c 128,-1,13
 681.299804688 -133.924804688 681.299804688 -133.924804688 630 -155.525390625 c 128,-1,14
 578.700195312 -177.125 578.700195312 -177.125 523.349609375 -177.125 c 256,15,16
 468 -177.125 468 -177.125 422.099609375 -155.525390625 c 128,-1,17
 376.200195312 -133.924804688 376.200195312 -133.924804688 346.5 -97.474609375 c 128,-1,18
 316.799804688 -61.025390625 316.799804688 -61.025390625 304.650390625 -11.75 c 128,-1,19
 292.5 37.525390625 292.5 37.525390625 301.950195312 92.875 c 256,0,1
424.799804688 790.825195312 m 256,20,21
 434.25 846.174804688 434.25 846.174804688 463.950195312 894.775390625 c 128,-1,22
 493.650390625 943.375 493.650390625 943.375 536.849609375 979.825195312 c 128,-1,23
 580.049804688 1016.27539062 580.049804688 1016.27539062 631.349609375 1037.20019531 c 128,-1,24
 682.650390625 1058.125 682.650390625 1058.125 738 1058.125 c 256,25,26
 793.349609375 1058.125 793.349609375 1058.125 838.575195312 1037.20019531 c 128,-1,27
 883.799804688 1016.27539062 883.799804688 1016.27539062 913.5 979.825195312 c 128,-1,28
 943.200195312 943.375 943.200195312 943.375 955.349609375 894.775390625 c 128,-1,29
 967.5 846.174804688 967.5 846.174804688 958.049804688 790.825195312 c 256,30,31
 948.599609375 735.474609375 948.599609375 735.474609375 918.900390625 686.200195312 c 128,-1,32
 889.200195312 636.924804688 889.200195312 636.924804688 847.349609375 600.474609375 c 128,-1,33
 805.5 564.025390625 805.5 564.025390625 753.525390625 542.424804688 c 128,-1,34
 701.549804688 520.825195312 701.549804688 520.825195312 646.200195312 520.825195312 c 256,35,36
 590.849609375 520.825195312 590.849609375 520.825195312 545.625 542.424804688 c 128,-1,37
 500.400390625 564.025390625 500.400390625 564.025390625 470.025390625 600.474609375 c 128,-1,38
 439.650390625 636.924804688 439.650390625 636.924804688 427.5 686.200195312 c 128,-1,39
 415.349609375 735.474609375 415.349609375 735.474609375 424.799804688 790.825195312 c 256,20,21
EndSplineSet
Validated: 524321
EndChar

StartChar: semicolon
Encoding: 59 59 28
Width: 1300
VWidth: 2606
GlyphClass: 1
Flags: W
LayerCount: 2
Fore
SplineSet
362.064453125 117.325195312 m 0,0,1
 370.1640625 164.575195312 370.1640625 164.575195312 396.489257812 207.099609375 c 128,-1,2
 422.814453125 249.625 422.814453125 249.625 461.2890625 280.674804688 c 128,-1,3
 499.763671875 311.724609375 499.763671875 311.724609375 547.689453125 331.299804688 c 128,-1,4
 595.614257812 350.875 595.614257812 350.875 644.213867188 350.875 c 0,5,6
 691.463867188 350.875 691.463867188 350.875 730.614257812 334 c 128,-1,7
 769.763671875 317.125 769.763671875 317.125 798.114257812 284.724609375 c 128,-1,8
 826.463867188 252.325195312 826.463867188 252.325195312 837.939453125 202.375 c 128,-1,9
 849.4140625 152.424804688 849.4140625 152.424804688 837.263671875 90.3251953125 c 0,10,11
 822.4140625 3.9248046875 822.4140625 3.9248046875 797.439453125 -76.400390625 c 128,-1,12
 772.463867188 -156.724609375 772.463867188 -156.724609375 725.213867188 -239.075195312 c 128,-1,13
 677.963867188 -321.424804688 677.963867188 -321.424804688 601.013671875 -407.150390625 c 128,-1,14
 524.064453125 -492.875 524.064453125 -492.875 406.614257812 -586.025390625 c 1,15,-1
 329.6640625 -548.224609375 l 1,16,17
 378.263671875 -476.674804688 378.263671875 -476.674804688 421.463867188 -401.075195312 c 0,18,19
 457.9140625 -337.625 457.9140625 -337.625 490.989257812 -262.700195312 c 128,-1,20
 524.064453125 -187.775390625 524.064453125 -187.775390625 537.564453125 -116.224609375 c 1,21,22
 497.064453125 -114.875 497.064453125 -114.875 460.614257812 -98.6748046875 c 128,-1,23
 424.1640625 -82.474609375 424.1640625 -82.474609375 398.513671875 -54.125 c 128,-1,24
 372.864257812 -25.775390625 372.864257812 -25.775390625 362.739257812 18.099609375 c 128,-1,25
 352.614257812 61.974609375 352.614257812 61.974609375 362.064453125 117.325195312 c 0,0,1
466.013671875 851.724609375 m 256,26,27
 475.463867188 907.075195312 475.463867188 907.075195312 505.1640625 955.674804688 c 128,-1,28
 534.864257812 1004.27539062 534.864257812 1004.27539062 577.388671875 1040.72460938 c 128,-1,29
 619.9140625 1077.17480469 619.9140625 1077.17480469 671.888671875 1098.09960938 c 128,-1,30
 723.864257812 1119.02539062 723.864257812 1119.02539062 779.213867188 1119.02539062 c 256,31,32
 834.564453125 1119.02539062 834.564453125 1119.02539062 879.114257812 1098.09960938 c 128,-1,33
 923.6640625 1077.17480469 923.6640625 1077.17480469 954.0390625 1040.72460938 c 128,-1,34
 984.4140625 1004.27539062 984.4140625 1004.27539062 996.564453125 955.674804688 c 128,-1,35
 1008.71386719 907.075195312 1008.71386719 907.075195312 999.263671875 851.724609375 c 256,36,37
 989.814453125 796.375 989.814453125 796.375 960.114257812 747.099609375 c 128,-1,38
 930.4140625 697.825195312 930.4140625 697.825195312 887.888671875 661.375 c 128,-1,39
 845.364257812 624.924804688 845.364257812 624.924804688 794.064453125 603.325195312 c 128,-1,40
 742.763671875 581.724609375 742.763671875 581.724609375 687.4140625 581.724609375 c 256,41,42
 632.064453125 581.724609375 632.064453125 581.724609375 586.1640625 603.325195312 c 128,-1,43
 540.263671875 624.924804688 540.263671875 624.924804688 510.564453125 661.375 c 128,-1,44
 480.864257812 697.825195312 480.864257812 697.825195312 468.713867188 747.099609375 c 128,-1,45
 456.564453125 796.375 456.564453125 796.375 466.013671875 851.724609375 c 256,26,27
EndSplineSet
Validated: 524321
EndChar

StartChar: less
Encoding: 60 60 29
Width: 1300
GlyphClass: 1
Flags: W
LayerCount: 2
Fore
SplineSet
1219 1277 m 1,0,-1
 1172 1009 l 1,1,-1
 442 654 l 1,2,-1
 1047 302 l 1,3,-1
 1000 34 l 1,4,-1
 83 545 l 1,5,-1
 123 770 l 1,6,-1
 1219 1277 l 1,0,-1
EndSplineSet
Validated: 1
EndChar

StartChar: equal
Encoding: 61 61 30
Width: 1300
VWidth: 2528
GlyphClass: 1
Flags: W
LayerCount: 2
Fore
SplineSet
183.075195312 908.325195312 m 1,0,-1
 1263.07519531 908.325195312 l 1,1,-1
 1210.42480469 612.674804688 l 1,2,-1
 130.424804688 612.674804688 l 1,3,-1
 183.075195312 908.325195312 l 1,0,-1
88.5751953125 368.325195312 m 1,4,-1
 1168.57519531 368.325195312 l 1,5,-1
 1115.92480469 72.6748046875 l 1,6,-1
 35.9248046875 72.6748046875 l 1,7,-1
 88.5751953125 368.325195312 l 1,4,-1
EndSplineSet
Validated: 524289
EndChar

StartChar: greater
Encoding: 62 62 31
Width: 1300
GlyphClass: 1
Flags: W
LayerCount: 2
Fore
SplineSet
1217 770 m 1,0,-1
 1177 545 l 1,1,-1
 80 34 l 1,2,-1
 127 302 l 1,3,-1
 856 654 l 1,4,-1
 252 1009 l 1,5,-1
 299 1278 l 1,6,-1
 1217 770 l 1,0,-1
EndSplineSet
Validated: 1
EndChar

StartChar: question
Encoding: 63 63 32
Width: 1300
GlyphClass: 1
Flags: W
LayerCount: 2
Fore
SplineSet
1146 1124 m 0,0,1
 1135 1064 1135 1064 1107 1014.5 c 128,-1,2
 1079 965 1079 965 1039 922 c 128,-1,3
 999 879 999 879 950.5 841 c 128,-1,4
 902 803 902 803 852 765 c 0,5,6
 818 740 818 740 783.5 708.5 c 128,-1,7
 749 677 749 677 718.5 637 c 128,-1,8
 688 597 688 597 664.5 547 c 128,-1,9
 641 497 641 497 630 434 c 1,10,-1
 313 399 l 1,11,12
 329 486 329 486 355 562 c 128,-1,13
 381 638 381 638 421.5 705 c 128,-1,14
 462 772 462 772 519.5 830.5 c 128,-1,15
 577 889 577 889 657 942 c 0,16,17
 683 961 683 961 707.5 981 c 128,-1,18
 732 1001 732 1001 752 1023.5 c 128,-1,19
 772 1046 772 1046 786.5 1072.5 c 128,-1,20
 801 1099 801 1099 807 1132 c 0,21,22
 814 1172 814 1172 804.5 1200.5 c 128,-1,23
 795 1229 795 1229 773.5 1247.5 c 128,-1,24
 752 1266 752 1266 721.5 1274.5 c 128,-1,25
 691 1283 691 1283 657 1283 c 0,26,27
 631 1283 631 1283 592 1274.5 c 128,-1,28
 553 1266 553 1266 507.5 1246.5 c 128,-1,29
 462 1227 462 1227 414 1195 c 128,-1,30
 366 1163 366 1163 323 1117 c 1,31,-1
 168 1268 l 1,32,33
 238 1344 238 1344 311.5 1392.5 c 128,-1,34
 385 1441 385 1441 457 1468.5 c 128,-1,35
 529 1496 529 1496 596.5 1506.5 c 128,-1,36
 664 1517 664 1517 723 1517 c 0,37,38
 818 1517 818 1517 902.5 1493.5 c 128,-1,39
 987 1470 987 1470 1047 1421.5 c 128,-1,40
 1107 1373 1107 1373 1135.5 1299 c 128,-1,41
 1164 1225 1164 1225 1146 1124 c 0,0,1
273 149 m 0,42,43
 279 183 279 183 296.5 212.5 c 128,-1,44
 314 242 314 242 340.5 264.5 c 128,-1,45
 367 287 367 287 398.5 300 c 128,-1,46
 430 313 430 313 464 313 c 256,47,48
 498 313 498 313 525.5 300 c 128,-1,49
 553 287 553 287 571.5 264.5 c 128,-1,50
 590 242 590 242 597.5 212.5 c 128,-1,51
 605 183 605 183 599 149 c 0,52,53
 593 116 593 116 575 85.5 c 128,-1,54
 557 55 557 55 531 32.5 c 128,-1,55
 505 10 505 10 473 -3.5 c 128,-1,56
 441 -17 441 -17 407 -17 c 0,57,58
 374 -17 374 -17 346 -3.5 c 128,-1,59
 318 10 318 10 299.5 32.5 c 128,-1,60
 281 55 281 55 274 85.5 c 128,-1,61
 267 116 267 116 273 149 c 0,42,43
EndSplineSet
Validated: 33
EndChar

StartChar: at
Encoding: 64 64 33
Width: 1300
GlyphClass: 1
Flags: W
LayerCount: 2
Fore
SplineSet
728 636 m 1,0,-1
 783 774 l 1,1,2
 759 768 759 768 726 750 c 128,-1,3
 693 732 693 732 659 695.5 c 128,-1,4
 625 659 625 659 593 601 c 128,-1,5
 561 543 561 543 538 457 c 0,6,7
 518 381 518 381 511.5 329 c 128,-1,8
 505 277 505 277 508.5 244 c 128,-1,9
 512 211 512 211 524 194 c 128,-1,10
 536 177 536 177 551.5 171.5 c 128,-1,11
 567 166 567 166 585 169.5 c 128,-1,12
 603 173 603 173 619 181 c 1,13,-1
 728 636 l 1,0,-1
1052 570 m 0,14,15
 1068 652 1068 652 1077 734 c 128,-1,16
 1086 816 1086 816 1085.5 891.5 c 128,-1,17
 1085 967 1085 967 1073 1031.5 c 128,-1,18
 1061 1096 1061 1096 1035.5 1144 c 128,-1,19
 1010 1192 1010 1192 968.5 1219.5 c 128,-1,20
 927 1247 927 1247 868 1247 c 0,21,22
 808 1247 808 1247 746.5 1223.5 c 128,-1,23
 685 1200 685 1200 626 1159.5 c 128,-1,24
 567 1119 567 1119 513 1063.5 c 128,-1,25
 459 1008 459 1008 414 944.5 c 128,-1,26
 369 881 369 881 334.5 811.5 c 128,-1,27
 300 742 300 742 281 673 c 0,28,29
 256 584 256 584 240 487 c 128,-1,30
 224 390 224 390 221 297 c 128,-1,31
 218 204 218 204 230.5 120.5 c 128,-1,32
 243 37 243 37 275.5 -25.5 c 128,-1,33
 308 -88 308 -88 363 -125 c 128,-1,34
 418 -162 418 -162 499 -162 c 0,35,36
 514 -162 514 -162 540.5 -156.5 c 128,-1,37
 567 -151 567 -151 597.5 -139.5 c 128,-1,38
 628 -128 628 -128 660.5 -110 c 128,-1,39
 693 -92 693 -92 722 -66 c 1,40,-1
 656 -313 l 1,41,42
 640 -330 640 -330 612.5 -343 c 128,-1,43
 585 -356 585 -356 555 -364.5 c 128,-1,44
 525 -373 525 -373 496.5 -377.5 c 128,-1,45
 468 -382 468 -382 450 -382 c 0,46,47
 342 -382 342 -382 263 -340.5 c 128,-1,48
 184 -299 184 -299 130 -228.5 c 128,-1,49
 76 -158 76 -158 45.5 -64.5 c 128,-1,50
 15 29 15 29 3 132 c 128,-1,51
 -9 235 -9 235 -4.5 342 c 128,-1,52
 0 449 0 449 17 547 c 0,53,54
 39 673 39 673 82.5 790 c 128,-1,55
 126 907 126 907 187.5 1008.5 c 128,-1,56
 249 1110 249 1110 326.5 1193 c 128,-1,57
 404 1276 404 1276 494 1335.5 c 128,-1,58
 584 1395 584 1395 685 1427.5 c 128,-1,59
 786 1460 786 1460 894 1460 c 0,60,61
 995 1460 995 1460 1068.5 1424 c 128,-1,62
 1142 1388 1142 1388 1191.5 1323.5 c 128,-1,63
 1241 1259 1241 1259 1268.5 1170.5 c 128,-1,64
 1296 1082 1296 1082 1303.5 977.5 c 128,-1,65
 1311 873 1311 873 1301 756 c 128,-1,66
 1291 639 1291 639 1266 519 c 0,67,68
 1236 375 1236 375 1188.5 271 c 128,-1,69
 1141 167 1141 167 1076.5 99.5 c 128,-1,70
 1012 32 1012 32 931 0 c 128,-1,71
 850 -32 850 -32 753 -32 c 0,72,73
 728 -32 728 -32 707 -24.5 c 128,-1,74
 686 -17 686 -17 669 -4.5 c 128,-1,75
 652 8 652 8 639.5 24 c 128,-1,76
 627 40 627 40 621 57 c 1,77,-1
 555 -17 l 1,78,79
 504 -17 504 -17 456.5 -3 c 128,-1,80
 409 11 409 11 374 50 c 128,-1,81
 339 89 339 89 321.5 159 c 128,-1,82
 304 229 304 229 314 340 c 0,83,84
 324 447 324 447 353.5 536.5 c 128,-1,85
 383 626 383 626 426 697.5 c 128,-1,86
 469 769 469 769 521 822 c 128,-1,87
 573 875 573 875 628 910.5 c 128,-1,88
 683 946 683 946 736.5 963.5 c 128,-1,89
 790 981 790 981 836 981 c 0,90,91
 896 981 896 981 936.5 973 c 128,-1,92
 977 965 977 965 1001 952 c 1,93,-1
 835 249 l 2,94,95
 827 210 827 210 827.5 189.5 c 128,-1,96
 828 169 828 169 851 169 c 0,97,98
 868 169 868 169 894.5 196 c 128,-1,99
 921 223 921 223 950 274.5 c 128,-1,100
 979 326 979 326 1006.5 400.5 c 128,-1,101
 1034 475 1034 475 1052 570 c 0,14,15
EndSplineSet
Validated: 33
EndChar

StartChar: A
Encoding: 65 65 34
Width: 1300
GlyphClass: 1
Flags: W
LayerCount: 2
Fore
SplineSet
35 0 m 1,0,-1
 616 1284 l 1,1,-1
 680 1500 l 1,2,-1
 1072 1520 l 1,3,-1
 1234 0 l 1,4,-1
 900 0 l 1,5,-1
 872 427 l 1,6,-1
 530 427 l 1,7,-1
 353 0 l 1,8,-1
 35 0 l 1,0,-1
862 1331 m 1,9,-1
 763 990 l 1,10,-1
 627 646 l 1,11,-1
 851 646 l 1,12,-1
 840 990 l 1,13,-1
 862 1331 l 1,9,-1
EndSplineSet
Validated: 1
EndChar

StartChar: B
Encoding: 66 66 35
Width: 1300
GlyphClass: 1
Flags: W
LayerCount: 2
Fore
SplineSet
612 1130 m 1,0,-1
 571 900 l 1,1,-1
 600 900 l 2,2,3
 647 900 647 900 696.5 913 c 128,-1,4
 746 926 746 926 789.5 953.5 c 128,-1,5
 833 981 833 981 864.5 1024 c 128,-1,6
 896 1067 896 1067 907 1128 c 0,7,8
 917 1183 917 1183 900 1218 c 128,-1,9
 883 1253 883 1253 850.5 1272 c 128,-1,10
 818 1291 818 1291 775.5 1298 c 128,-1,11
 733 1305 733 1305 692 1305 c 0,12,13
 678 1305 678 1305 660 1304 c 128,-1,14
 642 1303 642 1303 626 1301 c 1,15,-1
 612 1130 l 1,0,-1
63 0 m 1,16,-1
 284 1262 l 1,17,-1
 284 1489 l 1,18,19
 328 1495 328 1495 381 1500 c 128,-1,20
 434 1505 434 1505 487 1509 c 128,-1,21
 540 1513 540 1513 587.5 1515 c 128,-1,22
 635 1517 635 1517 668 1517 c 0,23,24
 788 1517 788 1517 895.5 1499 c 128,-1,25
 1003 1481 1003 1481 1080.5 1437 c 128,-1,26
 1158 1393 1158 1393 1195.5 1320 c 128,-1,27
 1233 1247 1233 1247 1214 1138 c 256,28,29
 1195 1029 1195 1029 1129.5 950 c 128,-1,30
 1064 871 1064 871 954 826 c 1,31,32
 1015 804 1015 804 1064.5 770 c 128,-1,33
 1114 736 1114 736 1146.5 689.5 c 128,-1,34
 1179 643 1179 643 1191.5 584 c 128,-1,35
 1204 525 1204 525 1192 455 c 0,36,37
 1168 323 1168 323 1112 235.5 c 128,-1,38
 1056 148 1056 148 971 95.5 c 128,-1,39
 886 43 886 43 774 21.5 c 128,-1,40
 662 0 662 0 527 0 c 2,41,-1
 63 0 l 1,16,-1
453 228 m 1,42,-1
 510 228 l 2,43,44
 585 228 585 228 646 239.5 c 128,-1,45
 707 251 707 251 752 279 c 128,-1,46
 797 307 797 307 826.5 352 c 128,-1,47
 856 397 856 397 868 465 c 0,48,49
 879 530 879 530 866 573.5 c 128,-1,50
 853 617 853 617 820.5 643.5 c 128,-1,51
 788 670 788 670 739 681.5 c 128,-1,52
 690 693 690 693 630 693 c 2,53,-1
 535 693 l 1,54,-1
 453 228 l 1,42,-1
EndSplineSet
Validated: 33
EndChar

StartChar: C
Encoding: 67 67 36
Width: 1300
GlyphClass: 1
Flags: W
LayerCount: 2
Fore
SplineSet
1058 133 m 1,0,1
 943 52 943 52 824 17.5 c 128,-1,2
 705 -17 705 -17 575 -17 c 0,3,4
 472 -17 472 -17 387.5 11.5 c 128,-1,5
 303 40 303 40 238.5 91.5 c 128,-1,6
 174 143 174 143 129 215 c 128,-1,7
 84 287 84 287 60.5 374 c 128,-1,8
 37 461 37 461 34 561.5 c 128,-1,9
 31 662 31 662 50 769 c 0,10,11
 68 870 68 870 96 964.5 c 128,-1,12
 124 1059 124 1059 167 1142 c 128,-1,13
 210 1225 210 1225 270.5 1294 c 128,-1,14
 331 1363 331 1363 414 1412.5 c 128,-1,15
 497 1462 497 1462 605 1489.5 c 128,-1,16
 713 1517 713 1517 850 1517 c 0,17,18
 914 1517 914 1517 974.5 1505.5 c 128,-1,19
 1035 1494 1035 1494 1089 1472 c 128,-1,20
 1143 1450 1143 1450 1189 1418 c 128,-1,21
 1235 1386 1235 1386 1271 1344 c 1,22,-1
 1091 1160 l 1,23,24
 1062 1182 1062 1182 1029 1202 c 128,-1,25
 996 1222 996 1222 961.5 1237 c 128,-1,26
 927 1252 927 1252 891.5 1261 c 128,-1,27
 856 1270 856 1270 822 1270 c 0,28,29
 727 1270 727 1270 656 1231 c 128,-1,30
 585 1192 585 1192 534.5 1124.5 c 128,-1,31
 484 1057 484 1057 451 966 c 128,-1,32
 418 875 418 875 400 772 c 0,33,34
 389 711 389 711 386.5 647.5 c 128,-1,35
 384 584 384 584 391 524 c 128,-1,36
 398 464 398 464 416 411 c 128,-1,37
 434 358 434 358 464.5 318.5 c 128,-1,38
 495 279 495 279 539.5 256 c 128,-1,39
 584 233 584 233 643 233 c 0,40,41
 677 233 677 233 711 238.5 c 128,-1,42
 745 244 745 244 784 256.5 c 128,-1,43
 823 269 823 269 869.5 289.5 c 128,-1,44
 916 310 916 310 975 340 c 1,45,-1
 1058 133 l 1,0,1
EndSplineSet
Validated: 33
EndChar

StartChar: D
Encoding: 68 68 37
Width: 1300
GlyphClass: 1
Flags: W
LayerCount: 2
Fore
SplineSet
223 1500 m 1,0,1
 273 1505 273 1505 330 1508 c 128,-1,2
 387 1511 387 1511 442 1513 c 128,-1,3
 497 1515 497 1515 546 1516 c 128,-1,4
 595 1517 595 1517 628 1517 c 0,5,6
 721 1517 721 1517 811 1499.5 c 128,-1,7
 901 1482 901 1482 980 1444.5 c 128,-1,8
 1059 1407 1059 1407 1123 1350 c 128,-1,9
 1187 1293 1187 1293 1227.5 1214 c 128,-1,10
 1268 1135 1268 1135 1281 1033.5 c 128,-1,11
 1294 932 1294 932 1272 807 c 0,12,13
 1234 589 1234 589 1162.5 435.5 c 128,-1,14
 1091 282 1091 282 979.5 185.5 c 128,-1,15
 868 89 868 89 713 44.5 c 128,-1,16
 558 0 558 0 353 0 c 2,17,-1
 2 0 l 1,18,-1
 223 1262 l 1,19,-1
 223 1500 l 1,0,1
549 1121 m 1,20,-1
 396 250 l 1,21,22
 501 250 501 250 578.5 275.5 c 128,-1,23
 656 301 656 301 712.5 343.5 c 128,-1,24
 769 386 769 386 806 441 c 128,-1,25
 843 496 843 496 867 554.5 c 128,-1,26
 891 613 891 613 904 671 c 128,-1,27
 917 729 917 729 926 778 c 0,28,29
 946 890 946 890 944.5 983 c 128,-1,30
 943 1076 943 1076 907 1143 c 128,-1,31
 871 1210 871 1210 792.5 1246.5 c 128,-1,32
 714 1283 714 1283 579 1283 c 0,33,34
 576 1283 576 1283 572.5 1282.5 c 128,-1,35
 569 1282 569 1282 565 1282 c 2,36,-1
 557 1282 l 1,37,-1
 549 1121 l 1,20,-1
EndSplineSet
Validated: 33
EndChar

StartChar: E
Encoding: 69 69 38
Width: 1300
GlyphClass: 1
Flags: W
LayerCount: 2
Fore
SplineSet
1066 228 m 1,0,-1
 999 0 l 1,1,-1
 39 0 l 1,2,-1
 97 231 l 1,3,-1
 279 1263 l 1,4,-1
 279 1500 l 1,5,-1
 1254 1500 l 1,6,-1
 1214 1272 l 1,7,-1
 617 1272 l 1,8,-1
 607 1134 l 1,9,-1
 569 916 l 1,10,-1
 1085 916 l 1,11,-1
 1047 703 l 1,12,-1
 531 703 l 1,13,-1
 471 360 l 1,14,-1
 439 228 l 1,15,-1
 1066 228 l 1,0,-1
EndSplineSet
Validated: 1
EndChar

StartChar: F
Encoding: 70 70 39
Width: 1300
GlyphClass: 1
Flags: W
LayerCount: 2
Fore
SplineSet
383 0 m 1,0,-1
 32 0 l 1,1,-1
 255 1263 l 1,2,-1
 255 1500 l 1,3,-1
 1264 1500 l 1,4,-1
 1197 1272 l 1,5,-1
 593 1272 l 1,6,-1
 583 1134 l 1,7,-1
 545 916 l 1,8,-1
 1058 916 l 1,9,-1
 1020 703 l 1,10,-1
 507 703 l 1,11,-1
 383 0 l 1,0,-1
EndSplineSet
Validated: 1
EndChar

StartChar: G
Encoding: 71 71 40
Width: 1300
GlyphClass: 1
Flags: W
LayerCount: 2
Fore
SplineSet
1157 221 m 1,0,1
 1103 171 1103 171 1039.5 127.5 c 128,-1,2
 976 84 976 84 902.5 52 c 128,-1,3
 829 20 829 20 746.5 1.5 c 128,-1,4
 664 -17 664 -17 572 -17 c 0,5,6
 417 -17 417 -17 305 45.5 c 128,-1,7
 193 108 193 108 126.5 215 c 128,-1,8
 60 322 60 322 39.5 465 c 128,-1,9
 19 608 19 608 47 769 c 0,10,11
 74 920 74 920 139 1056 c 128,-1,12
 204 1192 204 1192 306.5 1294.5 c 128,-1,13
 409 1397 409 1397 549 1457 c 128,-1,14
 689 1517 689 1517 865 1517 c 0,15,16
 994 1517 994 1517 1103.5 1472.5 c 128,-1,17
 1213 1428 1213 1428 1286 1344 c 1,18,-1
 1108 1170 l 1,19,20
 1079 1192 1079 1192 1046 1212 c 128,-1,21
 1013 1232 1013 1232 978.5 1247 c 128,-1,22
 944 1262 944 1262 908.5 1271 c 128,-1,23
 873 1280 873 1280 838 1280 c 0,24,25
 743 1280 743 1280 669.5 1239.5 c 128,-1,26
 596 1199 596 1199 542 1129.5 c 128,-1,27
 488 1060 488 1060 452 967.5 c 128,-1,28
 416 875 416 875 398 772 c 0,29,30
 387 711 387 711 384.5 646.5 c 128,-1,31
 382 582 382 582 388.5 520.5 c 128,-1,32
 395 459 395 459 413 405 c 128,-1,33
 431 351 431 351 461.5 310 c 128,-1,34
 492 269 492 269 535.5 245 c 128,-1,35
 579 221 579 221 639 221 c 0,36,37
 664 221 664 221 691.5 227 c 128,-1,38
 719 233 719 233 745 242.5 c 128,-1,39
 771 252 771 252 795 264 c 128,-1,40
 819 276 819 276 837 289 c 1,41,-1
 895 616 l 1,42,-1
 604 635 l 1,43,-1
 640 840 l 1,44,-1
 1266 840 l 1,45,-1
 1157 221 l 1,0,1
EndSplineSet
Validated: 33
EndChar

StartChar: H
Encoding: 72 72 41
Width: 1300
GlyphClass: 1
Flags: W
LayerCount: 2
Fore
SplineSet
672 0 m 1,0,-1
 794 688 l 1,1,-1
 478 688 l 1,2,-1
 356 0 l 1,3,-1
 10 0 l 1,4,-1
 232 1263 l 1,5,-1
 232 1500 l 1,6,-1
 625 1520 l 1,7,-1
 518 916 l 1,8,-1
 834 916 l 1,9,-1
 937 1500 l 1,10,-1
 1287 1520 l 1,11,-1
 1018 0 l 1,12,-1
 672 0 l 1,0,-1
EndSplineSet
Validated: 1
EndChar

StartChar: I
Encoding: 73 73 42
Width: 1300
GlyphClass: 1
Flags: W
LayerCount: 2
Fore
SplineSet
347 1500 m 1,0,-1
 1225 1500 l 1,1,-1
 1185 1272 l 1,2,-1
 912 1272 l 1,3,-1
 727 228 l 1,4,-1
 1028 228 l 1,5,-1
 953 0 l 1,6,-1
 75 0 l 1,7,-1
 115 228 l 1,8,-1
 393 228 l 1,9,-1
 578 1272 l 1,10,-1
 272 1272 l 1,11,-1
 347 1500 l 1,0,-1
EndSplineSet
Validated: 1
EndChar

StartChar: J
Encoding: 74 74 43
Width: 1300
GlyphClass: 1
Flags: W
LayerCount: 2
Fore
SplineSet
471 1500 m 1,0,-1
 1243 1500 l 1,1,-1
 1057 446 l 2,2,3
 1041 352 1041 352 997.5 271.5 c 128,-1,4
 954 191 954 191 884 121 c 0,5,6
 851 88 851 88 807.5 62.5 c 128,-1,7
 764 37 764 37 712.5 19.5 c 128,-1,8
 661 2 661 2 604 -7.5 c 128,-1,9
 547 -17 547 -17 489 -17 c 0,10,11
 392 -17 392 -17 321.5 0.5 c 128,-1,12
 251 18 251 18 200 48 c 128,-1,13
 149 78 149 78 113.5 117 c 128,-1,14
 78 156 78 156 50 200 c 1,15,-1
 239 400 l 1,16,17
 251 382 251 382 270.5 355.5 c 128,-1,18
 290 329 290 329 320.5 304.5 c 128,-1,19
 351 280 351 280 396 262 c 128,-1,20
 441 244 441 244 504 244 c 0,21,22
 534 244 534 244 565.5 253.5 c 128,-1,23
 597 263 597 263 625 286 c 128,-1,24
 653 309 653 309 674.5 347.5 c 128,-1,25
 696 386 696 386 706 444 c 2,26,-1
 827 1132 l 1,27,-1
 871 1266 l 1,28,-1
 450 1266 l 1,29,-1
 471 1500 l 1,0,-1
EndSplineSet
Validated: 1
EndChar

StartChar: K
Encoding: 75 75 44
Width: 1300
GlyphClass: 1
Flags: W
LayerCount: 2
Fore
SplineSet
8 0 m 1,0,-1
 230 1263 l 1,1,-1
 230 1500 l 1,2,-1
 627 1520 l 1,3,-1
 541 1035 l 1,4,-1
 924 1500 l 1,5,-1
 1292 1500 l 1,6,-1
 777 900 l 1,7,-1
 527 800 l 1,8,-1
 735 716 l 1,9,-1
 1138 0 l 1,10,-1
 758 0 l 1,11,-1
 454 540 l 1,12,-1
 358 0 l 1,13,-1
 8 0 l 1,0,-1
EndSplineSet
Validated: 1
EndChar

StartChar: L
Encoding: 76 76 45
Width: 1300
GlyphClass: 1
Flags: W
LayerCount: 2
Fore
SplineSet
507 228 m 1,0,-1
 1197 228 l 1,1,-1
 1129 0 l 1,2,-1
 104 0 l 1,3,-1
 167 232 l 1,4,-1
 349 1263 l 1,5,-1
 349 1500 l 1,6,-1
 743 1520 l 1,7,-1
 538 360 l 1,8,-1
 507 228 l 1,0,-1
EndSplineSet
Validated: 1
EndChar

StartChar: M
Encoding: 77 77 46
Width: 1300
GlyphClass: 1
Flags: W
LayerCount: 2
Fore
SplineSet
717 0 m 1,0,-1
 797 449 l 1,1,-1
 1036 1200 l 1,2,-1
 1026 1200 l 1,3,-1
 801 700 l 1,4,-1
 693 475 l 1,5,-1
 502 475 l 1,6,-1
 477 700 l 1,7,-1
 426 1200 l 1,8,-1
 416 1200 l 1,9,-1
 396 449 l 1,10,-1
 316 0 l 1,11,-1
 5 0 l 1,12,-1
 227 1263 l 1,13,-1
 227 1500 l 1,14,-1
 552 1520 l 1,15,-1
 645 1079 l 1,16,-1
 642 800 l 1,17,-1
 725 1082 l 1,18,-1
 969 1500 l 1,19,-1
 1299 1520 l 1,20,-1
 1030 0 l 1,21,-1
 717 0 l 1,0,-1
EndSplineSet
Validated: 1
EndChar

StartChar: N
Encoding: 78 78 47
Width: 1300
GlyphClass: 1
Flags: W
LayerCount: 2
Fore
SplineSet
739 0 m 1,0,-1
 443 950 l 1,1,-1
 433 950 l 1,2,-1
 442 649 l 1,3,-1
 327 0 l 1,4,-1
 5 0 l 1,5,-1
 227 1263 l 1,6,-1
 227 1500 l 1,7,-1
 566 1520 l 1,8,-1
 861 600 l 1,9,-1
 871 600 l 1,10,-1
 857 852 l 1,11,-1
 971 1500 l 1,12,-1
 1297 1520 l 1,13,-1
 1028 0 l 1,14,-1
 739 0 l 1,0,-1
EndSplineSet
Validated: 1
EndChar

StartChar: O
Encoding: 79 79 48
Width: 1300
GlyphClass: 1
Flags: W
LayerCount: 2
Fore
SplineSet
514 -17 m 0,0,1
 416 -17 416 -17 338.5 10.5 c 128,-1,2
 261 38 261 38 203.5 88.5 c 128,-1,3
 146 139 146 139 108 209 c 128,-1,4
 70 279 70 279 51 364.5 c 128,-1,5
 32 450 32 450 32 547.5 c 128,-1,6
 32 645 32 645 51 750 c 0,7,8
 69 855 69 855 103 952.5 c 128,-1,9
 137 1050 137 1050 185 1135.5 c 128,-1,10
 233 1221 233 1221 295 1291 c 128,-1,11
 357 1361 357 1361 432 1411.5 c 128,-1,12
 507 1462 507 1462 595.5 1489.5 c 128,-1,13
 684 1517 684 1517 785 1517 c 0,14,15
 932 1517 932 1517 1033 1456 c 128,-1,16
 1134 1395 1134 1395 1191 1291 c 128,-1,17
 1248 1187 1248 1187 1262 1047 c 128,-1,18
 1276 907 1276 907 1248 750 c 0,19,20
 1229 645 1229 645 1195.5 547.5 c 128,-1,21
 1162 450 1162 450 1114 364.5 c 128,-1,22
 1066 279 1066 279 1004 209 c 128,-1,23
 942 139 942 139 866.5 88.5 c 128,-1,24
 791 38 791 38 702.5 10.5 c 128,-1,25
 614 -17 614 -17 514 -17 c 0,0,1
892 721 m 0,26,27
 903 783 903 783 911 848 c 128,-1,28
 919 913 919 913 920.5 974.5 c 128,-1,29
 922 1036 922 1036 914 1090.5 c 128,-1,30
 906 1145 906 1145 885 1185.5 c 128,-1,31
 864 1226 864 1226 828 1250 c 128,-1,32
 792 1274 792 1274 736 1274 c 0,33,34
 684 1274 684 1274 642 1252.5 c 128,-1,35
 600 1231 600 1231 566.5 1194.5 c 128,-1,36
 533 1158 533 1158 507.5 1109.5 c 128,-1,37
 482 1061 482 1061 462.5 1006.5 c 128,-1,38
 443 952 443 952 429 894.5 c 128,-1,39
 415 837 415 837 406 783 c 0,40,41
 395 720 395 720 387 654.5 c 128,-1,42
 379 589 379 589 378 527 c 128,-1,43
 377 465 377 465 385 410.5 c 128,-1,44
 393 356 393 356 414 315 c 128,-1,45
 435 274 435 274 471 250 c 128,-1,46
 507 226 507 226 562 226 c 0,47,48
 639 226 639 226 695 273 c 128,-1,49
 751 320 751 320 790 393 c 128,-1,50
 829 466 829 466 853.5 553 c 128,-1,51
 878 640 878 640 892 721 c 0,26,27
EndSplineSet
Validated: 33
EndChar

StartChar: P
Encoding: 80 80 49
Width: 1300
GlyphClass: 1
Flags: W
LayerCount: 2
Fore
SplineSet
360 0 m 1,0,-1
 28 0 l 1,1,-1
 250 1262 l 1,2,-1
 250 1484 l 1,3,4
 296 1491 296 1491 350.5 1497.5 c 128,-1,5
 405 1504 405 1504 459.5 1508 c 128,-1,6
 514 1512 514 1512 564.5 1514.5 c 128,-1,7
 615 1517 615 1517 653 1517 c 0,8,9
 810 1517 810 1517 930 1483 c 128,-1,10
 1050 1449 1050 1449 1128.5 1388.5 c 128,-1,11
 1207 1328 1207 1328 1242 1244 c 128,-1,12
 1277 1160 1277 1160 1263 1061 c 0,13,14
 1245 929 1245 929 1185.5 839.5 c 128,-1,15
 1126 750 1126 750 1025.5 694.5 c 128,-1,16
 925 639 925 639 784.5 613 c 128,-1,17
 644 587 644 587 463 583 c 1,18,-1
 360 0 l 1,0,-1
557 1121 m 1,19,-1
 503 813 l 1,20,21
 608 817 608 817 684.5 832.5 c 128,-1,22
 761 848 761 848 813.5 878.5 c 128,-1,23
 866 909 866 909 896.5 958 c 128,-1,24
 927 1007 927 1007 940 1078 c 0,25,26
 949 1132 949 1132 926.5 1172.5 c 128,-1,27
 904 1213 904 1213 862 1239.5 c 128,-1,28
 820 1266 820 1266 765.5 1279 c 128,-1,29
 711 1292 711 1292 657 1292 c 2,30,-1
 633 1292 l 2,31,32
 623 1292 623 1292 614 1291.5 c 128,-1,33
 605 1291 605 1291 594.5 1290.5 c 128,-1,34
 584 1290 584 1290 571 1289 c 1,35,-1
 557 1121 l 1,19,-1
EndSplineSet
Validated: 33
EndChar

StartChar: Q
Encoding: 81 81 50
Width: 1300
GlyphClass: 1
Flags: W
LayerCount: 2
Fore
SplineSet
1035 -180 m 1,0,1
 939 -180 939 -180 869.5 -169.5 c 128,-1,2
 800 -159 800 -159 748 -129 c 128,-1,3
 696 -99 696 -99 657 -44 c 128,-1,4
 618 11 618 11 584 100 c 1,5,-1
 565 -11 l 1,6,7
 539 -14 539 -14 515 -15.5 c 128,-1,8
 491 -17 491 -17 466 -17 c 0,9,10
 375 -17 375 -17 304 12 c 128,-1,11
 233 41 233 41 181 93 c 128,-1,12
 129 145 129 145 95.5 216.5 c 128,-1,13
 62 288 62 288 46 373.5 c 128,-1,14
 30 459 30 459 31.5 554.5 c 128,-1,15
 33 650 33 650 50 750 c 0,16,17
 68 855 68 855 102 952.5 c 128,-1,18
 136 1050 136 1050 184 1135.5 c 128,-1,19
 232 1221 232 1221 294 1291 c 128,-1,20
 356 1361 356 1361 431 1411.5 c 128,-1,21
 506 1462 506 1462 594.5 1489.5 c 128,-1,22
 683 1517 683 1517 784 1517 c 0,23,24
 931 1517 931 1517 1032.5 1461 c 128,-1,25
 1134 1405 1134 1405 1192 1306.5 c 128,-1,26
 1250 1208 1250 1208 1265 1073 c 128,-1,27
 1280 938 1280 938 1252 780 c 0,28,29
 1236 688 1236 688 1203 592.5 c 128,-1,30
 1170 497 1170 497 1122.5 410 c 128,-1,31
 1075 323 1075 323 1013.5 249.5 c 128,-1,32
 952 176 952 176 879 127 c 1,33,34
 892 97 892 97 914 81 c 128,-1,35
 936 65 936 65 962.5 58.5 c 128,-1,36
 989 52 989 52 1018.5 51 c 128,-1,37
 1048 50 1048 50 1075 50 c 1,38,-1
 1035 -180 l 1,0,1
398 783 m 0,39,40
 389 723 389 723 380 659.5 c 128,-1,41
 371 596 371 596 367.5 535.5 c 128,-1,42
 364 475 364 475 369 421 c 128,-1,43
 374 367 374 367 393 326.5 c 128,-1,44
 412 286 412 286 447.5 262.5 c 128,-1,45
 483 239 483 239 541 239 c 1,46,47
 533 262 533 262 521 298.5 c 128,-1,48
 509 335 509 335 496.5 374 c 128,-1,49
 484 413 484 413 472 447 c 2,50,-1
 455 500 l 1,51,-1
 700 601 l 1,52,-1
 797 300 l 1,53,-1
 832 500 l 1,54,55
 850 548 850 548 870.5 609.5 c 128,-1,56
 891 671 891 671 905 751 c 0,57,58
 916 813 916 813 922.5 876 c 128,-1,59
 929 939 929 939 927.5 997.5 c 128,-1,60
 926 1056 926 1056 915.5 1107.5 c 128,-1,61
 905 1159 905 1159 882.5 1197 c 128,-1,62
 860 1235 860 1235 824 1257 c 128,-1,63
 788 1279 788 1279 736 1279 c 0,64,65
 687 1279 687 1279 645.5 1257.5 c 128,-1,66
 604 1236 604 1236 569.5 1199 c 128,-1,67
 535 1162 535 1162 507.5 1112.5 c 128,-1,68
 480 1063 480 1063 459 1008 c 128,-1,69
 438 953 438 953 422.5 895 c 128,-1,70
 407 837 407 837 398 783 c 0,39,40
EndSplineSet
Validated: 33
EndChar

StartChar: R
Encoding: 82 82 51
Width: 1300
GlyphClass: 1
Flags: W
LayerCount: 2
Fore
SplineSet
491 600 m 1,0,-1
 385 0 l 1,1,-1
 61 0 l 1,2,-1
 282 1262 l 1,3,-1
 282 1488 l 1,4,-1
 376 1498 l 2,5,6
 426 1504 426 1504 476 1508 c 128,-1,7
 526 1512 526 1512 575 1514.5 c 128,-1,8
 624 1517 624 1517 668 1517 c 0,9,10
 795 1517 795 1517 903 1485.5 c 128,-1,11
 1011 1454 1011 1454 1086 1394.5 c 128,-1,12
 1161 1335 1161 1335 1196 1250.5 c 128,-1,13
 1231 1166 1231 1166 1212 1061 c 0,14,15
 1197 972 1197 972 1157 901.5 c 128,-1,16
 1117 831 1117 831 1057 777 c 128,-1,17
 997 723 997 723 918.5 685 c 128,-1,18
 840 647 840 647 746 624 c 1,19,-1
 834 600 l 1,20,-1
 1136 0 l 1,21,-1
 771 0 l 1,22,-1
 491 600 l 1,0,-1
582 1121 m 1,23,-1
 526 800 l 1,24,-1
 562 800 l 2,25,26
 630 800 630 800 686.5 821.5 c 128,-1,27
 743 843 743 843 785.5 879.5 c 128,-1,28
 828 916 828 916 855 964.5 c 128,-1,29
 882 1013 882 1013 891 1066 c 0,30,31
 903 1136 903 1136 885 1181 c 128,-1,32
 867 1226 867 1226 830.5 1251.5 c 128,-1,33
 794 1277 794 1277 746.5 1286.5 c 128,-1,34
 699 1296 699 1296 653 1296 c 0,35,36
 637 1296 637 1296 623 1295.5 c 128,-1,37
 609 1295 609 1295 597 1294 c 1,38,-1
 582 1121 l 1,23,-1
EndSplineSet
Validated: 33
EndChar

StartChar: S
Encoding: 83 83 52
Width: 1300
GlyphClass: 1
Flags: W
LayerCount: 2
Fore
SplineSet
1048 1178 m 1,0,1
 1006 1205 1006 1205 972 1223 c 128,-1,2
 938 1241 938 1241 908 1252.5 c 128,-1,3
 878 1264 878 1264 850.5 1269 c 128,-1,4
 823 1274 823 1274 795 1274 c 0,5,6
 758 1274 758 1274 720.5 1267 c 128,-1,7
 683 1260 683 1260 651 1243 c 128,-1,8
 619 1226 619 1226 595.5 1197.5 c 128,-1,9
 572 1169 572 1169 565 1125 c 0,10,11
 557 1084 557 1084 572.5 1054.5 c 128,-1,12
 588 1025 588 1025 617 1002 c 128,-1,13
 646 979 646 979 685.5 960 c 128,-1,14
 725 941 725 941 766 921 c 0,15,16
 859 876 859 876 930 825.5 c 128,-1,17
 1001 775 1001 775 1045.5 713.5 c 128,-1,18
 1090 652 1090 652 1106 574.5 c 128,-1,19
 1122 497 1122 497 1104 398 c 0,20,21
 1084 282 1084 282 1022 203 c 128,-1,22
 960 124 960 124 872 75 c 128,-1,23
 784 26 784 26 677 4.5 c 128,-1,24
 570 -17 570 -17 460 -17 c 0,25,26
 397 -17 397 -17 341 -8 c 128,-1,27
 285 1 285 1 234 18.5 c 128,-1,28
 183 36 183 36 135 62 c 128,-1,29
 87 88 87 88 39 121 c 1,30,-1
 217 348 l 1,31,32
 241 330 241 330 274.5 312 c 128,-1,33
 308 294 308 294 346 279 c 128,-1,34
 384 264 384 264 424.5 255 c 128,-1,35
 465 246 465 246 503 246 c 0,36,37
 547 246 547 246 591.5 254 c 128,-1,38
 636 262 636 262 673.5 282.5 c 128,-1,39
 711 303 711 303 738 338.5 c 128,-1,40
 765 374 765 374 775 430 c 0,41,42
 785 484 785 484 767.5 523 c 128,-1,43
 750 562 750 562 715.5 591.5 c 128,-1,44
 681 621 681 621 635 645 c 128,-1,45
 589 669 589 669 542 693 c 0,46,47
 476 727 476 727 416 770 c 128,-1,48
 356 813 356 813 313.5 866 c 128,-1,49
 271 919 271 919 250.5 984 c 128,-1,50
 230 1049 230 1049 244 1127 c 0,51,52
 262 1228 262 1228 317 1301.5 c 128,-1,53
 372 1375 372 1375 450.5 1423 c 128,-1,54
 529 1471 529 1471 623.5 1494 c 128,-1,55
 718 1517 718 1517 814 1517 c 0,56,57
 931 1517 931 1517 1032.5 1480 c 128,-1,58
 1134 1443 1134 1443 1232 1369 c 1,59,-1
 1048 1178 l 1,0,1
EndSplineSet
Validated: 33
EndChar

StartChar: T
Encoding: 84 84 53
Width: 1300
GlyphClass: 1
Flags: W
LayerCount: 2
Fore
SplineSet
246 0 m 1,0,-1
 471 1272 l 1,1,-1
 68 1272 l 1,2,-1
 108 1500 l 1,3,-1
 1242 1500 l 1,4,-1
 1202 1272 l 1,5,-1
 804 1272 l 1,6,-1
 579 0 l 1,7,-1
 246 0 l 1,0,-1
EndSplineSet
Validated: 1
EndChar

StartChar: U
Encoding: 85 85 54
Width: 1300
GlyphClass: 1
Flags: W
LayerCount: 2
Fore
SplineSet
1261 1500 m 1,0,-1
 1091 534 l 2,1,2
 1067 395 1067 395 1011.5 291.5 c 128,-1,3
 956 188 956 188 874 119.5 c 128,-1,4
 792 51 792 51 685.5 17 c 128,-1,5
 579 -17 579 -17 453 -17 c 0,6,7
 317 -17 317 -17 230.5 26 c 128,-1,8
 144 69 144 69 99.5 148 c 128,-1,9
 55 227 55 227 48.5 337.5 c 128,-1,10
 42 448 42 448 66 582 c 2,11,-1
 186 1263 l 1,12,-1
 186 1500 l 1,13,-1
 563 1520 l 1,14,-1
 394 564 l 2,15,16
 380 483 380 483 375 419 c 128,-1,17
 370 355 370 355 381.5 311 c 128,-1,18
 393 267 393 267 425 244 c 128,-1,19
 457 221 457 221 516 221 c 0,20,21
 607 221 607 221 668.5 294.5 c 128,-1,22
 730 368 730 368 756 516 c 2,23,-1
 929 1500 l 1,24,-1
 1261 1500 l 1,0,-1
EndSplineSet
Validated: 33
EndChar

StartChar: V
Encoding: 86 86 55
Width: 1300
GlyphClass: 1
Flags: W
LayerCount: 2
Fore
SplineSet
1283 1500 m 1,0,-1
 641 200 l 1,1,-1
 575 -17 l 1,2,-1
 226 0 l 1,3,-1
 17 1500 l 1,4,-1
 343 1520 l 1,5,-1
 451 700 l 1,6,-1
 427 260 l 1,7,-1
 574 700 l 1,8,-1
 963 1500 l 1,9,-1
 1283 1500 l 1,0,-1
EndSplineSet
Validated: 1
EndChar

StartChar: W
Encoding: 87 87 56
Width: 1300
GlyphClass: 1
Flags: W
LayerCount: 2
Fore
SplineSet
319 1520 m 1,0,-1
 333 959 l 1,1,-1
 231 400 l 1,2,-1
 241 400 l 1,3,-1
 348 701 l 1,4,-1
 452 1000 l 1,5,-1
 678 1000 l 1,6,-1
 682 701 l 1,7,-1
 681 400 l 1,8,-1
 691 400 l 1,9,-1
 787 957 l 1,10,-1
 985 1500 l 1,11,-1
 1276 1500 l 1,12,-1
 743 0 l 1,13,-1
 490 0 l 1,14,-1
 482 300 l 1,15,-1
 504 650 l 1,16,-1
 401 300 l 1,17,-1
 286 0 l 1,18,-1
 30 0 l 1,19,-1
 31 1500 l 1,20,-1
 319 1520 l 1,0,-1
EndSplineSet
Validated: 1
EndChar

StartChar: X
Encoding: 88 88 57
Width: 1300
GlyphClass: 1
Flags: W
LayerCount: 2
Fore
SplineSet
856 0 m 1,0,-1
 642 613 l 1,1,-1
 602 427 l 1,2,-1
 352 0 l 1,3,-1
 30 0 l 1,4,-1
 552 824 l 1,5,-1
 283 1500 l 1,6,-1
 615 1520 l 1,7,-1
 796 1050 l 1,8,-1
 848 1231 l 1,9,-1
 1013 1500 l 1,10,-1
 1300 1500 l 1,11,-1
 879 855 l 1,12,-1
 1196 0 l 1,13,-1
 856 0 l 1,0,-1
EndSplineSet
Validated: 1
EndChar

StartChar: Y
Encoding: 89 89 58
Width: 1300
GlyphClass: 1
Flags: W
LayerCount: 2
Fore
SplineSet
518 1143 m 1,0,-1
 560 773 l 1,1,-1
 683 1143 l 1,2,-1
 928 1500 l 1,3,-1
 1263 1500 l 1,4,-1
 680 650 l 1,5,-1
 565 0 l 1,6,-1
 214 0 l 1,7,-1
 329 650 l 1,8,-1
 50 1500 l 1,9,-1
 393 1520 l 1,10,-1
 518 1143 l 1,0,-1
EndSplineSet
Validated: 1
EndChar

StartChar: Z
Encoding: 90 90 59
Width: 1300
GlyphClass: 1
Flags: W
LayerCount: 2
Fore
SplineSet
1100 228 m 1,0,-1
 1087 0 l 1,1,-1
 48 0 l 1,2,-1
 30 86 l 1,3,-1
 765 1187 l 1,4,-1
 922 1300 l 1,5,-1
 787 1272 l 1,6,-1
 329 1272 l 1,7,-1
 342 1500 l 1,8,-1
 1256 1500 l 1,9,-1
 1287 1442 l 1,10,-1
 541 314 l 1,11,-1
 387 200 l 1,12,-1
 524 228 l 1,13,-1
 1100 228 l 1,0,-1
EndSplineSet
Validated: 1
EndChar

StartChar: bracketleft
Encoding: 91 91 60
Width: 1300
GlyphClass: 1
Flags: W
LayerCount: 2
Fore
SplineSet
459 1288 m 1,0,-1
 474 1520 l 1,1,-1
 1174 1520 l 1,2,-1
 1135 1302 l 1,3,-1
 785 1302 l 1,4,-1
 774 1154 l 1,5,-1
 565 -31 l 1,6,-1
 524 -179 l 1,7,-1
 874 -179 l 1,8,-1
 835 -398 l 1,9,-1
 135 -398 l 1,10,-1
 202 -166 l 1,11,-1
 459 1288 l 1,0,-1
EndSplineSet
Validated: 1
EndChar

StartChar: backslash
Encoding: 92 92 61
Width: 1300
GlyphClass: 1
Flags: W
LayerCount: 2
Fore
SplineSet
287 1600 m 1,0,-1
 609 1600 l 1,1,-1
 1016 -100 l 1,2,-1
 683 -100 l 1,3,-1
 287 1600 l 1,0,-1
EndSplineSet
Validated: 1
EndChar

StartChar: bracketright
Encoding: 93 93 62
Width: 1300
GlyphClass: 1
Flags: W
LayerCount: 2
Fore
SplineSet
862 -166 m 1,0,-1
 847 -398 l 1,1,-1
 147 -398 l 1,2,-1
 186 -179 l 1,3,-1
 535 -179 l 1,4,-1
 546 -31 l 1,5,-1
 755 1154 l 1,6,-1
 796 1302 l 1,7,-1
 447 1302 l 1,8,-1
 486 1520 l 1,9,-1
 1186 1520 l 1,10,-1
 1119 1288 l 1,11,-1
 862 -166 l 1,0,-1
EndSplineSet
Validated: 1
EndChar

StartChar: asciicircum
Encoding: 94 94 63
Width: 1300
GlyphClass: 1
Flags: W
LayerCount: 2
Fore
SplineSet
1242 866 m 1,0,-1
 942 866 l 1,1,-1
 701 1200 l 1,2,-1
 342 868 l 1,3,-1
 43 868 l 1,4,-1
 638 1500 l 1,5,-1
 850 1520 l 1,6,-1
 1242 866 l 1,0,-1
EndSplineSet
Validated: 1
EndChar

StartChar: underscore
Encoding: 95 95 64
Width: 1300
GlyphClass: 1
Flags: W
LayerCount: 2
Fore
SplineSet
112 -200 m 1,0,-1
 1212 -200 l 1,1,-1
 1167 -455 l 1,2,-1
 67 -455 l 1,3,-1
 112 -200 l 1,0,-1
EndSplineSet
Validated: 1
EndChar

StartChar: grave
Encoding: 96 96 65
Width: 1300
GlyphClass: 1
Flags: W
LayerCount: 2
Fore
SplineSet
1101 1200 m 1,0,-1
 886 1200 l 1,1,-1
 658 1520 l 1,2,-1
 991 1500 l 1,3,-1
 1101 1200 l 1,0,-1
EndSplineSet
Validated: 1
EndChar

StartChar: a
Encoding: 97 97 66
Width: 1300
GlyphClass: 1
Flags: W
LayerCount: 2
Fore
SplineSet
840 885 m 1,0,1
 820 888 820 888 803 890 c 128,-1,2
 786 892 786 892 779 893 c 0,3,4
 704 893 704 893 646.5 862 c 128,-1,5
 589 831 589 831 548 779 c 128,-1,6
 507 727 507 727 482.5 657.5 c 128,-1,7
 458 588 458 588 450 510 c 0,8,9
 444 449 444 449 446.5 394.5 c 128,-1,10
 449 340 449 340 460 298.5 c 128,-1,11
 471 257 471 257 491.5 233 c 128,-1,12
 512 209 512 209 541 209 c 0,13,14
 575 209 575 209 605.5 220.5 c 128,-1,15
 636 232 636 232 662.5 250 c 128,-1,16
 689 268 689 268 709.5 289 c 128,-1,17
 730 310 730 310 745 329 c 1,18,-1
 840 885 l 1,0,1
484 -16 m 0,19,20
 407 -15 407 -15 350 8.5 c 128,-1,21
 293 32 293 32 252.5 72 c 128,-1,22
 212 112 212 112 187.5 165.5 c 128,-1,23
 163 219 163 219 151.5 280.5 c 128,-1,24
 140 342 140 342 139.5 409 c 128,-1,25
 139 476 139 476 148 542 c 0,26,27
 157 614 157 614 181 685 c 128,-1,28
 205 756 205 756 244.5 820 c 128,-1,29
 284 884 284 884 338.5 938.5 c 128,-1,30
 393 993 393 993 463.5 1032.5 c 128,-1,31
 534 1072 534 1072 621.5 1094.5 c 128,-1,32
 709 1117 709 1117 813 1117 c 0,33,34
 874 1116 874 1116 936 1108 c 0,35,36
 990 1101 990 1101 1053 1086 c 128,-1,37
 1116 1071 1116 1071 1174 1043 c 1,38,-1
 1031 209 l 1,39,-1
 1017 0 l 1,40,-1
 695 0 l 1,41,-1
 723 162 l 1,42,-1
 568 -10 l 1,43,44
 557 -12 557 -12 539 -14.5 c 128,-1,45
 521 -17 521 -17 484 -16 c 0,19,20
EndSplineSet
Validated: 33
EndChar

StartChar: b
Encoding: 98 98 67
Width: 1300
GlyphClass: 1
Flags: W
LayerCount: 2
Fore
SplineSet
454 212 m 1,0,1
 483 207 483 207 515 203.5 c 128,-1,2
 547 200 547 200 577 200 c 0,3,4
 640 200 640 200 687 237.5 c 128,-1,5
 734 275 734 275 768 333.5 c 128,-1,6
 802 392 802 392 824 462.5 c 128,-1,7
 846 533 846 533 857 598 c 0,8,9
 872 680 872 680 870.5 737.5 c 128,-1,10
 869 795 869 795 855.5 831 c 128,-1,11
 842 867 842 867 818.5 883.5 c 128,-1,12
 795 900 795 900 767 900 c 0,13,14
 706 900 706 900 656.5 879 c 128,-1,15
 607 858 607 858 563 826 c 1,16,-1
 454 212 l 1,0,1
337 1398 m 1,17,-1
 337 1601 l 1,18,-1
 705 1632 l 1,19,-1
 589 974 l 1,20,-1
 707 1096 l 1,21,22
 738 1104 738 1104 771.5 1110.5 c 128,-1,23
 805 1117 805 1117 833 1117 c 0,24,25
 925 1117 925 1117 999.5 1082.5 c 128,-1,26
 1074 1048 1074 1048 1122.5 981.5 c 128,-1,27
 1171 915 1171 915 1188.5 817 c 128,-1,28
 1206 719 1206 719 1184 593 c 0,29,30
 1160 456 1160 456 1099 343.5 c 128,-1,31
 1038 231 1038 231 951 151 c 128,-1,32
 864 71 864 71 756 27 c 128,-1,33
 648 -17 648 -17 530 -17 c 0,34,35
 466 -17 466 -17 401.5 -10.5 c 128,-1,36
 337 -4 337 -4 279.5 6 c 128,-1,37
 222 16 222 16 175 29 c 128,-1,38
 128 42 128 42 100 54 c 1,39,-1
 337 1398 l 1,17,-1
EndSplineSet
Validated: 33
EndChar

StartChar: c
Encoding: 99 99 68
Width: 1300
GlyphClass: 1
Flags: W
LayerCount: 2
Fore
SplineSet
1007 772 m 1,0,1
 970 833 970 833 916 859 c 128,-1,2
 862 885 862 885 785 885 c 0,3,4
 724 885 724 885 663.5 861.5 c 128,-1,5
 603 838 603 838 552.5 795 c 128,-1,6
 502 752 502 752 465.5 690.5 c 128,-1,7
 429 629 429 629 416 553 c 0,8,9
 404 484 404 484 420.5 425.5 c 128,-1,10
 437 367 437 367 473.5 325 c 128,-1,11
 510 283 510 283 561.5 259.5 c 128,-1,12
 613 236 613 236 671 236 c 0,13,14
 723 236 723 236 767 245.5 c 128,-1,15
 811 255 811 255 848 271.5 c 128,-1,16
 885 288 885 288 914 309 c 128,-1,17
 943 330 943 330 965 353 c 1,18,-1
 1051 137 l 1,19,20
 1030 121 1030 121 990 95 c 128,-1,21
 950 69 950 69 892.5 44 c 128,-1,22
 835 19 835 19 760 1 c 128,-1,23
 685 -17 685 -17 594 -17 c 0,24,25
 461 -17 461 -17 360.5 29 c 128,-1,26
 260 75 260 75 196.5 153.5 c 128,-1,27
 133 232 133 232 109.5 336 c 128,-1,28
 86 440 86 440 106 555 c 0,29,30
 118 624 118 624 142.5 693 c 128,-1,31
 167 762 167 762 206 824.5 c 128,-1,32
 245 887 245 887 300 940.5 c 128,-1,33
 355 994 355 994 427.5 1033 c 128,-1,34
 500 1072 500 1072 592 1094.5 c 128,-1,35
 684 1117 684 1117 797 1117 c 0,36,37
 931 1117 931 1117 1034.5 1079.5 c 128,-1,38
 1138 1042 1138 1042 1201 957 c 1,39,-1
 1007 772 l 1,0,1
EndSplineSet
Validated: 33
EndChar

StartChar: d
Encoding: 100 100 69
Width: 1300
GlyphClass: 1
Flags: W
LayerCount: 2
Fore
SplineSet
796 900 m 1,0,-1
 727 900 l 2,1,2
 661 900 661 900 606.5 869 c 128,-1,3
 552 838 552 838 511 785 c 128,-1,4
 470 732 470 732 442 662 c 128,-1,5
 414 592 414 592 401 515 c 0,6,7
 388 441 388 441 389.5 383 c 128,-1,8
 391 325 391 325 405 284 c 128,-1,9
 419 243 419 243 444.5 221.5 c 128,-1,10
 470 200 470 200 505 200 c 0,11,12
 541 200 541 200 570 210.5 c 128,-1,13
 599 221 599 221 622 237.5 c 128,-1,14
 645 254 645 254 662.5 275 c 128,-1,15
 680 296 680 296 693 316 c 1,16,-1
 796 900 l 1,0,-1
637 0 m 1,17,-1
 666 162 l 1,18,-1
 510 -10 l 1,19,20
 502 -12 502 -12 495 -13 c 128,-1,21
 488 -14 488 -14 478 -15 c 128,-1,22
 468 -16 468 -16 454.5 -16.5 c 128,-1,23
 441 -17 441 -17 420 -17 c 0,24,25
 328 -17 328 -17 255.5 23.5 c 128,-1,26
 183 64 183 64 136.5 137 c 128,-1,27
 90 210 90 210 73.5 309.5 c 128,-1,28
 57 409 57 409 78 528 c 256,29,30
 99 647 99 647 158.5 751.5 c 128,-1,31
 218 856 218 856 307.5 933.5 c 128,-1,32
 397 1011 397 1011 512.5 1055.5 c 128,-1,33
 628 1100 628 1100 761 1100 c 2,34,-1
 831 1100 l 1,35,-1
 925 1632 l 1,36,-1
 1245 1600 l 1,37,-1
 1000 209 l 1,38,-1
 985 0 l 1,39,-1
 637 0 l 1,17,-1
EndSplineSet
Validated: 33
EndChar

StartChar: e
Encoding: 101 101 70
Width: 1300
GlyphClass: 1
Flags: W
LayerCount: 2
Fore
SplineSet
1078 158 m 1,0,1
 1032 121 1032 121 980 89.5 c 128,-1,2
 928 58 928 58 868 34.5 c 128,-1,3
 808 11 808 11 738 -2.5 c 128,-1,4
 668 -16 668 -16 586 -16 c 0,5,6
 442 -16 442 -16 340.5 31 c 128,-1,7
 239 78 239 78 179 156.5 c 128,-1,8
 119 235 119 235 99.5 337 c 128,-1,9
 80 439 80 439 100 550 c 0,10,11
 112 621 112 621 138 690.5 c 128,-1,12
 164 760 164 760 203.5 823 c 128,-1,13
 243 886 243 886 297 939.5 c 128,-1,14
 351 993 351 993 419.5 1032.5 c 128,-1,15
 488 1072 488 1072 571 1094.5 c 128,-1,16
 654 1117 654 1117 752 1117 c 0,17,18
 872 1117 872 1117 960 1081.5 c 128,-1,19
 1048 1046 1048 1046 1101.5 982 c 128,-1,20
 1155 918 1155 918 1173.5 829 c 128,-1,21
 1192 740 1192 740 1173 632 c 0,22,23
 1168 605 1168 605 1157 561 c 128,-1,24
 1146 517 1146 517 1132 466 c 1,25,-1
 395 466 l 1,26,27
 387 412 387 412 393.5 365 c 128,-1,28
 400 318 400 318 428 283.5 c 128,-1,29
 456 249 456 249 508 229.5 c 128,-1,30
 560 210 560 210 644 210 c 0,31,32
 696 210 696 210 736.5 221.5 c 128,-1,33
 777 233 777 233 808 248.5 c 128,-1,34
 839 264 839 264 862 281 c 128,-1,35
 885 298 885 298 901 310 c 1,36,-1
 1078 158 l 1,0,1
886 672 m 1,37,38
 894 718 894 718 888 759 c 128,-1,39
 882 800 882 800 861 831.5 c 128,-1,40
 840 863 840 863 804.5 881.5 c 128,-1,41
 769 900 769 900 718 900 c 256,42,43
 667 900 667 900 629.5 885 c 128,-1,44
 592 870 592 870 564.5 847.5 c 128,-1,45
 537 825 537 825 519 800 c 128,-1,46
 501 775 501 775 490 756 c 1,47,-1
 381 653 l 1,48,-1
 557 671 l 1,49,-1
 886 672 l 1,37,38
EndSplineSet
Validated: 33
EndChar

StartChar: f
Encoding: 102 102 71
Width: 1300
GlyphClass: 1
Flags: W
LayerCount: 2
Fore
SplineSet
487 876 m 1,0,-1
 231 876 l 1,1,-1
 270 1100 l 1,2,-1
 526 1100 l 1,3,-1
 551 1242 l 2,4,5
 570 1339 570 1339 603.5 1412 c 128,-1,6
 637 1485 637 1485 689 1533 c 128,-1,7
 741 1581 741 1581 814 1602 c 128,-1,8
 887 1623 887 1623 985 1617 c 0,9,10
 1037 1614 1037 1614 1082.5 1601.5 c 128,-1,11
 1128 1589 1128 1589 1165 1572.5 c 128,-1,12
 1202 1556 1202 1556 1231.5 1537 c 128,-1,13
 1261 1518 1261 1518 1282 1501 c 1,14,-1
 1118 1341 l 1,15,16
 1089 1361 1089 1361 1055 1374.5 c 128,-1,17
 1021 1388 1021 1388 977 1393 c 0,18,19
 951 1396 951 1396 930 1389.5 c 128,-1,20
 909 1383 909 1383 893.5 1364 c 128,-1,21
 878 1345 878 1345 866.5 1313 c 128,-1,22
 855 1281 855 1281 847 1233 c 2,23,-1
 823 1100 l 1,24,-1
 1120 1100 l 1,25,-1
 1054 876 l 1,26,-1
 798 876 l 1,27,-1
 644 0 l 2,28,29
 624 -112 624 -112 596 -195.5 c 128,-1,30
 568 -279 568 -279 520.5 -333 c 128,-1,31
 473 -387 473 -387 399.5 -411 c 128,-1,32
 326 -435 326 -435 214 -428 c 0,33,34
 177 -426 177 -426 145 -419.5 c 128,-1,35
 113 -413 113 -413 87.5 -405.5 c 128,-1,36
 62 -398 62 -398 44 -390 c 128,-1,37
 26 -382 26 -382 16 -376 c 1,38,-1
 106 -179 l 1,39,-1
 109 -180 l 2,40,41
 128 -188 128 -188 151.5 -196 c 128,-1,42
 175 -204 175 -204 201 -202 c 0,43,44
 229 -199 229 -199 250 -184 c 128,-1,45
 271 -169 271 -169 286 -142.5 c 128,-1,46
 301 -116 301 -116 312 -80 c 128,-1,47
 323 -44 323 -44 333 0 c 2,48,-1
 487 876 l 1,0,-1
EndSplineSet
Validated: 33
EndChar

StartChar: g
Encoding: 103 103 72
Width: 1300
GlyphClass: 1
Flags: W
LayerCount: 2
Fore
SplineSet
727 16 m 1,0,1
 692 2 692 2 642 -7.5 c 128,-1,2
 592 -17 592 -17 534 -17 c 0,3,4
 433 -17 433 -17 347.5 27.5 c 128,-1,5
 262 72 262 72 204 148.5 c 128,-1,6
 146 225 146 225 121.5 327.5 c 128,-1,7
 97 430 97 430 117 545 c 0,8,9
 138 662 138 662 195.5 766 c 128,-1,10
 253 870 253 870 339 948 c 128,-1,11
 425 1026 425 1026 536.5 1071.5 c 128,-1,12
 648 1117 648 1117 777 1117 c 0,13,14
 795 1117 795 1117 807 1116.5 c 128,-1,15
 819 1116 819 1116 829 1114 c 1,16,-1
 892 958 l 1,17,-1
 921 1120 l 1,18,-1
 1243 1100 l 1,19,-1
 1042 -41 l 2,20,21
 1025 -140 1025 -140 972 -226.5 c 128,-1,22
 919 -313 919 -313 837 -377.5 c 128,-1,23
 755 -442 755 -442 649 -479.5 c 128,-1,24
 543 -517 543 -517 419 -517 c 0,25,26
 353 -517 353 -517 301 -506.5 c 128,-1,27
 249 -496 249 -496 205.5 -476 c 128,-1,28
 162 -456 162 -456 126.5 -426.5 c 128,-1,29
 91 -397 91 -397 58 -359 c 1,30,-1
 231 -192 l 1,31,32
 244 -206 244 -206 267.5 -223 c 128,-1,33
 291 -240 291 -240 320 -256 c 128,-1,34
 349 -272 349 -272 382.5 -282.5 c 128,-1,35
 416 -293 416 -293 450 -293 c 0,36,37
 492 -293 492 -293 536 -272.5 c 128,-1,38
 580 -252 580 -252 617.5 -216 c 128,-1,39
 655 -180 655 -180 682.5 -131.5 c 128,-1,40
 710 -83 710 -83 720 -27 c 2,41,-1
 727 16 l 1,0,1
868 820 m 1,42,43
 845 852 845 852 812 876 c 128,-1,44
 779 900 779 900 734 900 c 0,45,46
 674 900 674 900 624.5 864 c 128,-1,47
 575 828 575 828 538 773.5 c 128,-1,48
 501 719 501 719 476.5 655 c 128,-1,49
 452 591 452 591 442 534 c 0,50,51
 430 463 430 463 437.5 402 c 128,-1,52
 445 341 445 341 466 296 c 128,-1,53
 487 251 487 251 519 225.5 c 128,-1,54
 551 200 551 200 588 200 c 0,55,56
 647 200 647 200 691.5 225 c 128,-1,57
 736 250 736 250 774 287 c 1,58,-1
 868 820 l 1,42,43
EndSplineSet
Validated: 33
EndChar

StartChar: h
Encoding: 104 104 73
Width: 1300
GlyphClass: 1
Flags: W
LayerCount: 2
Fore
SplineSet
409 0 m 1,0,-1
 92 0 l 1,1,-1
 329 1339 l 1,2,-1
 329 1568 l 1,3,-1
 692 1600 l 1,4,-1
 586 1000 l 1,5,-1
 680 1100 l 1,6,7
 726 1110 726 1110 778 1113.5 c 128,-1,8
 830 1117 830 1117 894 1117 c 0,9,10
 1071 1117 1071 1117 1146 1014 c 128,-1,11
 1221 911 1221 911 1187 718 c 2,12,-1
 1060 0 l 1,13,-1
 734 0 l 1,14,-1
 858 698 l 2,15,16
 867 750 867 750 861.5 787 c 128,-1,17
 856 824 856 824 841.5 847.5 c 128,-1,18
 827 871 827 871 805.5 881.5 c 128,-1,19
 784 892 784 892 762 892 c 0,20,21
 720 892 720 892 689 884.5 c 128,-1,22
 658 877 658 877 633.5 865 c 128,-1,23
 609 853 609 853 589.5 838 c 128,-1,24
 570 823 570 823 552 808 c 1,25,-1
 409 0 l 1,0,-1
EndSplineSet
Validated: 33
EndChar

StartChar: i
Encoding: 105 105 74
Width: 1300
GlyphClass: 1
Flags: W
LayerCount: 2
Fore
SplineSet
588 1501 m 1,0,-1
 925 1501 l 1,1,-1
 879 1240 l 1,2,-1
 542 1240 l 1,3,-1
 588 1501 l 1,0,-1
570 920 m 1,4,-1
 406 876 l 1,5,-1
 212 876 l 1,6,-1
 212 1100 l 1,7,-1
 854 1100 l 1,8,-1
 729 423 l 2,9,10
 722 384 722 384 727.5 349.5 c 128,-1,11
 733 315 733 315 748.5 290 c 128,-1,12
 764 265 764 265 788 250.5 c 128,-1,13
 812 236 812 236 842 236 c 0,14,15
 875 236 875 236 903.5 241.5 c 128,-1,16
 932 247 932 247 959.5 258 c 128,-1,17
 987 269 987 269 1014.5 287 c 128,-1,18
 1042 305 1042 305 1072 330 c 1,19,-1
 1090 98 l 1,20,21
 1075 87 1075 87 1050 68 c 128,-1,22
 1025 49 1025 49 987.5 30 c 128,-1,23
 950 11 950 11 897.5 -3 c 128,-1,24
 845 -17 845 -17 774 -17 c 0,25,26
 659 -17 659 -17 581.5 19 c 128,-1,27
 504 55 504 55 460.5 116.5 c 128,-1,28
 417 178 417 178 405 259.5 c 128,-1,29
 393 341 393 341 409 432 c 2,30,-1
 473 800 l 1,31,-1
 570 920 l 1,4,-1
EndSplineSet
Validated: 33
EndChar

StartChar: j
Encoding: 106 106 75
Width: 1300
GlyphClass: 1
Flags: W
LayerCount: 2
Fore
SplineSet
855 1501 m 1,0,-1
 1192 1501 l 1,1,-1
 1146 1240 l 1,2,-1
 809 1240 l 1,3,-1
 855 1501 l 1,0,-1
834 920 m 1,4,-1
 670 876 l 1,5,-1
 475 876 l 1,6,-1
 476 1100 l 1,7,-1
 1117 1100 l 1,8,-1
 911 -68 l 2,9,10
 895 -159 895 -159 854 -240.5 c 128,-1,11
 813 -322 813 -322 748 -383.5 c 128,-1,12
 683 -445 683 -445 593 -481 c 128,-1,13
 503 -517 503 -517 388 -517 c 0,14,15
 317 -517 317 -517 269 -503 c 128,-1,16
 221 -489 221 -489 190 -470 c 128,-1,17
 159 -451 159 -451 141.5 -432 c 128,-1,18
 124 -413 124 -413 112 -402 c 1,19,-1
 212 -170 l 1,20,21
 255 -220 255 -220 301 -242 c 128,-1,22
 347 -264 347 -264 413 -264 c 0,23,24
 443 -264 443 -264 470 -250 c 128,-1,25
 497 -236 497 -236 519.5 -211.5 c 128,-1,26
 542 -187 542 -187 558.5 -152.5 c 128,-1,27
 575 -118 575 -118 582 -77 c 2,28,-1
 737 800 l 1,29,-1
 834 920 l 1,4,-1
EndSplineSet
Validated: 1
EndChar

StartChar: k
Encoding: 107 107 76
Width: 1300
GlyphClass: 1
Flags: W
LayerCount: 2
Fore
SplineSet
103 0 m 1,0,-1
 349 1397 l 1,1,-1
 349 1600 l 1,2,-1
 696 1631 l 1,3,-1
 544 769 l 1,4,-1
 868 1100 l 1,5,-1
 1209 1100 l 1,6,-1
 776 700 l 1,7,-1
 559 627 l 1,8,-1
 737 564 l 1,9,-1
 1116 0 l 1,10,-1
 768 0 l 1,11,-1
 489 458 l 1,12,-1
 409 0 l 1,13,-1
 103 0 l 1,0,-1
EndSplineSet
Validated: 1
EndChar

StartChar: l
Encoding: 108 108 77
Width: 1300
GlyphClass: 1
Flags: W
LayerCount: 2
Fore
SplineSet
646 1386 m 1,0,-1
 482 1342 l 1,1,-1
 287 1342 l 1,2,-1
 287 1566 l 1,3,-1
 919 1566 l 1,4,-1
 711 388 l 2,5,6
 702 337 702 337 706.5 302.5 c 128,-1,7
 711 268 711 268 723.5 247 c 128,-1,8
 736 226 736 226 755.5 217 c 128,-1,9
 775 208 775 208 796 208 c 0,10,11
 824 208 824 208 849 216.5 c 128,-1,12
 874 225 874 225 896 238 c 128,-1,13
 918 251 918 251 937.5 267.5 c 128,-1,14
 957 284 957 284 973 300 c 1,15,-1
 1047 107 l 1,16,17
 1035 98 1035 98 1011.5 77.5 c 128,-1,18
 988 57 988 57 950.5 36 c 128,-1,19
 913 15 913 15 860.5 -1 c 128,-1,20
 808 -17 808 -17 738 -17 c 0,21,22
 630 -17 630 -17 558 17 c 128,-1,23
 486 51 486 51 445 109 c 128,-1,24
 404 167 404 167 393.5 245 c 128,-1,25
 383 323 383 323 398 410 c 2,26,-1
 549 1266 l 1,27,-1
 646 1386 l 1,0,-1
EndSplineSet
Validated: 33
EndChar

StartChar: m
Encoding: 109 109 78
Width: 1300
GlyphClass: 1
Flags: W
LayerCount: 2
Fore
SplineSet
286 0 m 1,0,-1
 -28 0 l 1,1,-1
 165 1100 l 1,2,-1
 483 1120 l 1,3,-1
 462 1000 l 1,4,-1
 557 1100 l 2,5,6
 562 1103 562 1103 572 1106 c 128,-1,7
 582 1109 582 1109 594 1111.5 c 128,-1,8
 606 1114 606 1114 618.5 1115.5 c 128,-1,9
 631 1117 631 1117 640 1117 c 0,10,11
 688 1117 688 1117 722 1113.5 c 128,-1,12
 756 1110 756 1110 780.5 1101 c 128,-1,13
 805 1092 805 1092 822 1077 c 128,-1,14
 839 1062 839 1062 854 1039 c 1,15,16
 876 1052 876 1052 904.5 1065.5 c 128,-1,17
 933 1079 933 1079 964.5 1090.5 c 128,-1,18
 996 1102 996 1102 1029 1109.5 c 128,-1,19
 1062 1117 1062 1117 1093 1117 c 0,20,21
 1190 1117 1190 1117 1241.5 1090 c 128,-1,22
 1293 1063 1293 1063 1313 1013.5 c 128,-1,23
 1333 964 1333 964 1328.5 893.5 c 128,-1,24
 1324 823 1324 823 1308 736 c 2,25,-1
 1179 0 l 1,26,-1
 864 0 l 1,27,-1
 992 727 l 2,28,29
 999 768 999 768 1003.5 797.5 c 128,-1,30
 1008 827 1008 827 1007 846.5 c 128,-1,31
 1006 866 1006 866 998 875.5 c 128,-1,32
 990 885 990 885 972 885 c 0,33,34
 955 885 955 885 938.5 878 c 128,-1,35
 922 871 922 871 907 859 c 128,-1,36
 892 847 892 847 881 831.5 c 128,-1,37
 870 816 870 816 864 798 c 0,38,39
 863 791 863 791 861.5 778.5 c 128,-1,40
 860 766 860 766 857.5 753.5 c 128,-1,41
 855 741 855 741 853.5 730 c 128,-1,42
 852 719 852 719 851 715 c 2,43,-1
 725 0 l 1,44,-1
 421 0 l 1,45,-1
 546 708 l 2,46,47
 553 750 553 750 557 783 c 128,-1,48
 561 816 561 816 560 838.5 c 128,-1,49
 559 861 559 861 552 873 c 128,-1,50
 545 885 545 885 529 885 c 0,51,52
 500 885 500 885 472 866 c 128,-1,53
 444 847 444 847 427 804 c 1,54,-1
 286 0 l 1,0,-1
EndSplineSet
Validated: 33
EndChar

StartChar: n
Encoding: 110 110 79
Width: 1300
GlyphClass: 1
Flags: W
LayerCount: 2
Fore
SplineSet
412 0 m 1,0,-1
 95 0 l 1,1,-1
 289 1100 l 1,2,-1
 609 1120 l 1,3,-1
 588 1000 l 1,4,-1
 683 1100 l 1,5,6
 722 1110 722 1110 766.5 1113.5 c 128,-1,7
 811 1117 811 1117 869 1117 c 0,8,9
 960 1117 960 1117 1028 1090 c 128,-1,10
 1096 1063 1096 1063 1138 1013.5 c 128,-1,11
 1180 964 1180 964 1194.5 893.5 c 128,-1,12
 1209 823 1209 823 1193 736 c 2,13,-1
 1064 0 l 1,14,-1
 747 0 l 1,15,-1
 876 736 l 2,16,17
 883 777 883 777 876.5 806.5 c 128,-1,18
 870 836 870 836 853 855 c 128,-1,19
 836 874 836 874 811.5 883 c 128,-1,20
 787 892 787 892 759 892 c 0,21,22
 696 892 696 892 648.5 871.5 c 128,-1,23
 601 851 601 851 554 808 c 1,24,-1
 412 0 l 1,0,-1
EndSplineSet
Validated: 33
EndChar

StartChar: o
Encoding: 111 111 80
Width: 1300
GlyphClass: 1
Flags: W
LayerCount: 2
Fore
SplineSet
556 -17 m 0,0,1
 436 -17 436 -17 343.5 26.5 c 128,-1,2
 251 70 251 70 192.5 146.5 c 128,-1,3
 134 223 134 223 112 327 c 128,-1,4
 90 431 90 431 111 553 c 0,5,6
 132 674 132 674 189.5 777.5 c 128,-1,7
 247 881 247 881 332 956.5 c 128,-1,8
 417 1032 417 1032 525.5 1074.5 c 128,-1,9
 634 1117 634 1117 757 1117 c 0,10,11
 877 1117 877 1117 968.5 1074.5 c 128,-1,12
 1060 1032 1060 1032 1117 956.5 c 128,-1,13
 1174 881 1174 881 1194.5 777.5 c 128,-1,14
 1215 674 1215 674 1194 553 c 0,15,16
 1173 431 1173 431 1117 327 c 128,-1,17
 1061 223 1061 223 977.5 146.5 c 128,-1,18
 894 70 894 70 787 26.5 c 128,-1,19
 680 -17 680 -17 556 -17 c 0,0,1
863 528 m 0,20,21
 875 596 875 596 875 662 c 128,-1,22
 875 728 875 728 858.5 780.5 c 128,-1,23
 842 833 842 833 806.5 865 c 128,-1,24
 771 897 771 897 713 897 c 0,25,26
 657 897 657 897 612 869.5 c 128,-1,27
 567 842 567 842 532.5 796 c 128,-1,28
 498 750 498 750 475 691.5 c 128,-1,29
 452 633 452 633 441 571 c 0,30,31
 429 502 429 502 430 436 c 128,-1,32
 431 370 431 370 449 318.5 c 128,-1,33
 467 267 467 267 503.5 235 c 128,-1,34
 540 203 540 203 599 203 c 0,35,36
 653 203 653 203 697 230.5 c 128,-1,37
 741 258 741 258 774.5 304 c 128,-1,38
 808 350 808 350 830 408 c 128,-1,39
 852 466 852 466 863 528 c 0,20,21
EndSplineSet
Validated: 33
EndChar

StartChar: p
Encoding: 112 112 81
Width: 1300
GlyphClass: 1
Flags: W
LayerCount: 2
Fore
SplineSet
486 200 m 1,0,-1
 564 200 l 2,1,2
 631 200 631 200 695.5 229.5 c 128,-1,3
 760 259 760 259 813.5 310 c 128,-1,4
 867 361 867 361 904.5 429.5 c 128,-1,5
 942 498 942 498 956 576 c 0,6,7
 971 657 971 657 965 718 c 128,-1,8
 959 779 959 779 936.5 819.5 c 128,-1,9
 914 860 914 860 878 880 c 128,-1,10
 842 900 842 900 797 900 c 0,11,12
 770 900 770 900 742 892 c 128,-1,13
 714 884 714 884 687.5 871.5 c 128,-1,14
 661 859 661 859 637 843 c 128,-1,15
 613 827 613 827 594 811 c 1,16,-1
 486 200 l 1,0,-1
37 -500 m 1,17,-1
 319 1100 l 1,18,-1
 648 1120 l 1,19,-1
 617 944 l 1,20,-1
 771 1110 l 1,21,22
 792 1113 792 1113 815 1115 c 128,-1,23
 838 1117 838 1117 862 1117 c 0,24,25
 955 1117 955 1117 1036 1078 c 128,-1,26
 1117 1039 1117 1039 1172.5 966.5 c 128,-1,27
 1228 894 1228 894 1251 792 c 128,-1,28
 1274 690 1274 690 1252 564 c 0,29,30
 1231 441 1231 441 1164 337.5 c 128,-1,31
 1097 234 1097 234 998 159 c 128,-1,32
 899 84 899 84 774 42 c 128,-1,33
 649 0 649 0 512 0 c 2,34,-1
 451 0 l 1,35,-1
 363 -500 l 1,36,-1
 37 -500 l 1,17,-1
EndSplineSet
Validated: 33
EndChar

StartChar: q
Encoding: 113 113 82
Width: 1300
GlyphClass: 1
Flags: W
LayerCount: 2
Fore
SplineSet
861 891 m 1,0,1
 832 895 832 895 804 897.5 c 128,-1,2
 776 900 776 900 738 900 c 0,3,4
 696 900 696 900 658 884 c 128,-1,5
 620 868 620 868 587 841 c 128,-1,6
 554 814 554 814 526 777.5 c 128,-1,7
 498 741 498 741 476 699.5 c 128,-1,8
 454 658 454 658 439 613.5 c 128,-1,9
 424 569 424 569 416 526 c 0,10,11
 401 442 401 442 408.5 381 c 128,-1,12
 416 320 416 320 438 279.5 c 128,-1,13
 460 239 460 239 494.5 219.5 c 128,-1,14
 529 200 529 200 568 200 c 0,15,16
 604 200 604 200 631 205.5 c 128,-1,17
 658 211 658 211 679 221.5 c 128,-1,18
 700 232 700 232 717.5 246 c 128,-1,19
 735 260 735 260 753 278 c 1,20,-1
 861 891 l 1,0,1
728 136 m 1,21,-1
 586 -8 l 1,22,23
 536 -17 536 -17 492 -17 c 0,24,25
 400 -17 400 -17 318 20.5 c 128,-1,26
 236 58 236 58 179 128 c 128,-1,27
 122 198 122 198 97 299 c 128,-1,28
 72 400 72 400 95 526 c 0,29,30
 119 663 119 663 184.5 772.5 c 128,-1,31
 250 882 250 882 342.5 958.5 c 128,-1,32
 435 1035 435 1035 548 1076 c 128,-1,33
 661 1117 661 1117 780 1117 c 0,34,35
 844 1117 844 1117 910.5 1108 c 128,-1,36
 977 1099 977 1099 1036 1086.5 c 128,-1,37
 1095 1074 1095 1074 1142 1060.5 c 128,-1,38
 1189 1047 1189 1047 1213 1038 c 1,39,-1
 942 -500 l 1,40,-1
 616 -500 l 1,41,-1
 728 136 l 1,21,-1
EndSplineSet
Validated: 33
EndChar

StartChar: r
Encoding: 114 114 83
Width: 1300
GlyphClass: 1
Flags: W
LayerCount: 2
Fore
SplineSet
559 1000 m 1,0,-1
 654 1100 l 1,1,2
 710 1115 710 1115 761 1116 c 128,-1,3
 812 1117 812 1117 859 1117 c 0,4,5
 940 1117 940 1117 998.5 1108 c 128,-1,6
 1057 1099 1057 1099 1098 1085.5 c 128,-1,7
 1139 1072 1139 1072 1164.5 1057.5 c 128,-1,8
 1190 1043 1190 1043 1205 1032 c 1,9,-1
 1205 735 l 1,10,-1
 916 700 l 1,11,-1
 898 876 l 1,12,13
 879 879 879 879 859.5 882 c 128,-1,14
 840 885 840 885 820 885 c 0,15,16
 724 885 724 885 648 849.5 c 128,-1,17
 572 814 572 814 515 750 c 1,18,-1
 383 0 l 1,19,-1
 66 0 l 1,20,-1
 260 1100 l 1,21,-1
 580 1120 l 1,22,-1
 559 1000 l 1,0,-1
EndSplineSet
Validated: 1
EndChar

StartChar: s
Encoding: 115 115 84
Width: 1300
GlyphClass: 1
Flags: W
LayerCount: 2
Fore
SplineSet
1089 822 m 1,0,1
 1064 840 1064 840 1031 854 c 128,-1,2
 998 868 998 868 961 877.5 c 128,-1,3
 924 887 924 887 884 892.5 c 128,-1,4
 844 898 844 898 805 898 c 0,5,6
 749 898 749 898 701 894 c 128,-1,7
 653 890 653 890 617.5 879.5 c 128,-1,8
 582 869 582 869 559.5 850.5 c 128,-1,9
 537 832 537 832 532 804 c 0,10,11
 527 778 527 778 551 759.5 c 128,-1,12
 575 741 575 741 613.5 727 c 128,-1,13
 652 713 652 713 699 703 c 128,-1,14
 746 693 746 693 788 684 c 0,15,16
 854 669 854 669 922.5 641 c 128,-1,17
 991 613 991 613 1044.5 570.5 c 128,-1,18
 1098 528 1098 528 1126.5 469.5 c 128,-1,19
 1155 411 1155 411 1142 335 c 0,20,21
 1124 235 1124 235 1067.5 167.5 c 128,-1,22
 1011 100 1011 100 924.5 59 c 128,-1,23
 838 18 838 18 727 0.5 c 128,-1,24
 616 -17 616 -17 490 -17 c 0,25,26
 430 -17 430 -17 372.5 -8.5 c 128,-1,27
 315 0 315 0 263.5 15 c 128,-1,28
 212 30 212 30 169 50.5 c 128,-1,29
 126 71 126 71 96 95 c 1,30,-1
 231 305 l 1,31,32
 292 263 292 263 365.5 235.5 c 128,-1,33
 439 208 439 208 531 208 c 0,34,35
 553 208 553 208 584 210 c 128,-1,36
 615 212 615 212 649 217 c 128,-1,37
 683 222 683 222 717 231.5 c 128,-1,38
 751 241 751 241 779 256 c 128,-1,39
 807 271 807 271 826.5 292.5 c 128,-1,40
 846 314 846 314 851 344 c 0,41,42
 856 371 856 371 835 392 c 128,-1,43
 814 413 814 413 779.5 428.5 c 128,-1,44
 745 444 745 444 702.5 455.5 c 128,-1,45
 660 467 660 467 622 475 c 0,46,47
 540 493 540 493 468 523 c 128,-1,48
 396 553 396 553 344 596.5 c 128,-1,49
 292 640 292 640 267 698 c 128,-1,50
 242 756 242 756 255 832 c 256,51,52
 268 908 268 908 318 962 c 128,-1,53
 368 1016 368 1016 445 1050.5 c 128,-1,54
 522 1085 522 1085 622 1101 c 128,-1,55
 722 1117 722 1117 837 1117 c 0,56,57
 893 1117 893 1117 948 1108.5 c 128,-1,58
 1003 1100 1003 1100 1051.5 1086.5 c 128,-1,59
 1100 1073 1100 1073 1139.5 1056 c 128,-1,60
 1179 1039 1179 1039 1203 1022 c 1,61,-1
 1089 822 l 1,0,1
EndSplineSet
Validated: 33
EndChar

StartChar: t
Encoding: 116 116 85
Width: 1300
GlyphClass: 1
Flags: W
LayerCount: 2
Fore
SplineSet
602 388 m 2,0,1
 593 337 593 337 593 303.5 c 128,-1,2
 593 270 593 270 601.5 250 c 128,-1,3
 610 230 610 230 625.5 222 c 128,-1,4
 641 214 641 214 663 214 c 0,5,6
 717 214 717 214 759 224 c 128,-1,7
 801 234 801 234 834 249 c 128,-1,8
 867 264 867 264 892.5 282 c 128,-1,9
 918 300 918 300 939 316 c 1,10,-1
 1011 135 l 1,11,12
 996 124 996 124 959 99 c 128,-1,13
 922 74 922 74 863.5 48 c 128,-1,14
 805 22 805 22 725 2.5 c 128,-1,15
 645 -17 645 -17 545 -17 c 0,16,17
 437 -17 437 -17 377.5 17 c 128,-1,18
 318 51 318 51 293.5 109 c 128,-1,19
 269 167 269 167 272 245 c 128,-1,20
 275 323 275 323 290 410 c 2,21,-1
 372 876 l 1,22,-1
 130 876 l 1,23,-1
 170 1100 l 1,24,-1
 412 1100 l 1,25,-1
 449 1310 l 1,26,-1
 780 1420 l 1,27,-1
 724 1100 l 1,28,-1
 1183 1100 l 1,29,-1
 1116 876 l 1,30,-1
 688 876 l 1,31,-1
 602 388 l 2,0,1
EndSplineSet
Validated: 33
EndChar

StartChar: u
Encoding: 117 117 86
Width: 1300
GlyphClass: 1
Flags: W
LayerCount: 2
Fore
SplineSet
892 1100 m 1,0,-1
 1213 1120 l 1,1,-1
 1015 0 l 1,2,-1
 698 0 l 1,3,-1
 716 100 l 1,4,-1
 617 0 l 1,5,6
 588 -8 588 -8 557.5 -12.5 c 128,-1,7
 527 -17 527 -17 493 -17 c 0,8,9
 359 -17 359 -17 275.5 21 c 128,-1,10
 192 59 192 59 149 122.5 c 128,-1,11
 106 186 106 186 97.5 268 c 128,-1,12
 89 350 89 350 104 438 c 2,13,-1
 221 1100 l 1,14,-1
 541 1120 l 1,15,-1
 420 438 l 2,16,17
 411 386 411 386 412.5 344.5 c 128,-1,18
 414 303 414 303 429.5 273.5 c 128,-1,19
 445 244 445 244 477 228.5 c 128,-1,20
 509 213 509 213 560 213 c 0,21,22
 593 213 593 213 623 223 c 128,-1,23
 653 233 653 233 677.5 249 c 128,-1,24
 702 265 702 265 721.5 283 c 128,-1,25
 741 301 741 301 754 318 c 1,26,-1
 892 1100 l 1,0,-1
EndSplineSet
Validated: 33
EndChar

StartChar: v
Encoding: 118 118 87
Width: 1300
GlyphClass: 1
Flags: W
LayerCount: 2
Fore
SplineSet
509 700 m 1,0,-1
 512 300 l 1,1,-1
 655 700 l 1,2,-1
 856 1100 l 1,3,-1
 1173 1120 l 1,4,-1
 599 -17 l 1,5,-1
 286 0 l 1,6,-1
 129 1100 l 1,7,-1
 447 1120 l 1,8,-1
 509 700 l 1,0,-1
EndSplineSet
Validated: 1
EndChar

StartChar: w
Encoding: 119 119 88
Width: 1300
GlyphClass: 1
Flags: W
LayerCount: 2
Fore
SplineSet
766 600 m 1,0,-1
 766 300 l 1,1,-1
 776 300 l 1,2,-1
 833 700 l 1,3,-1
 977 1100 l 1,4,-1
 1273 1120 l 1,5,-1
 857 0 l 1,6,-1
 591 0 l 1,7,-1
 562 400 l 1,8,-1
 582 600 l 1,9,-1
 530 400 l 1,10,-1
 364 0 l 1,11,-1
 79 0 l 1,12,-1
 79 1100 l 1,13,-1
 370 1120 l 1,14,-1
 368 700 l 1,15,-1
 285 300 l 1,16,-1
 295 300 l 1,17,-1
 400 600 l 1,18,-1
 517 900 l 1,19,-1
 752 900 l 1,20,-1
 766 600 l 1,0,-1
EndSplineSet
Validated: 1
EndChar

StartChar: x
Encoding: 120 120 89
Width: 1300
GlyphClass: 1
Flags: W
LayerCount: 2
Fore
SplineSet
677 272 m 1,0,-1
 646 474 l 1,1,-1
 553 272 l 1,2,-1
 337 0 l 1,3,-1
 -1 0 l 1,4,-1
 502 585 l 1,5,-1
 237 1100 l 1,6,-1
 582 1120 l 1,7,-1
 684 900 l 1,8,-1
 711 700 l 1,9,-1
 806 900 l 1,10,-1
 971 1100 l 1,11,-1
 1329 1120 l 1,12,-1
 865 581 l 1,13,-1
 1171 0 l 1,14,-1
 810 0 l 1,15,-1
 677 272 l 1,0,-1
EndSplineSet
Validated: 1
EndChar

StartChar: y
Encoding: 121 121 90
Width: 1300
GlyphClass: 1
Flags: W
LayerCount: 2
Fore
SplineSet
592 670 m 1,0,-1
 596 200 l 1,1,-1
 738 670 l 1,2,-1
 977 1100 l 1,3,-1
 1310 1120 l 1,4,-1
 706 8 l 2,5,6
 661 -75 661 -75 613 -161.5 c 128,-1,7
 565 -248 565 -248 506 -319 c 128,-1,8
 447 -390 447 -390 372.5 -435 c 128,-1,9
 298 -480 298 -480 201 -480 c 0,10,11
 134 -480 134 -480 78.5 -452 c 128,-1,12
 23 -424 23 -424 -26 -374 c 1,13,-1
 129 -194 l 1,14,15
 149 -209 149 -209 173 -221.5 c 128,-1,16
 197 -234 197 -234 224 -234 c 0,17,18
 268 -234 268 -234 310.5 -184.5 c 128,-1,19
 353 -135 353 -135 406 -47 c 1,20,-1
 189 1100 l 1,21,-1
 508 1120 l 1,22,-1
 592 670 l 1,0,-1
EndSplineSet
Validated: 1
EndChar

StartChar: z
Encoding: 122 122 91
Width: 1300
GlyphClass: 1
Flags: W
LayerCount: 2
Fore
SplineSet
683 200 m 1,0,-1
 1056 200 l 1,1,-1
 1048 0 l 1,2,-1
 145 0 l 1,3,-1
 127 85 l 1,4,-1
 645 757 l 1,5,-1
 886 925 l 1,6,-1
 630 900 l 1,7,-1
 356 900 l 1,8,-1
 364 1100 l 1,9,-1
 1160 1100 l 1,10,-1
 1178 1017 l 1,11,-1
 663 339 l 1,12,-1
 427 175 l 1,13,-1
 683 200 l 1,0,-1
EndSplineSet
Validated: 1
EndChar

StartChar: braceleft
Encoding: 123 123 92
Width: 1300
GlyphClass: 1
Flags: W
LayerCount: 2
Fore
SplineSet
1078 1260 m 1,0,1
 1048 1280 1048 1280 1006.5 1292.5 c 128,-1,2
 965 1305 965 1305 930 1305 c 0,3,4
 900 1303 900 1303 879.5 1288.5 c 128,-1,5
 859 1274 859 1274 845 1248 c 128,-1,6
 831 1222 831 1222 821.5 1184.5 c 128,-1,7
 812 1147 812 1147 804 1099 c 2,8,-1
 762 864 l 2,9,10
 752 808 752 808 728 759 c 128,-1,11
 704 710 704 710 673 670.5 c 128,-1,12
 642 631 642 631 607.5 600.5 c 128,-1,13
 573 570 573 570 543 550 c 1,14,15
 567 530 567 530 590.5 500 c 128,-1,16
 614 470 614 470 631 430 c 128,-1,17
 648 390 648 390 655 341.5 c 128,-1,18
 662 293 662 293 652 238 c 2,19,-1
 609 -2 l 2,20,21
 601 -50 601 -50 597 -88 c 128,-1,22
 593 -126 593 -126 597.5 -153 c 128,-1,23
 602 -180 602 -180 617.5 -194 c 128,-1,24
 633 -208 633 -208 663 -208 c 0,25,26
 698 -208 698 -208 743.5 -195.5 c 128,-1,27
 789 -183 789 -183 827 -163 c 1,28,-1
 890 -348 l 1,29,30
 855 -363 855 -363 822 -376.5 c 128,-1,31
 789 -390 789 -390 753.5 -399.5 c 128,-1,32
 718 -409 718 -409 676.5 -414.5 c 128,-1,33
 635 -420 635 -420 583 -420 c 0,34,35
 470 -420 470 -420 400.5 -388 c 128,-1,36
 331 -356 331 -356 296.5 -300 c 128,-1,37
 262 -244 262 -244 257 -167.5 c 128,-1,38
 252 -91 252 -91 267 -2 c 2,39,-1
 310 238 l 2,40,41
 326 327 326 327 319.5 379.5 c 128,-1,42
 313 432 313 432 269 442 c 2,43,-1
 134 462 l 1,44,-1
 166 640 l 1,45,-1
 307 660 l 1,46,47
 355 671 355 671 380 723.5 c 128,-1,48
 405 776 405 776 420 864 c 2,49,-1
 462 1099 l 2,50,51
 478 1188 478 1188 509.5 1264.5 c 128,-1,52
 541 1341 541 1341 596 1397 c 128,-1,53
 651 1453 651 1453 731.5 1485 c 128,-1,54
 812 1517 812 1517 925 1517 c 0,55,56
 977 1517 977 1517 1016.5 1511.5 c 128,-1,57
 1056 1506 1056 1506 1088 1496.5 c 128,-1,58
 1120 1487 1120 1487 1148.5 1474 c 128,-1,59
 1177 1461 1177 1461 1207 1445 c 1,60,-1
 1078 1260 l 1,0,1
EndSplineSet
Validated: 33
EndChar

StartChar: bar
Encoding: 124 124 93
Width: 1300
GlyphClass: 1
Flags: W
LayerCount: 2
Fore
SplineSet
983 1520 m 1,0,-1
 648 -380 l 1,1,-1
 316 -380 l 1,2,-1
 647 1500 l 1,3,-1
 983 1520 l 1,0,-1
EndSplineSet
Validated: 1
EndChar

StartChar: braceright
Encoding: 125 125 94
Width: 1300
GlyphClass: 1
Flags: W
LayerCount: 2
Fore
SplineSet
409 1445 m 1,0,1
 444 1461 444 1461 477 1474 c 128,-1,2
 510 1487 510 1487 545.5 1496.5 c 128,-1,3
 581 1506 581 1506 622.5 1511.5 c 128,-1,4
 664 1517 664 1517 716 1517 c 0,5,6
 829 1517 829 1517 898.5 1485 c 128,-1,7
 968 1453 968 1453 1003 1397 c 128,-1,8
 1038 1341 1038 1341 1043 1264.5 c 128,-1,9
 1048 1188 1048 1188 1032 1099 c 2,10,-1
 990 864 l 2,11,12
 975 776 975 776 981 723.5 c 128,-1,13
 987 671 987 671 1031 660 c 1,14,-1
 1166 640 l 1,15,-1
 1134 462 l 1,16,-1
 993 442 l 2,17,18
 945 432 945 432 920.5 379.5 c 128,-1,19
 896 327 896 327 880 238 c 2,20,-1
 837 -2 l 2,21,22
 822 -91 822 -91 790 -167.5 c 128,-1,23
 758 -244 758 -244 703.5 -300 c 128,-1,24
 649 -356 649 -356 568.5 -388 c 128,-1,25
 488 -420 488 -420 375 -420 c 0,26,27
 323 -420 323 -420 283.5 -414.5 c 128,-1,28
 244 -409 244 -409 211.5 -399.5 c 128,-1,29
 179 -390 179 -390 150.5 -376.5 c 128,-1,30
 122 -363 122 -363 92 -348 c 1,31,-1
 221 -163 l 1,32,33
 251 -183 251 -183 292.5 -195.5 c 128,-1,34
 334 -208 334 -208 369 -208 c 0,35,36
 399 -208 399 -208 419.5 -194 c 128,-1,37
 440 -180 440 -180 454 -153 c 128,-1,38
 468 -126 468 -126 477.5 -88 c 128,-1,39
 487 -50 487 -50 495 -2 c 2,40,-1
 538 238 l 2,41,42
 548 293 548 293 572 341.5 c 128,-1,43
 596 390 596 390 626.5 430 c 128,-1,44
 657 470 657 470 691.5 500 c 128,-1,45
 726 530 726 530 757 550 c 1,46,47
 734 570 734 570 710.5 600.5 c 128,-1,48
 687 631 687 631 669.5 670.5 c 128,-1,49
 652 710 652 710 645 759 c 128,-1,50
 638 808 638 808 648 864 c 2,51,-1
 690 1099 l 2,52,53
 698 1147 698 1147 702 1184.5 c 128,-1,54
 706 1222 706 1222 701 1248 c 128,-1,55
 696 1274 696 1274 681 1288.5 c 128,-1,56
 666 1303 666 1303 636 1305 c 0,57,58
 601 1305 601 1305 555.5 1292.5 c 128,-1,59
 510 1280 510 1280 472 1260 c 1,60,-1
 409 1445 l 1,0,1
EndSplineSet
Validated: 33
EndChar

StartChar: asciitilde
Encoding: 126 126 95
Width: 1300
GlyphClass: 1
Flags: W
LayerCount: 2
Fore
SplineSet
0 441 m 1,0,1
 18 508 18 508 56.5 578 c 128,-1,2
 95 648 95 648 155 705 c 128,-1,3
 215 762 215 762 296.5 798.5 c 128,-1,4
 378 835 378 835 482 835 c 0,5,6
 536 835 536 835 574.5 825 c 128,-1,7
 613 815 613 815 641.5 800.5 c 128,-1,8
 670 786 670 786 692 769 c 128,-1,9
 714 752 714 752 736 737.5 c 128,-1,10
 758 723 758 723 782.5 713 c 128,-1,11
 807 703 807 703 841 703 c 0,12,13
 910 703 910 703 959.5 741 c 128,-1,14
 1009 779 1009 779 1029 838 c 1,15,-1
 1298 802 l 1,16,17
 1280 729 1280 729 1245 657 c 128,-1,18
 1210 585 1210 585 1153 528 c 128,-1,19
 1096 471 1096 471 1014.5 435.5 c 128,-1,20
 933 400 933 400 823 400 c 0,21,22
 773 400 773 400 737.5 410 c 128,-1,23
 702 420 702 420 675 434.5 c 128,-1,24
 648 449 648 449 626.5 466 c 128,-1,25
 605 483 605 483 582 497.5 c 128,-1,26
 559 512 559 512 531.5 522 c 128,-1,27
 504 532 504 532 465 532 c 0,28,29
 436 532 436 532 409.5 522 c 128,-1,30
 383 512 383 512 361 495.5 c 128,-1,31
 339 479 339 479 321.5 457 c 128,-1,32
 304 435 304 435 294 410 c 1,33,-1
 0 441 l 1,0,1
EndSplineSet
Validated: 1
EndChar

StartChar: exclamdown
Encoding: 161 161 97
Width: 1300
GlyphClass: 1
Flags: W
LayerCount: 2
Fore
SplineSet
227 -400 m 1,0,-1
 413 656 l 1,1,-1
 719 691 l 1,2,-1
 527 -400 l 1,3,-1
 227 -400 l 1,0,-1
779 951 m 0,4,5
 773 917 773 917 755.5 887.5 c 128,-1,6
 738 858 738 858 711.5 835.5 c 128,-1,7
 685 813 685 813 653 800 c 128,-1,8
 621 787 621 787 587 787 c 256,9,10
 553 787 553 787 526 800 c 128,-1,11
 499 813 499 813 480.5 835.5 c 128,-1,12
 462 858 462 858 454.5 887.5 c 128,-1,13
 447 917 447 917 453 951 c 0,14,15
 459 984 459 984 477 1014.5 c 128,-1,16
 495 1045 495 1045 520.5 1067.5 c 128,-1,17
 546 1090 546 1090 578 1103.5 c 128,-1,18
 610 1117 610 1117 644 1117 c 0,19,20
 677 1117 677 1117 705 1103.5 c 128,-1,21
 733 1090 733 1090 752 1067.5 c 128,-1,22
 771 1045 771 1045 778 1014.5 c 128,-1,23
 785 984 785 984 779 951 c 0,4,5
EndSplineSet
Validated: 33
EndChar

StartChar: cent
Encoding: 162 162 98
Width: 1300
GlyphClass: 1
Flags: W
LayerCount: 2
Fore
SplineSet
981 814 m 1,0,1
 961 837 961 837 941.5 852 c 128,-1,2
 922 867 922 867 904 877 c 1,3,-1
 788 223 l 1,4,5
 823 236 823 236 857 252.5 c 128,-1,6
 891 269 891 269 922 288 c 1,7,-1
 1000 93 l 1,8,9
 942 58 942 58 879.5 32.5 c 128,-1,10
 817 7 817 7 748 -5 c 1,11,-1
 716 -190 l 1,12,-1
 426 -190 l 1,13,-1
 460 6 l 1,14,15
 372 34 372 34 312 90.5 c 128,-1,16
 252 147 252 147 218.5 222.5 c 128,-1,17
 185 298 185 298 177.5 388.5 c 128,-1,18
 170 479 170 479 187 575 c 0,19,20
 202 662 202 662 239 744.5 c 128,-1,21
 276 827 276 827 334.5 896.5 c 128,-1,22
 393 966 393 966 472.5 1017.5 c 128,-1,23
 552 1069 552 1069 652 1095 c 1,24,-1
 689 1302 l 1,25,-1
 985 1340 l 1,26,-1
 944 1105 l 1,27,28
 1008 1090 1008 1090 1060.5 1055.5 c 128,-1,29
 1113 1021 1113 1021 1158 961 c 1,30,-1
 981 814 l 1,0,1
468 563 m 0,31,32
 446 436 446 436 467 353.5 c 128,-1,33
 488 271 488 271 548 232 c 1,34,-1
 661 873 l 1,35,36
 590 840 590 840 540.5 765 c 128,-1,37
 491 690 491 690 468 563 c 0,31,32
EndSplineSet
Validated: 33
EndChar

StartChar: sterling
Encoding: 163 163 99
Width: 1300
GlyphClass: 1
Flags: W
LayerCount: 2
Fore
SplineSet
683 216 m 1,0,-1
 1004 216 l 1,1,-1
 966 0 l 1,2,-1
 17 0 l 1,3,-1
 84 216 l 1,4,-1
 217 216 l 2,5,6
 219 218 219 218 223 224.5 c 128,-1,7
 227 231 227 231 236 249 c 0,8,9
 249 277 249 277 287.5 378 c 128,-1,10
 326 479 326 479 386 665 c 1,11,-1
 258 665 l 1,12,-1
 296 883 l 1,13,-1
 455 883 l 1,14,-1
 541 1150 l 2,15,16
 566 1229 566 1229 603 1296.5 c 128,-1,17
 640 1364 640 1364 693 1413 c 128,-1,18
 746 1462 746 1462 816.5 1489.5 c 128,-1,19
 887 1517 887 1517 980 1517 c 0,20,21
 1034 1517 1034 1517 1075.5 1510.5 c 128,-1,22
 1117 1504 1117 1504 1151.5 1489.5 c 128,-1,23
 1186 1475 1186 1475 1216.5 1451.5 c 128,-1,24
 1247 1428 1247 1428 1279 1395 c 1,25,-1
 1119 1228 l 1,26,27
 1077 1273 1077 1273 1047 1288 c 128,-1,28
 1017 1303 1017 1303 987 1303 c 0,29,30
 964 1303 964 1303 945 1289.5 c 128,-1,31
 926 1276 926 1276 910.5 1251.5 c 128,-1,32
 895 1227 895 1227 881 1192.5 c 128,-1,33
 867 1158 867 1158 854 1116 c 2,34,-1
 779 883 l 1,35,-1
 974 883 l 1,36,-1
 909 665 l 1,37,-1
 711 665 l 1,38,39
 692 601 692 601 678 556 c 128,-1,40
 664 511 664 511 652 474.5 c 128,-1,41
 640 438 640 438 627 404.5 c 128,-1,42
 614 371 614 371 597 331 c 1,43,-1
 424 157 l 1,44,-1
 683 216 l 1,0,-1
EndSplineSet
Validated: 1
EndChar

StartChar: yen
Encoding: 165 165 100
Width: 1300
GlyphClass: 1
Flags: W
LayerCount: 2
Fore
SplineSet
39 589 m 1,0,-1
 348 589 l 1,1,-1
 359 650 l 1,2,-1
 341 700 l 1,3,-1
 58 700 l 1,4,-1
 92 889 l 1,5,-1
 279 889 l 1,6,-1
 78 1500 l 1,7,-1
 423 1520 l 1,8,-1
 548 1143 l 1,9,-1
 589 773 l 1,10,-1
 713 1143 l 1,11,-1
 958 1500 l 1,12,-1
 1293 1500 l 1,13,-1
 874 889 l 1,14,-1
 1092 889 l 1,15,-1
 1058 700 l 1,16,-1
 743 700 l 1,17,-1
 710 650 l 1,18,-1
 699 589 l 1,19,-1
 1039 589 l 1,20,-1
 1006 400 l 1,21,-1
 666 400 l 1,22,-1
 595 0 l 1,23,-1
 244 0 l 1,24,-1
 315 400 l 1,25,-1
 6 400 l 1,26,-1
 39 589 l 1,0,-1
EndSplineSet
Validated: 1
EndChar

StartChar: section
Encoding: 167 167 101
Width: 1300
GlyphClass: 1
Flags: W
LayerCount: 2
Fore
SplineSet
1059 1249 m 1,0,1
 1021 1272 1021 1272 990 1285.5 c 128,-1,2
 959 1299 959 1299 933 1306.5 c 128,-1,3
 907 1314 907 1314 884 1316 c 128,-1,4
 861 1318 861 1318 840 1318 c 0,5,6
 809 1318 809 1318 779.5 1310.5 c 128,-1,7
 750 1303 750 1303 726 1286 c 128,-1,8
 702 1269 702 1269 684.5 1241.5 c 128,-1,9
 667 1214 667 1214 660 1174 c 0,10,11
 653 1135 653 1135 663 1105 c 128,-1,12
 673 1075 673 1075 694.5 1050 c 128,-1,13
 716 1025 716 1025 745.5 1002.5 c 128,-1,14
 775 980 775 980 807 958 c 0,15,16
 860 921 860 921 913 880 c 128,-1,17
 966 839 966 839 1005.5 788 c 128,-1,18
 1045 737 1045 737 1064.5 673.5 c 128,-1,19
 1084 610 1084 610 1069 527 c 0,20,21
 1060 479 1060 479 1037.5 433.5 c 128,-1,22
 1015 388 1015 388 982.5 350 c 128,-1,23
 950 312 950 312 909.5 282 c 128,-1,24
 869 252 869 252 825 234 c 1,25,26
 857 205 857 205 883 173 c 128,-1,27
 909 141 909 141 926 106 c 128,-1,28
 943 71 943 71 949.5 33 c 128,-1,29
 956 -5 956 -5 949 -46 c 0,30,31
 934 -128 934 -128 892 -193.5 c 128,-1,32
 850 -259 850 -259 783 -305 c 128,-1,33
 716 -351 716 -351 627.5 -375.5 c 128,-1,34
 539 -400 539 -400 431 -400 c 0,35,36
 384 -400 384 -400 341 -395 c 128,-1,37
 298 -390 298 -390 257 -378 c 128,-1,38
 216 -366 216 -366 176 -347 c 128,-1,39
 136 -328 136 -328 95 -299 c 1,40,-1
 231 -129 l 1,41,42
 269 -152 269 -152 300 -166 c 128,-1,43
 331 -180 331 -180 357.5 -187.5 c 128,-1,44
 384 -195 384 -195 406.5 -197.5 c 128,-1,45
 429 -200 429 -200 450 -200 c 0,46,47
 481 -200 481 -200 510.5 -192 c 128,-1,48
 540 -184 540 -184 564 -166.5 c 128,-1,49
 588 -149 588 -149 605 -121 c 128,-1,50
 622 -93 622 -93 629 -54 c 256,51,52
 636 -15 636 -15 626.5 15 c 128,-1,53
 617 45 617 45 596 70.5 c 128,-1,54
 575 96 575 96 545.5 118 c 128,-1,55
 516 140 516 140 484 163 c 0,56,57
 431 200 431 200 378 240.5 c 128,-1,58
 325 281 325 281 285.5 332 c 128,-1,59
 246 383 246 383 226.5 446.5 c 128,-1,60
 207 510 207 510 222 593 c 0,61,62
 231 645 231 645 253.5 689 c 128,-1,63
 276 733 276 733 308 769 c 128,-1,64
 340 805 340 805 380 833.5 c 128,-1,65
 420 862 420 862 464 885 c 1,66,67
 432 915 432 915 406.5 947 c 128,-1,68
 381 979 381 979 364 1014 c 128,-1,69
 347 1049 347 1049 340.5 1087 c 128,-1,70
 334 1125 334 1125 342 1166 c 0,71,72
 356 1248 356 1248 398 1313 c 128,-1,73
 440 1378 440 1378 506.5 1423.5 c 128,-1,74
 573 1469 573 1469 662 1493 c 128,-1,75
 751 1517 751 1517 859 1517 c 0,76,77
 951 1517 951 1517 1032 1496.5 c 128,-1,78
 1113 1476 1113 1476 1194 1419 c 1,79,-1
 1059 1249 l 1,0,1
631 747 m 1,80,-1
 617 737 l 2,81,82
 605 728 605 728 590.5 714.5 c 128,-1,83
 576 701 576 701 563 683.5 c 128,-1,84
 550 666 550 666 539.5 644 c 128,-1,85
 529 622 529 622 525 595 c 0,86,87
 519 561 519 561 527 532 c 128,-1,88
 535 503 535 503 552.5 477.5 c 128,-1,89
 570 452 570 452 593 429.5 c 128,-1,90
 616 407 616 407 640 387 c 2,91,-1
 660 372 l 1,92,-1
 674 383 l 2,93,94
 699 401 699 401 727.5 436.5 c 128,-1,95
 756 472 756 472 766 525 c 0,96,97
 772 558 772 558 763.5 587 c 128,-1,98
 755 616 755 616 738 641.5 c 128,-1,99
 721 667 721 667 698 689 c 128,-1,100
 675 711 675 711 651 731 c 2,101,-1
 631 747 l 1,80,-1
EndSplineSet
Validated: 33
EndChar

StartChar: dieresis
Encoding: 168 168 102
Width: 1300
GlyphClass: 1
Flags: W
LayerCount: 2
Fore
SplineSet
485 1566 m 1,0,-1
 761 1566 l 1,1,-1
 714 1300 l 1,2,-1
 438 1300 l 1,3,-1
 485 1566 l 1,0,-1
885 1566 m 1,4,-1
 1161 1566 l 1,5,-1
 1114 1300 l 1,6,-1
 838 1300 l 1,7,-1
 885 1566 l 1,4,-1
EndSplineSet
Validated: 1
EndChar

StartChar: copyright
Encoding: 169 169 103
Width: 1300
GlyphClass: 1
Flags: W
LayerCount: 2
Fore
SplineSet
732 1517 m 256,0,1
 829 1517 829 1517 908 1480 c 128,-1,2
 987 1443 987 1443 1040 1379 c 128,-1,3
 1093 1315 1093 1315 1115 1229.5 c 128,-1,4
 1137 1144 1137 1144 1120 1047 c 0,5,6
 1103 949 1103 949 1050.5 863.5 c 128,-1,7
 998 778 998 778 923 714.5 c 128,-1,8
 848 651 848 651 756 614 c 128,-1,9
 664 577 664 577 567 577 c 256,10,11
 470 577 470 577 391 614 c 128,-1,12
 312 651 312 651 259.5 714.5 c 128,-1,13
 207 778 207 778 185 863.5 c 128,-1,14
 163 949 163 949 180 1047 c 0,15,16
 197 1144 197 1144 249 1229.5 c 128,-1,17
 301 1315 301 1315 376 1379 c 128,-1,18
 451 1443 451 1443 543 1480 c 128,-1,19
 635 1517 635 1517 732 1517 c 256,0,1
588 701 m 0,20,21
 658 701 658 701 725.5 728.5 c 128,-1,22
 793 756 793 756 849 803 c 128,-1,23
 905 850 905 850 944 913 c 128,-1,24
 983 976 983 976 996 1047 c 0,25,26
 1008 1119 1008 1119 992 1182 c 128,-1,27
 976 1245 976 1245 937.5 1292 c 128,-1,28
 899 1339 899 1339 841 1366 c 128,-1,29
 783 1393 783 1393 711 1393 c 256,30,31
 639 1393 639 1393 571.5 1366 c 128,-1,32
 504 1339 504 1339 448.5 1292 c 128,-1,33
 393 1245 393 1245 354.5 1182 c 128,-1,34
 316 1119 316 1119 304 1047 c 0,35,36
 292 977 292 977 308 914.5 c 128,-1,37
 324 852 324 852 362.5 804.5 c 128,-1,38
 401 757 401 757 459 729 c 128,-1,39
 517 701 517 701 588 701 c 0,20,21
805 1165 m 1,40,41
 779 1191 779 1191 755.5 1197.5 c 128,-1,42
 732 1204 732 1204 708 1204 c 0,43,44
 679 1204 679 1204 656 1191.5 c 128,-1,45
 633 1179 633 1179 616.5 1158 c 128,-1,46
 600 1137 600 1137 589.5 1109.5 c 128,-1,47
 579 1082 579 1082 574 1052 c 0,48,49
 569 1021 569 1021 569 991.5 c 128,-1,50
 569 962 569 962 578 939.5 c 128,-1,51
 587 917 587 917 606.5 903 c 128,-1,52
 626 889 626 889 658 889 c 0,53,54
 684 889 684 889 718 900.5 c 128,-1,55
 752 912 752 912 781 929 c 1,56,-1
 821 841 l 1,57,58
 780 818 780 818 733.5 804.5 c 128,-1,59
 687 791 687 791 633 791 c 0,60,61
 566 791 566 791 519.5 813.5 c 128,-1,62
 473 836 473 836 445.5 873 c 128,-1,63
 418 910 418 910 409.5 958 c 128,-1,64
 401 1006 401 1006 410 1058 c 0,65,66
 418 1105 418 1105 442 1149 c 128,-1,67
 466 1193 466 1193 506 1227 c 128,-1,68
 546 1261 546 1261 601 1281.5 c 128,-1,69
 656 1302 656 1302 726 1302 c 0,70,71
 780 1302 780 1302 820 1285.5 c 128,-1,72
 860 1269 860 1269 892 1231 c 1,73,-1
 805 1165 l 1,40,41
EndSplineSet
Validated: 33
EndChar

StartChar: ordfeminine
Encoding: 170 170 104
Width: 1300
GlyphClass: 1
Flags: W
LayerCount: 2
Fore
SplineSet
387 951 m 0,0,1
 348 951 348 951 319.5 963 c 128,-1,2
 291 975 291 975 271 995 c 128,-1,3
 251 1015 251 1015 238.5 1041.5 c 128,-1,4
 226 1068 226 1068 220.5 1099 c 128,-1,5
 215 1130 215 1130 214.5 1163.5 c 128,-1,6
 214 1197 214 1197 219 1230 c 0,7,8
 223 1266 223 1266 235 1301.5 c 128,-1,9
 247 1337 247 1337 267 1369 c 128,-1,10
 287 1401 287 1401 314 1428 c 128,-1,11
 341 1455 341 1455 376.5 1475 c 128,-1,12
 412 1495 412 1495 455.5 1506 c 128,-1,13
 499 1517 499 1517 551 1517 c 0,14,15
 582 1517 582 1517 613 1513 c 0,16,17
 640 1509 640 1509 671.5 1501.5 c 128,-1,18
 703 1494 703 1494 732 1480 c 1,19,-1
 660 1063 l 1,20,-1
 653 959 l 1,21,-1
 492 959 l 1,22,-1
 506 1040 l 1,23,-1
 429 954 l 1,24,-1
 414 951 l 2,25,26
 405 950 405 950 387 951 c 0,0,1
189 810 m 1,27,-1
 631 810 l 1,28,-1
 610 690 l 1,29,-1
 168 690 l 1,30,-1
 189 810 l 1,27,-1
565 1401 m 1,31,32
 555 1403 555 1403 546.5 1404 c 128,-1,33
 538 1405 538 1405 534 1405 c 0,34,35
 497 1405 497 1405 468 1389.5 c 128,-1,36
 439 1374 439 1374 418.5 1348 c 128,-1,37
 398 1322 398 1322 386 1287.5 c 128,-1,38
 374 1253 374 1253 370 1214 c 0,39,40
 367 1183 367 1183 368 1156 c 128,-1,41
 369 1129 369 1129 374.5 1108 c 128,-1,42
 380 1087 380 1087 390.5 1075 c 128,-1,43
 401 1063 401 1063 415 1063 c 0,44,45
 432 1063 432 1063 447.5 1069 c 128,-1,46
 463 1075 463 1075 476 1084 c 128,-1,47
 489 1093 489 1093 499.5 1103.5 c 128,-1,48
 510 1114 510 1114 517 1123 c 1,49,-1
 565 1401 l 1,31,32
EndSplineSet
Validated: 33
EndChar

StartChar: guillemotleft
Encoding: 171 171 105
Width: 1300
GlyphClass: 1
Flags: W
LayerCount: 2
Fore
SplineSet
710 1106 m 1,0,-1
 759 880 l 1,1,-1
 376 583 l 1,2,-1
 294 550 l 1,3,-1
 363 517 l 1,4,-1
 646 224 l 1,5,-1
 510 -13 l 1,6,-1
 41 476 l 1,7,-1
 66 620 l 1,8,-1
 710 1106 l 1,0,-1
1210 1106 m 1,9,-1
 1259 880 l 1,10,-1
 876 583 l 1,11,-1
 794 550 l 1,12,-1
 863 517 l 1,13,-1
 1146 224 l 1,14,-1
 1010 -13 l 1,15,-1
 541 476 l 1,16,-1
 566 620 l 1,17,-1
 1210 1106 l 1,9,-1
EndSplineSet
Validated: 1
EndChar

StartChar: logicalnot
Encoding: 172 172 106
Width: 1300
GlyphClass: 1
Flags: W
LayerCount: 2
Fore
SplineSet
1271 827 m 1,0,-1
 1209 586 l 1,1,-1
 1151 258 l 1,2,-1
 809 258 l 1,3,-1
 845 459 l 1,4,-1
 882 600 l 1,5,-1
 32 600 l 1,6,-1
 72 827 l 1,7,-1
 1271 827 l 1,0,-1
EndSplineSet
Validated: 1
EndChar

StartChar: registered
Encoding: 174 174 107
Width: 1300
GlyphClass: 1
Flags: W
LayerCount: 2
Fore
SplineSet
732 1517 m 256,0,1
 829 1517 829 1517 908 1480 c 128,-1,2
 987 1443 987 1443 1040 1379 c 128,-1,3
 1093 1315 1093 1315 1115 1229.5 c 128,-1,4
 1137 1144 1137 1144 1120 1047 c 0,5,6
 1103 949 1103 949 1050.5 863.5 c 128,-1,7
 998 778 998 778 923 714.5 c 128,-1,8
 848 651 848 651 756 614 c 128,-1,9
 664 577 664 577 567 577 c 256,10,11
 470 577 470 577 391 614 c 128,-1,12
 312 651 312 651 259.5 714.5 c 128,-1,13
 207 778 207 778 185 863.5 c 128,-1,14
 163 949 163 949 180 1047 c 0,15,16
 197 1144 197 1144 249 1229.5 c 128,-1,17
 301 1315 301 1315 376 1379 c 128,-1,18
 451 1443 451 1443 543 1480 c 128,-1,19
 635 1517 635 1517 732 1517 c 256,0,1
588 701 m 0,20,21
 658 701 658 701 725.5 728.5 c 128,-1,22
 793 756 793 756 849 803 c 128,-1,23
 905 850 905 850 944 913 c 128,-1,24
 983 976 983 976 996 1047 c 0,25,26
 1008 1119 1008 1119 992 1182 c 128,-1,27
 976 1245 976 1245 937.5 1292 c 128,-1,28
 899 1339 899 1339 841 1366 c 128,-1,29
 783 1393 783 1393 711 1393 c 256,30,31
 639 1393 639 1393 571.5 1366 c 128,-1,32
 504 1339 504 1339 448.5 1292 c 128,-1,33
 393 1245 393 1245 354.5 1182 c 128,-1,34
 316 1119 316 1119 304 1047 c 0,35,36
 292 977 292 977 308 914.5 c 128,-1,37
 324 852 324 852 362.5 804.5 c 128,-1,38
 401 757 401 757 459 729 c 128,-1,39
 517 701 517 701 588 701 c 0,20,21
629 1174 m 1,40,-1
 610 1065 l 1,41,-1
 630 1065 l 2,42,43
 673 1065 673 1065 698 1091.5 c 128,-1,44
 723 1118 723 1118 729 1153 c 0,45,46
 733 1176 733 1176 728.5 1191.5 c 128,-1,47
 724 1207 724 1207 713.5 1216 c 128,-1,48
 703 1225 703 1225 689 1228.5 c 128,-1,49
 675 1232 675 1232 660 1232 c 0,50,51
 648 1232 648 1232 643.5 1232 c 128,-1,52
 639 1232 639 1232 633 1231 c 1,53,-1
 629 1174 l 1,40,-1
611 987 m 2,54,55
 608 991 608 991 603.5 992 c 128,-1,56
 599 993 599 993 597 993 c 2,57,-1
 563 800 l 1,58,-1
 450 800 l 1,59,-1
 524 1218 l 1,60,-1
 525 1291 l 1,61,62
 539 1292 539 1292 557.5 1294 c 128,-1,63
 576 1296 576 1296 595.5 1297 c 128,-1,64
 615 1298 615 1298 633 1299 c 128,-1,65
 651 1300 651 1300 665 1300 c 0,66,67
 753 1300 753 1300 800.5 1264 c 128,-1,68
 848 1228 848 1228 836 1158 c 0,69,70
 830 1122 830 1122 814.5 1096.5 c 128,-1,71
 799 1071 799 1071 777.5 1053 c 128,-1,72
 756 1035 756 1035 730 1023 c 128,-1,73
 704 1011 704 1011 677 1004 c 1,74,-1
 720 993 l 1,75,-1
 825 800 l 1,76,-1
 708 800 l 1,77,-1
 611 987 l 2,54,55
EndSplineSet
Validated: 33
EndChar

StartChar: macron
Encoding: 175 175 108
Width: 1300
GlyphClass: 1
Flags: W
LayerCount: 2
Fore
SplineSet
319 1500 m 1,0,-1
 1019 1500 l 1,1,-1
 980 1282 l 1,2,-1
 280 1282 l 1,3,-1
 319 1500 l 1,0,-1
EndSplineSet
Validated: 1
EndChar

StartChar: degree
Encoding: 176 176 109
Width: 1300
GlyphClass: 1
Flags: W
LayerCount: 2
Fore
SplineSet
547 1517 m 0,0,1
 608 1517 608 1517 658.5 1496 c 128,-1,2
 709 1475 709 1475 742.5 1438 c 128,-1,3
 776 1401 776 1401 791 1352 c 128,-1,4
 806 1303 806 1303 796 1247 c 256,5,6
 786 1191 786 1191 754 1142 c 128,-1,7
 722 1093 722 1093 675.5 1056.5 c 128,-1,8
 629 1020 629 1020 571 998.5 c 128,-1,9
 513 977 513 977 452 977 c 0,10,11
 390 977 390 977 340 998.5 c 128,-1,12
 290 1020 290 1020 256.5 1056.5 c 128,-1,13
 223 1093 223 1093 208.5 1142 c 128,-1,14
 194 1191 194 1191 204 1247 c 256,15,16
 214 1303 214 1303 245.5 1352 c 128,-1,17
 277 1401 277 1401 323.5 1438 c 128,-1,18
 370 1475 370 1475 427.5 1496 c 128,-1,19
 485 1517 485 1517 547 1517 c 0,0,1
482 1145 m 256,20,21
 505 1145 505 1145 527 1153 c 128,-1,22
 549 1161 549 1161 566.5 1175 c 128,-1,23
 584 1189 584 1189 596 1207.5 c 128,-1,24
 608 1226 608 1226 612 1247 c 0,25,26
 615 1268 615 1268 609.5 1286.5 c 128,-1,27
 604 1305 604 1305 591 1319 c 128,-1,28
 578 1333 578 1333 559 1341 c 128,-1,29
 540 1349 540 1349 517 1349 c 256,30,31
 494 1349 494 1349 472 1341 c 128,-1,32
 450 1333 450 1333 432.5 1319 c 128,-1,33
 415 1305 415 1305 403 1286.5 c 128,-1,34
 391 1268 391 1268 388 1247 c 0,35,36
 384 1226 384 1226 389.5 1207.5 c 128,-1,37
 395 1189 395 1189 408 1175 c 128,-1,38
 421 1161 421 1161 440 1153 c 128,-1,39
 459 1145 459 1145 482 1145 c 256,20,21
EndSplineSet
Validated: 33
EndChar

StartChar: plusminus
Encoding: 177 177 110
Width: 1300
GlyphClass: 1
Flags: W
LayerCount: 2
Fore
SplineSet
239 862 m 1,0,-1
 599 862 l 1,1,-1
 672 1196 l 1,2,-1
 892 1196 l 1,3,-1
 819 862 l 1,4,-1
 1179 862 l 1,5,-1
 1143 702 l 1,6,-1
 783 702 l 1,7,-1
 713 382 l 1,8,-1
 493 382 l 1,9,-1
 563 702 l 1,10,-1
 203 702 l 1,11,-1
 239 862 l 1,0,-1
159 290 m 1,12,-1
 1059 290 l 1,13,-1
 1020 88 l 1,14,-1
 120 88 l 1,15,-1
 159 290 l 1,12,-1
EndSplineSet
Validated: 1
EndChar

StartChar: acute
Encoding: 180 180 111
Width: 1300
GlyphClass: 1
Flags: W
LayerCount: 2
Fore
SplineSet
592 1500 m 1,0,-1
 933 1520 l 1,1,-1
 591 1200 l 1,2,-1
 376 1200 l 1,3,-1
 592 1500 l 1,0,-1
EndSplineSet
Validated: 1
EndChar

StartChar: mu
Encoding: 181 181 112
Width: 1300
GlyphClass: 1
Flags: W
LayerCount: 2
Fore
SplineSet
1282 51 m 1,0,1
 1265 37 1265 37 1245.5 25 c 128,-1,2
 1226 13 1226 13 1199.5 3.5 c 128,-1,3
 1173 -6 1173 -6 1138.5 -11.5 c 128,-1,4
 1104 -17 1104 -17 1056 -17 c 0,5,6
 1022 -17 1022 -17 991 -5 c 128,-1,7
 960 7 960 7 935.5 32 c 128,-1,8
 911 57 911 57 893.5 96 c 128,-1,9
 876 135 876 135 870 190 c 1,10,-1
 802 72 l 1,11,12
 782 56 782 56 755.5 40 c 128,-1,13
 729 24 729 24 696.5 11.5 c 128,-1,14
 664 -1 664 -1 626.5 -9 c 128,-1,15
 589 -17 589 -17 546 -17 c 0,16,17
 526 -17 526 -17 498 -12 c 128,-1,18
 470 -7 470 -7 442 1.5 c 128,-1,19
 414 10 414 10 390.5 20 c 128,-1,20
 367 30 367 30 357 40 c 1,21,-1
 386 -166 l 1,22,-1
 327 -500 l 1,23,-1
 17 -500 l 1,24,-1
 299 1100 l 1,25,-1
 613 1120 l 1,26,-1
 479 362 l 2,27,28
 472 324 472 324 479.5 293.5 c 128,-1,29
 487 263 487 263 503.5 242 c 128,-1,30
 520 221 520 221 543.5 210 c 128,-1,31
 567 199 567 199 594 199 c 0,32,33
 637 199 637 199 677 219.5 c 128,-1,34
 717 240 717 240 752 268 c 1,35,-1
 899 1100 l 1,36,-1
 1213 1120 l 1,37,-1
 1080 365 l 2,38,39
 1063 273 1063 273 1075.5 236 c 128,-1,40
 1088 199 1088 199 1123 199 c 0,41,42
 1150 199 1150 199 1168.5 204.5 c 128,-1,43
 1187 210 1187 210 1214 223 c 1,44,-1
 1282 51 l 1,0,1
EndSplineSet
Validated: 33
EndChar

StartChar: paragraph
Encoding: 182 182 113
Width: 1300
GlyphClass: 1
Flags: W
LayerCount: 2
Fore
SplineSet
934 1298 m 1,0,-1
 800 1298 l 1,1,-1
 501 -400 l 1,2,-1
 232 -400 l 1,3,-1
 409 604 l 1,4,5
 334 614 334 614 264.5 643 c 128,-1,6
 195 672 195 672 146 724.5 c 128,-1,7
 97 777 97 777 75 857 c 128,-1,8
 53 937 53 937 73 1050 c 0,9,10
 88 1137 88 1137 122 1204.5 c 128,-1,11
 156 1272 156 1272 203 1322 c 128,-1,12
 250 1372 250 1372 306.5 1406 c 128,-1,13
 363 1440 363 1440 424 1461 c 128,-1,14
 485 1482 485 1482 547 1491 c 128,-1,15
 609 1500 609 1500 667 1500 c 2,16,-1
 1237 1500 l 1,17,-1
 902 -400 l 1,18,-1
 635 -400 l 1,19,-1
 934 1298 l 1,0,-1
EndSplineSet
Validated: 33
EndChar

StartChar: periodcentered
Encoding: 183 183 114
Width: 1300
VWidth: 2461
GlyphClass: 1
Flags: W
LayerCount: 2
Fore
SplineSet
283.979492188 683.349609375 m 0,0,1
 293.428710938 738.700195312 293.428710938 738.700195312 323.12890625 787.299804688 c 128,-1,2
 352.829101562 835.900390625 352.829101562 835.900390625 395.354492188 872.349609375 c 128,-1,3
 437.87890625 908.799804688 437.87890625 908.799804688 489.854492188 929.724609375 c 128,-1,4
 541.829101562 950.650390625 541.829101562 950.650390625 597.178710938 950.650390625 c 256,5,6
 652.529296875 950.650390625 652.529296875 950.650390625 697.079101562 929.724609375 c 128,-1,7
 741.62890625 908.799804688 741.62890625 908.799804688 772.00390625 872.349609375 c 128,-1,8
 802.37890625 835.900390625 802.37890625 835.900390625 814.529296875 787.299804688 c 128,-1,9
 826.678710938 738.700195312 826.678710938 738.700195312 817.229492188 683.349609375 c 0,10,11
 806.428710938 628 806.428710938 628 777.404296875 578.724609375 c 128,-1,12
 748.37890625 529.450195312 748.37890625 529.450195312 705.854492188 493 c 128,-1,13
 663.329101562 456.549804688 663.329101562 456.549804688 611.354492188 434.950195312 c 128,-1,14
 559.37890625 413.349609375 559.37890625 413.349609375 504.029296875 413.349609375 c 256,15,16
 448.678710938 413.349609375 448.678710938 413.349609375 403.454101562 434.950195312 c 128,-1,17
 358.229492188 456.549804688 358.229492188 456.549804688 328.529296875 493 c 128,-1,18
 298.829101562 529.450195312 298.829101562 529.450195312 286.00390625 578.724609375 c 128,-1,19
 273.178710938 628 273.178710938 628 283.979492188 683.349609375 c 0,0,1
EndSplineSet
Validated: 524321
EndChar

StartChar: cedilla
Encoding: 184 184 115
Width: 1300
GlyphClass: 1
Flags: W
LayerCount: 2
Fore
SplineSet
719 0 m 1,0,1
 743 -20 743 -20 761 -46 c 0,2,3
 776 -69 776 -69 785.5 -100.5 c 128,-1,4
 795 -132 795 -132 788 -171 c 0,5,6
 779 -221 779 -221 748 -264 c 128,-1,7
 717 -307 717 -307 672 -338.5 c 128,-1,8
 627 -370 627 -370 571.5 -388.5 c 128,-1,9
 516 -407 516 -407 459 -407 c 0,10,11
 399 -407 399 -407 344.5 -389 c 128,-1,12
 290 -371 290 -371 246 -349 c 0,13,14
 195 -323 195 -323 150 -290 c 1,15,-1
 293 -131 l 1,16,17
 322 -151 322 -151 351 -166 c 0,18,19
 375 -179 375 -179 402.5 -189.5 c 128,-1,20
 430 -200 430 -200 452 -200 c 0,21,22
 475 -200 475 -200 497.5 -187.5 c 128,-1,23
 520 -175 520 -175 525 -147 c 0,24,25
 529 -126 529 -126 521 -102.5 c 128,-1,26
 513 -79 513 -79 501 -58 c 128,-1,27
 489 -37 489 -37 476 -21.5 c 128,-1,28
 463 -6 463 -6 457 0 c 1,29,-1
 719 0 l 1,0,1
EndSplineSet
Validated: 33
EndChar

StartChar: ordmasculine
Encoding: 186 186 116
Width: 1300
GlyphClass: 1
Flags: W
LayerCount: 2
Fore
SplineSet
200 810 m 1,0,-1
 642 810 l 1,1,-1
 621 690 l 1,2,-1
 179 690 l 1,3,-1
 200 810 l 1,0,-1
467 950 m 0,4,5
 407 950 407 950 360.5 972 c 128,-1,6
 314 994 314 994 285 1032 c 128,-1,7
 256 1070 256 1070 245 1122 c 128,-1,8
 234 1174 234 1174 244 1235 c 0,9,10
 255 1296 255 1296 283.5 1347.5 c 128,-1,11
 312 1399 312 1399 354.5 1437 c 128,-1,12
 397 1475 397 1475 451.5 1496 c 128,-1,13
 506 1517 506 1517 567 1517 c 0,14,15
 627 1517 627 1517 673 1496 c 128,-1,16
 719 1475 719 1475 747.5 1437 c 128,-1,17
 776 1399 776 1399 786 1347.5 c 128,-1,18
 796 1296 796 1296 786 1235 c 0,19,20
 775 1174 775 1174 747 1122 c 128,-1,21
 719 1070 719 1070 677.5 1032 c 128,-1,22
 636 994 636 994 582.5 972 c 128,-1,23
 529 950 529 950 467 950 c 0,4,5
620 1223 m 0,24,25
 626 1257 626 1257 626 1290 c 128,-1,26
 626 1323 626 1323 618 1349 c 128,-1,27
 610 1375 610 1375 592 1391 c 128,-1,28
 574 1407 574 1407 545 1407 c 0,29,30
 517 1407 517 1407 494.5 1393.5 c 128,-1,31
 472 1380 472 1380 455 1357 c 128,-1,32
 438 1334 438 1334 426.5 1304.5 c 128,-1,33
 415 1275 415 1275 409 1244 c 0,34,35
 403 1210 403 1210 403.5 1177 c 128,-1,36
 404 1144 404 1144 413 1118 c 128,-1,37
 422 1092 422 1092 440.5 1076 c 128,-1,38
 459 1060 459 1060 488 1060 c 0,39,40
 515 1060 515 1060 537 1074 c 128,-1,41
 559 1088 559 1088 576 1111 c 128,-1,42
 593 1134 593 1134 604 1163 c 128,-1,43
 615 1192 615 1192 620 1223 c 0,24,25
EndSplineSet
Validated: 33
EndChar

StartChar: guillemotright
Encoding: 187 187 117
Width: 1300
GlyphClass: 1
Flags: W
LayerCount: 2
Fore
SplineSet
789 619 m 1,0,-1
 764 476 l 1,1,-1
 122 -13 l 1,2,-1
 70 224 l 1,3,-1
 455 517 l 1,4,-1
 535 550 l 1,5,-1
 466 582 l 1,6,-1
 187 880 l 1,7,-1
 316 1106 l 1,8,-1
 789 619 l 1,0,-1
1289 619 m 1,9,-1
 1264 476 l 1,10,-1
 622 -13 l 1,11,-1
 570 224 l 1,12,-1
 955 517 l 1,13,-1
 1035 550 l 1,14,-1
 966 582 l 1,15,-1
 687 880 l 1,16,-1
 816 1106 l 1,17,-1
 1289 619 l 1,9,-1
EndSplineSet
Validated: 1
EndChar

StartChar: questiondown
Encoding: 191 191 118
Width: 1300
GlyphClass: 1
Flags: W
LayerCount: 2
Fore
SplineSet
141 -24 m 0,0,1
 152 36 152 36 180 85.5 c 128,-1,2
 208 135 208 135 248 178 c 128,-1,3
 288 221 288 221 336.5 259 c 128,-1,4
 385 297 385 297 435 335 c 0,5,6
 469 360 469 360 503.5 391.5 c 128,-1,7
 538 423 538 423 568.5 463 c 128,-1,8
 599 503 599 503 622.5 553 c 128,-1,9
 646 603 646 603 657 666 c 1,10,-1
 974 701 l 1,11,12
 958 614 958 614 932 538 c 128,-1,13
 906 462 906 462 865.5 395 c 128,-1,14
 825 328 825 328 767.5 269.5 c 128,-1,15
 710 211 710 211 630 158 c 0,16,17
 604 139 604 139 579.5 119 c 128,-1,18
 555 99 555 99 535 76.5 c 128,-1,19
 515 54 515 54 500.5 27.5 c 128,-1,20
 486 1 486 1 480 -32 c 0,21,22
 473 -72 473 -72 482.5 -100.5 c 128,-1,23
 492 -129 492 -129 513.5 -147.5 c 128,-1,24
 535 -166 535 -166 565.5 -174.5 c 128,-1,25
 596 -183 596 -183 630 -183 c 0,26,27
 656 -183 656 -183 695 -174.5 c 128,-1,28
 734 -166 734 -166 779.5 -146.5 c 128,-1,29
 825 -127 825 -127 873 -95 c 128,-1,30
 921 -63 921 -63 964 -17 c 1,31,-1
 1119 -168 l 1,32,33
 1049 -244 1049 -244 975.5 -292.5 c 128,-1,34
 902 -341 902 -341 830 -368.5 c 128,-1,35
 758 -396 758 -396 690.5 -406.5 c 128,-1,36
 623 -417 623 -417 564 -417 c 0,37,38
 469 -417 469 -417 384.5 -393.5 c 128,-1,39
 300 -370 300 -370 240 -321.5 c 128,-1,40
 180 -273 180 -273 151.5 -199 c 128,-1,41
 123 -125 123 -125 141 -24 c 0,0,1
1014 951 m 0,42,43
 1008 917 1008 917 990.5 887.5 c 128,-1,44
 973 858 973 858 946.5 835.5 c 128,-1,45
 920 813 920 813 888.5 800 c 128,-1,46
 857 787 857 787 823 787 c 256,47,48
 789 787 789 787 761.5 800 c 128,-1,49
 734 813 734 813 715.5 835.5 c 128,-1,50
 697 858 697 858 689.5 887.5 c 128,-1,51
 682 917 682 917 688 951 c 0,52,53
 694 984 694 984 712 1014.5 c 128,-1,54
 730 1045 730 1045 756 1067.5 c 128,-1,55
 782 1090 782 1090 814 1103.5 c 128,-1,56
 846 1117 846 1117 880 1117 c 0,57,58
 913 1117 913 1117 941 1103.5 c 128,-1,59
 969 1090 969 1090 987.5 1067.5 c 128,-1,60
 1006 1045 1006 1045 1013 1014.5 c 128,-1,61
 1020 984 1020 984 1014 951 c 0,42,43
EndSplineSet
Validated: 33
EndChar

StartChar: Agrave
Encoding: 192 192 119
Width: 1300
GlyphClass: 1
Flags: W
LayerCount: 2
Fore
SplineSet
35 0 m 1,0,-1
 616 1284 l 1,1,-1
 680 1500 l 1,2,-1
 1072 1520 l 1,3,-1
 1234 0 l 1,4,-1
 900 0 l 1,5,-1
 872 427 l 1,6,-1
 530 427 l 1,7,-1
 353 0 l 1,8,-1
 35 0 l 1,0,-1
862 1331 m 1,9,-1
 763 990 l 1,10,-1
 627 646 l 1,11,-1
 851 646 l 1,12,-1
 840 990 l 1,13,-1
 862 1331 l 1,9,-1
1001 1600 m 1,14,-1
 786 1600 l 1,15,-1
 558 1920 l 1,16,-1
 891 1900 l 1,17,-1
 1001 1600 l 1,14,-1
EndSplineSet
Validated: 1
EndChar

StartChar: Aacute
Encoding: 193 193 120
Width: 1300
GlyphClass: 1
Flags: W
LayerCount: 2
Fore
SplineSet
35 0 m 1,0,-1
 616 1284 l 1,1,-1
 680 1500 l 1,2,-1
 1072 1520 l 1,3,-1
 1234 0 l 1,4,-1
 900 0 l 1,5,-1
 872 427 l 1,6,-1
 530 427 l 1,7,-1
 353 0 l 1,8,-1
 35 0 l 1,0,-1
862 1331 m 1,9,-1
 763 990 l 1,10,-1
 627 646 l 1,11,-1
 851 646 l 1,12,-1
 840 990 l 1,13,-1
 862 1331 l 1,9,-1
960 1900 m 1,14,-1
 1301 1920 l 1,15,-1
 959 1600 l 1,16,-1
 744 1600 l 1,17,-1
 960 1900 l 1,14,-1
EndSplineSet
Validated: 1
EndChar

StartChar: Acircumflex
Encoding: 194 194 121
Width: 1300
GlyphClass: 1
Flags: W
LayerCount: 2
Fore
SplineSet
35 0 m 1,0,-1
 616 1284 l 1,1,-1
 680 1500 l 1,2,-1
 1072 1520 l 1,3,-1
 1234 0 l 1,4,-1
 900 0 l 1,5,-1
 872 427 l 1,6,-1
 530 427 l 1,7,-1
 353 0 l 1,8,-1
 35 0 l 1,0,-1
862 1331 m 1,9,-1
 763 990 l 1,10,-1
 627 646 l 1,11,-1
 851 646 l 1,12,-1
 840 990 l 1,13,-1
 862 1331 l 1,9,-1
1231 1620 m 1,14,-1
 1011 1620 l 1,15,-1
 959 1723 l 1,16,-1
 952 1850 l 1,17,-1
 899 1723 l 1,18,-1
 800 1620 l 1,19,-1
 561 1620 l 1,20,-1
 805 1900 l 1,21,-1
 1099 1920 l 1,22,-1
 1231 1620 l 1,14,-1
EndSplineSet
Validated: 1
EndChar

StartChar: Atilde
Encoding: 195 195 122
Width: 1300
GlyphClass: 1
Flags: W
LayerCount: 2
Fore
SplineSet
35 0 m 1,0,-1
 616 1284 l 1,1,-1
 680 1500 l 1,2,-1
 1072 1520 l 1,3,-1
 1234 0 l 1,4,-1
 900 0 l 1,5,-1
 872 427 l 1,6,-1
 530 427 l 1,7,-1
 353 0 l 1,8,-1
 35 0 l 1,0,-1
862 1331 m 1,9,-1
 763 990 l 1,10,-1
 627 646 l 1,11,-1
 851 646 l 1,12,-1
 840 990 l 1,13,-1
 862 1331 l 1,9,-1
507 1627 m 1,14,15
 518 1667 518 1667 542 1712.5 c 128,-1,16
 566 1758 566 1758 603 1796 c 128,-1,17
 640 1834 640 1834 690 1859 c 128,-1,18
 740 1884 740 1884 803 1884 c 0,19,20
 852 1884 852 1884 883.5 1871.5 c 128,-1,21
 915 1859 915 1859 939 1844 c 128,-1,22
 963 1829 963 1829 985.5 1816.5 c 128,-1,23
 1008 1804 1008 1804 1039 1804 c 0,24,25
 1060 1804 1060 1804 1075.5 1811 c 128,-1,26
 1091 1818 1091 1818 1102 1830 c 128,-1,27
 1113 1842 1113 1842 1121 1858 c 128,-1,28
 1129 1874 1129 1874 1135 1892 c 1,29,-1
 1301 1882 l 1,30,31
 1290 1838 1290 1838 1268 1791.5 c 128,-1,32
 1246 1745 1246 1745 1211 1707 c 128,-1,33
 1176 1669 1176 1669 1126.5 1644.5 c 128,-1,34
 1077 1620 1077 1620 1010 1620 c 0,35,36
 964 1620 964 1620 935 1632.5 c 128,-1,37
 906 1645 906 1645 882 1660 c 128,-1,38
 858 1675 858 1675 834 1687.5 c 128,-1,39
 810 1700 810 1700 775 1700 c 0,40,41
 757 1700 757 1700 744 1693 c 128,-1,42
 731 1686 731 1686 720.5 1675 c 128,-1,43
 710 1664 710 1664 702 1649.5 c 128,-1,44
 694 1635 694 1635 688 1620 c 1,45,-1
 507 1627 l 1,14,15
EndSplineSet
Validated: 1
EndChar

StartChar: Adieresis
Encoding: 196 196 123
Width: 1300
GlyphClass: 1
Flags: W
LayerCount: 2
Fore
SplineSet
35 0 m 1,0,-1
 616 1284 l 1,1,-1
 680 1500 l 1,2,-1
 1072 1520 l 1,3,-1
 1234 0 l 1,4,-1
 900 0 l 1,5,-1
 872 427 l 1,6,-1
 530 427 l 1,7,-1
 353 0 l 1,8,-1
 35 0 l 1,0,-1
862 1331 m 1,9,-1
 763 990 l 1,10,-1
 627 646 l 1,11,-1
 851 646 l 1,12,-1
 840 990 l 1,13,-1
 862 1331 l 1,9,-1
625 1866 m 1,14,-1
 901 1866 l 1,15,-1
 854 1600 l 1,16,-1
 578 1600 l 1,17,-1
 625 1866 l 1,14,-1
1025 1866 m 1,18,-1
 1301 1866 l 1,19,-1
 1254 1600 l 1,20,-1
 978 1600 l 1,21,-1
 1025 1866 l 1,18,-1
EndSplineSet
Validated: 1
EndChar

StartChar: Aring
Encoding: 197 197 124
Width: 1300
GlyphClass: 1
Flags: W
LayerCount: 2
Fore
SplineSet
974 1927 m 256,0,1
 1033 1927 1033 1927 1081 1904.5 c 128,-1,2
 1129 1882 1129 1882 1160.5 1843.5 c 128,-1,3
 1192 1805 1192 1805 1205 1753 c 128,-1,4
 1218 1701 1218 1701 1208 1642 c 0,5,6
 1197 1583 1197 1583 1166 1530.5 c 128,-1,7
 1135 1478 1135 1478 1090 1438 c 0,8,9
 1086 1435 1086 1435 1081 1431 c 1,10,-1
 1234 0 l 1,11,-1
 900 0 l 1,12,-1
 872 427 l 1,13,-1
 530 427 l 1,14,-1
 353 0 l 1,15,-1
 35 0 l 1,16,-1
 616 1284 l 1,17,-1
 669 1463 l 1,18,19
 650 1494 650 1494 641 1530 c 0,20,21
 627 1583 627 1583 638 1642 c 0,22,23
 648 1701 648 1701 680 1753 c 128,-1,24
 712 1805 712 1805 757.5 1843.5 c 128,-1,25
 803 1882 803 1882 859 1904.5 c 128,-1,26
 915 1927 915 1927 974 1927 c 256,0,1
862 1331 m 1,27,-1
 763 990 l 1,28,-1
 627 646 l 1,29,-1
 851 646 l 1,30,-1
 840 990 l 1,31,-1
 862 1331 l 1,27,-1
907 1542 m 256,32,33
 927 1542 927 1542 946 1550 c 128,-1,34
 965 1558 965 1558 980.5 1571.5 c 128,-1,35
 996 1585 996 1585 1006.5 1603 c 128,-1,36
 1017 1621 1017 1621 1021 1641 c 0,37,38
 1024 1661 1024 1661 1019.5 1678.5 c 128,-1,39
 1015 1696 1015 1696 1004.5 1709.5 c 128,-1,40
 994 1723 994 1723 977.5 1730.5 c 128,-1,41
 961 1738 961 1738 941 1738 c 256,42,43
 921 1738 921 1738 902 1730.5 c 128,-1,44
 883 1723 883 1723 867.5 1709.5 c 128,-1,45
 852 1696 852 1696 841 1678.5 c 128,-1,46
 830 1661 830 1661 827 1641 c 0,47,48
 823 1621 823 1621 827.5 1603 c 128,-1,49
 832 1585 832 1585 843 1571.5 c 128,-1,50
 854 1558 854 1558 870.5 1550 c 128,-1,51
 887 1542 887 1542 907 1542 c 256,32,33
EndSplineSet
Validated: 33
EndChar

StartChar: AE
Encoding: 198 198 125
Width: 1300
GlyphClass: 1
Flags: W
LayerCount: 2
Fore
SplineSet
1177 228 m 1,0,-1
 1110 0 l 1,1,-1
 480 0 l 1,2,-1
 539 231 l 1,3,-1
 574 427 l 1,4,-1
 403 427 l 1,5,-1
 181 0 l 1,6,-1
 -82 0 l 1,7,-1
 569 1284 l 1,8,-1
 653 1500 l 1,9,-1
 1365 1500 l 1,10,-1
 1325 1272 l 1,11,-1
 993 1272 l 1,12,-1
 989 1202 l 2,13,14
 987 1167 987 1167 984 1133 c 2,15,-1
 946 916 l 1,16,-1
 1195 916 l 1,17,-1
 1157 703 l 1,18,-1
 908 703 l 1,19,-1
 848 360 l 1,20,-1
 817 228 l 1,21,-1
 1177 228 l 1,0,-1
710 1250 m 1,22,-1
 590 851 l 1,23,-1
 481 599 l 1,24,-1
 604 599 l 1,25,-1
 710 1250 l 1,22,-1
EndSplineSet
Validated: 1
EndChar

StartChar: Ccedilla
Encoding: 199 199 126
Width: 1300
GlyphClass: 1
Flags: W
LayerCount: 2
Fore
SplineSet
1048 133 m 1,0,1
 933 52 933 52 814 17 c 0,2,3
 767 4 767 4 718 -4 c 1,4,5
 739 -23 739 -23 755 -46 c 0,6,7
 770 -69 770 -69 779.5 -100.5 c 128,-1,8
 789 -132 789 -132 782 -171 c 0,9,10
 773 -221 773 -221 742 -264 c 128,-1,11
 711 -307 711 -307 666 -338.5 c 128,-1,12
 621 -370 621 -370 565.5 -388.5 c 128,-1,13
 510 -407 510 -407 453 -407 c 0,14,15
 393 -407 393 -407 338.5 -389 c 128,-1,16
 284 -371 284 -371 240 -349 c 0,17,18
 189 -323 189 -323 144 -290 c 1,19,-1
 287 -131 l 1,20,21
 316 -151 316 -151 345 -166 c 0,22,23
 369 -179 369 -179 396.5 -189.5 c 128,-1,24
 424 -200 424 -200 446 -200 c 0,25,26
 469 -200 469 -200 491.5 -187.5 c 128,-1,27
 514 -175 514 -175 519 -147 c 0,28,29
 523 -126 523 -126 515 -102.5 c 128,-1,30
 507 -79 507 -79 495 -58 c 128,-1,31
 483 -37 483 -37 470 -21 c 0,32,33
 464 -14 464 -14 459 -9 c 1,34,35
 416 -1 416 -1 377 11 c 0,36,37
 293 40 293 40 228.5 91.5 c 128,-1,38
 164 143 164 143 119 215 c 128,-1,39
 74 287 74 287 50.5 374 c 128,-1,40
 27 461 27 461 24 561.5 c 128,-1,41
 21 662 21 662 40 769 c 0,42,43
 58 870 58 870 86 964.5 c 128,-1,44
 114 1059 114 1059 157 1142 c 128,-1,45
 200 1225 200 1225 260.5 1294 c 128,-1,46
 321 1363 321 1363 404 1412.5 c 128,-1,47
 487 1462 487 1462 595 1489.5 c 128,-1,48
 703 1517 703 1517 840 1517 c 0,49,50
 904 1517 904 1517 964.5 1505.5 c 128,-1,51
 1025 1494 1025 1494 1079 1472 c 128,-1,52
 1133 1450 1133 1450 1179 1418 c 128,-1,53
 1225 1386 1225 1386 1261 1344 c 1,54,-1
 1081 1160 l 1,55,56
 1052 1182 1052 1182 1019 1202 c 128,-1,57
 986 1222 986 1222 951.5 1237 c 128,-1,58
 917 1252 917 1252 881.5 1261 c 128,-1,59
 846 1270 846 1270 812 1270 c 0,60,61
 717 1270 717 1270 646 1231 c 128,-1,62
 575 1192 575 1192 524.5 1124.5 c 128,-1,63
 474 1057 474 1057 441 966 c 128,-1,64
 408 875 408 875 390 772 c 0,65,66
 379 711 379 711 376.5 647.5 c 128,-1,67
 374 584 374 584 381 524 c 128,-1,68
 388 464 388 464 406 411 c 128,-1,69
 424 358 424 358 454.5 318.5 c 128,-1,70
 485 279 485 279 529.5 256 c 128,-1,71
 574 233 574 233 633 233 c 0,72,73
 667 233 667 233 701 238.5 c 128,-1,74
 735 244 735 244 774 256.5 c 128,-1,75
 813 269 813 269 859.5 289.5 c 128,-1,76
 906 310 906 310 965 340 c 1,77,-1
 1048 133 l 1,0,1
EndSplineSet
Validated: 33
EndChar

StartChar: Egrave
Encoding: 200 200 127
Width: 1300
GlyphClass: 1
Flags: W
LayerCount: 2
Fore
SplineSet
1066 228 m 1,0,-1
 999 0 l 1,1,-1
 39 0 l 1,2,-1
 97 231 l 1,3,-1
 279 1263 l 1,4,-1
 279 1500 l 1,5,-1
 1254 1500 l 1,6,-1
 1214 1272 l 1,7,-1
 617 1272 l 1,8,-1
 607 1134 l 1,9,-1
 569 916 l 1,10,-1
 1085 916 l 1,11,-1
 1047 703 l 1,12,-1
 531 703 l 1,13,-1
 471 360 l 1,14,-1
 439 228 l 1,15,-1
 1066 228 l 1,0,-1
1001 1600 m 1,16,-1
 786 1600 l 1,17,-1
 558 1920 l 1,18,-1
 891 1900 l 1,19,-1
 1001 1600 l 1,16,-1
EndSplineSet
Validated: 1
EndChar

StartChar: Eacute
Encoding: 201 201 128
Width: 1300
GlyphClass: 1
Flags: W
LayerCount: 2
Fore
SplineSet
1066 228 m 1,0,-1
 999 0 l 1,1,-1
 39 0 l 1,2,-1
 97 231 l 1,3,-1
 279 1263 l 1,4,-1
 279 1500 l 1,5,-1
 1254 1500 l 1,6,-1
 1214 1272 l 1,7,-1
 617 1272 l 1,8,-1
 607 1134 l 1,9,-1
 569 916 l 1,10,-1
 1085 916 l 1,11,-1
 1047 703 l 1,12,-1
 531 703 l 1,13,-1
 471 360 l 1,14,-1
 439 228 l 1,15,-1
 1066 228 l 1,0,-1
777 1900 m 1,16,-1
 1118 1920 l 1,17,-1
 776 1600 l 1,18,-1
 561 1600 l 1,19,-1
 777 1900 l 1,16,-1
EndSplineSet
Validated: 1
EndChar

StartChar: Ecircumflex
Encoding: 202 202 129
Width: 1300
GlyphClass: 1
Flags: W
LayerCount: 2
Fore
SplineSet
1066 228 m 1,0,-1
 999 0 l 1,1,-1
 39 0 l 1,2,-1
 97 231 l 1,3,-1
 279 1263 l 1,4,-1
 279 1500 l 1,5,-1
 1254 1500 l 1,6,-1
 1214 1272 l 1,7,-1
 617 1272 l 1,8,-1
 607 1134 l 1,9,-1
 569 916 l 1,10,-1
 1085 916 l 1,11,-1
 1047 703 l 1,12,-1
 531 703 l 1,13,-1
 471 360 l 1,14,-1
 439 228 l 1,15,-1
 1066 228 l 1,0,-1
1143 1620 m 1,16,-1
 923 1620 l 1,17,-1
 871 1723 l 1,18,-1
 864 1850 l 1,19,-1
 811 1723 l 1,20,-1
 712 1620 l 1,21,-1
 473 1620 l 1,22,-1
 717 1900 l 1,23,-1
 1011 1920 l 1,24,-1
 1143 1620 l 1,16,-1
EndSplineSet
Validated: 1
EndChar

StartChar: Edieresis
Encoding: 203 203 130
Width: 1300
GlyphClass: 1
Flags: W
LayerCount: 2
Fore
SplineSet
1066 228 m 1,0,-1
 999 0 l 1,1,-1
 39 0 l 1,2,-1
 97 231 l 1,3,-1
 279 1263 l 1,4,-1
 279 1500 l 1,5,-1
 1254 1500 l 1,6,-1
 1214 1272 l 1,7,-1
 617 1272 l 1,8,-1
 607 1134 l 1,9,-1
 569 916 l 1,10,-1
 1085 916 l 1,11,-1
 1047 703 l 1,12,-1
 531 703 l 1,13,-1
 471 360 l 1,14,-1
 439 228 l 1,15,-1
 1066 228 l 1,0,-1
486 1866 m 1,16,-1
 762 1866 l 1,17,-1
 715 1600 l 1,18,-1
 439 1600 l 1,19,-1
 486 1866 l 1,16,-1
886 1866 m 1,20,-1
 1162 1866 l 1,21,-1
 1115 1600 l 1,22,-1
 839 1600 l 1,23,-1
 886 1866 l 1,20,-1
EndSplineSet
Validated: 1
EndChar

StartChar: Igrave
Encoding: 204 204 131
Width: 1300
GlyphClass: 1
Flags: W
LayerCount: 2
Fore
SplineSet
353 1500 m 1,0,-1
 1231 1500 l 1,1,-1
 1191 1272 l 1,2,-1
 918 1272 l 1,3,-1
 733 228 l 1,4,-1
 1034 228 l 1,5,-1
 959 0 l 1,6,-1
 81 0 l 1,7,-1
 121 228 l 1,8,-1
 399 228 l 1,9,-1
 584 1272 l 1,10,-1
 278 1272 l 1,11,-1
 353 1500 l 1,0,-1
996 1600 m 1,12,-1
 781 1600 l 1,13,-1
 553 1920 l 1,14,-1
 886 1900 l 1,15,-1
 996 1600 l 1,12,-1
EndSplineSet
Validated: 1
EndChar

StartChar: Iacute
Encoding: 205 205 132
Width: 1300
GlyphClass: 1
Flags: W
LayerCount: 2
Fore
SplineSet
353 1500 m 1,0,-1
 1231 1500 l 1,1,-1
 1191 1272 l 1,2,-1
 918 1272 l 1,3,-1
 733 228 l 1,4,-1
 1034 228 l 1,5,-1
 959 0 l 1,6,-1
 81 0 l 1,7,-1
 121 228 l 1,8,-1
 399 228 l 1,9,-1
 584 1272 l 1,10,-1
 278 1272 l 1,11,-1
 353 1500 l 1,0,-1
957 1900 m 1,12,-1
 1298 1920 l 1,13,-1
 956 1600 l 1,14,-1
 741 1600 l 1,15,-1
 957 1900 l 1,12,-1
EndSplineSet
Validated: 1
EndChar

StartChar: Icircumflex
Encoding: 206 206 133
Width: 1300
GlyphClass: 1
Flags: W
LayerCount: 2
Fore
SplineSet
353 1500 m 1,0,-1
 1231 1500 l 1,1,-1
 1191 1272 l 1,2,-1
 918 1272 l 1,3,-1
 733 228 l 1,4,-1
 1034 228 l 1,5,-1
 959 0 l 1,6,-1
 81 0 l 1,7,-1
 121 228 l 1,8,-1
 399 228 l 1,9,-1
 584 1272 l 1,10,-1
 278 1272 l 1,11,-1
 353 1500 l 1,0,-1
1178 1624 m 1,12,-1
 958 1624 l 1,13,-1
 906 1727 l 1,14,-1
 899 1854 l 1,15,-1
 846 1727 l 1,16,-1
 747 1624 l 1,17,-1
 508 1624 l 1,18,-1
 752 1904 l 1,19,-1
 1046 1924 l 1,20,-1
 1178 1624 l 1,12,-1
EndSplineSet
Validated: 1
EndChar

StartChar: Idieresis
Encoding: 207 207 134
Width: 1300
GlyphClass: 1
Flags: W
LayerCount: 2
Fore
SplineSet
353 1500 m 1,0,-1
 1231 1500 l 1,1,-1
 1191 1272 l 1,2,-1
 918 1272 l 1,3,-1
 733 228 l 1,4,-1
 1034 228 l 1,5,-1
 959 0 l 1,6,-1
 81 0 l 1,7,-1
 121 228 l 1,8,-1
 399 228 l 1,9,-1
 584 1272 l 1,10,-1
 278 1272 l 1,11,-1
 353 1500 l 1,0,-1
514 1966 m 1,12,-1
 790 1966 l 1,13,-1
 743 1700 l 1,14,-1
 467 1700 l 1,15,-1
 514 1966 l 1,12,-1
914 1966 m 1,16,-1
 1190 1966 l 1,17,-1
 1143 1700 l 1,18,-1
 867 1700 l 1,19,-1
 914 1966 l 1,16,-1
EndSplineSet
Validated: 1
EndChar

StartChar: Ntilde
Encoding: 209 209 135
Width: 1300
GlyphClass: 1
Flags: W
LayerCount: 2
Fore
SplineSet
739 0 m 1,0,-1
 443 950 l 1,1,-1
 433 950 l 1,2,-1
 442 649 l 1,3,-1
 327 0 l 1,4,-1
 5 0 l 1,5,-1
 227 1263 l 1,6,-1
 227 1500 l 1,7,-1
 566 1520 l 1,8,-1
 861 600 l 1,9,-1
 871 600 l 1,10,-1
 857 852 l 1,11,-1
 971 1500 l 1,12,-1
 1297 1520 l 1,13,-1
 1028 0 l 1,14,-1
 739 0 l 1,0,-1
441 1627 m 1,15,16
 452 1667 452 1667 476 1712.5 c 128,-1,17
 500 1758 500 1758 537 1796 c 128,-1,18
 574 1834 574 1834 624 1859 c 128,-1,19
 674 1884 674 1884 737 1884 c 0,20,21
 786 1884 786 1884 817.5 1871.5 c 128,-1,22
 849 1859 849 1859 873 1844 c 128,-1,23
 897 1829 897 1829 919.5 1816.5 c 128,-1,24
 942 1804 942 1804 973 1804 c 0,25,26
 994 1804 994 1804 1009.5 1811 c 128,-1,27
 1025 1818 1025 1818 1036 1830 c 128,-1,28
 1047 1842 1047 1842 1055 1858 c 128,-1,29
 1063 1874 1063 1874 1069 1892 c 1,30,-1
 1235 1882 l 1,31,32
 1224 1838 1224 1838 1202 1791.5 c 128,-1,33
 1180 1745 1180 1745 1145 1707 c 128,-1,34
 1110 1669 1110 1669 1060.5 1644.5 c 128,-1,35
 1011 1620 1011 1620 944 1620 c 0,36,37
 898 1620 898 1620 869 1632.5 c 128,-1,38
 840 1645 840 1645 816 1660 c 128,-1,39
 792 1675 792 1675 768 1687.5 c 128,-1,40
 744 1700 744 1700 709 1700 c 0,41,42
 691 1700 691 1700 678 1693 c 128,-1,43
 665 1686 665 1686 654.5 1675 c 128,-1,44
 644 1664 644 1664 636 1649.5 c 128,-1,45
 628 1635 628 1635 622 1620 c 1,46,-1
 441 1627 l 1,15,16
EndSplineSet
Validated: 1
EndChar

StartChar: Ograve
Encoding: 210 210 136
Width: 1300
GlyphClass: 1
Flags: W
LayerCount: 2
Fore
SplineSet
488 -17 m 0,0,1
 390 -17 390 -17 312.5 10.5 c 128,-1,2
 235 38 235 38 177.5 88.5 c 128,-1,3
 120 139 120 139 82 209 c 128,-1,4
 44 279 44 279 25 364.5 c 128,-1,5
 6 450 6 450 6 547.5 c 128,-1,6
 6 645 6 645 25 750 c 0,7,8
 43 855 43 855 77 952.5 c 128,-1,9
 111 1050 111 1050 159 1135.5 c 128,-1,10
 207 1221 207 1221 269 1291 c 128,-1,11
 331 1361 331 1361 406 1411.5 c 128,-1,12
 481 1462 481 1462 569.5 1489.5 c 128,-1,13
 658 1517 658 1517 759 1517 c 0,14,15
 906 1517 906 1517 1007 1456 c 128,-1,16
 1108 1395 1108 1395 1165 1291 c 128,-1,17
 1222 1187 1222 1187 1236 1047 c 128,-1,18
 1250 907 1250 907 1222 750 c 0,19,20
 1203 645 1203 645 1169.5 547.5 c 128,-1,21
 1136 450 1136 450 1088 364.5 c 128,-1,22
 1040 279 1040 279 978 209 c 128,-1,23
 916 139 916 139 840.5 88.5 c 128,-1,24
 765 38 765 38 676.5 10.5 c 128,-1,25
 588 -17 588 -17 488 -17 c 0,0,1
866 721 m 0,26,27
 877 783 877 783 885 848 c 128,-1,28
 893 913 893 913 894.5 974.5 c 128,-1,29
 896 1036 896 1036 888 1090.5 c 128,-1,30
 880 1145 880 1145 859 1185.5 c 128,-1,31
 838 1226 838 1226 802 1250 c 128,-1,32
 766 1274 766 1274 710 1274 c 0,33,34
 658 1274 658 1274 616 1252.5 c 128,-1,35
 574 1231 574 1231 540.5 1194.5 c 128,-1,36
 507 1158 507 1158 481.5 1109.5 c 128,-1,37
 456 1061 456 1061 436.5 1006.5 c 128,-1,38
 417 952 417 952 403 894.5 c 128,-1,39
 389 837 389 837 380 783 c 0,40,41
 369 720 369 720 361 654.5 c 128,-1,42
 353 589 353 589 352 527 c 128,-1,43
 351 465 351 465 359 410.5 c 128,-1,44
 367 356 367 356 388 315 c 128,-1,45
 409 274 409 274 445 250 c 128,-1,46
 481 226 481 226 536 226 c 0,47,48
 613 226 613 226 669 273 c 128,-1,49
 725 320 725 320 764 393 c 128,-1,50
 803 466 803 466 827.5 553 c 128,-1,51
 852 640 852 640 866 721 c 0,26,27
1001 1600 m 1,52,-1
 786 1600 l 1,53,-1
 558 1920 l 1,54,-1
 891 1900 l 1,55,-1
 1001 1600 l 1,52,-1
EndSplineSet
Validated: 33
EndChar

StartChar: Oacute
Encoding: 211 211 137
Width: 1300
GlyphClass: 1
Flags: W
LayerCount: 2
Fore
SplineSet
488 -17 m 0,0,1
 390 -17 390 -17 312.5 10.5 c 128,-1,2
 235 38 235 38 177.5 88.5 c 128,-1,3
 120 139 120 139 82 209 c 128,-1,4
 44 279 44 279 25 364.5 c 128,-1,5
 6 450 6 450 6 547.5 c 128,-1,6
 6 645 6 645 25 750 c 0,7,8
 43 855 43 855 77 952.5 c 128,-1,9
 111 1050 111 1050 159 1135.5 c 128,-1,10
 207 1221 207 1221 269 1291 c 128,-1,11
 331 1361 331 1361 406 1411.5 c 128,-1,12
 481 1462 481 1462 569.5 1489.5 c 128,-1,13
 658 1517 658 1517 759 1517 c 0,14,15
 906 1517 906 1517 1007 1456 c 128,-1,16
 1108 1395 1108 1395 1165 1291 c 128,-1,17
 1222 1187 1222 1187 1236 1047 c 128,-1,18
 1250 907 1250 907 1222 750 c 0,19,20
 1203 645 1203 645 1169.5 547.5 c 128,-1,21
 1136 450 1136 450 1088 364.5 c 128,-1,22
 1040 279 1040 279 978 209 c 128,-1,23
 916 139 916 139 840.5 88.5 c 128,-1,24
 765 38 765 38 676.5 10.5 c 128,-1,25
 588 -17 588 -17 488 -17 c 0,0,1
866 721 m 0,26,27
 877 783 877 783 885 848 c 128,-1,28
 893 913 893 913 894.5 974.5 c 128,-1,29
 896 1036 896 1036 888 1090.5 c 128,-1,30
 880 1145 880 1145 859 1185.5 c 128,-1,31
 838 1226 838 1226 802 1250 c 128,-1,32
 766 1274 766 1274 710 1274 c 0,33,34
 658 1274 658 1274 616 1252.5 c 128,-1,35
 574 1231 574 1231 540.5 1194.5 c 128,-1,36
 507 1158 507 1158 481.5 1109.5 c 128,-1,37
 456 1061 456 1061 436.5 1006.5 c 128,-1,38
 417 952 417 952 403 894.5 c 128,-1,39
 389 837 389 837 380 783 c 0,40,41
 369 720 369 720 361 654.5 c 128,-1,42
 353 589 353 589 352 527 c 128,-1,43
 351 465 351 465 359 410.5 c 128,-1,44
 367 356 367 356 388 315 c 128,-1,45
 409 274 409 274 445 250 c 128,-1,46
 481 226 481 226 536 226 c 0,47,48
 613 226 613 226 669 273 c 128,-1,49
 725 320 725 320 764 393 c 128,-1,50
 803 466 803 466 827.5 553 c 128,-1,51
 852 640 852 640 866 721 c 0,26,27
792 1900 m 1,52,-1
 1133 1920 l 1,53,-1
 791 1600 l 1,54,-1
 576 1600 l 1,55,-1
 792 1900 l 1,52,-1
EndSplineSet
Validated: 33
EndChar

StartChar: Ocircumflex
Encoding: 212 212 138
Width: 1300
GlyphClass: 1
Flags: W
LayerCount: 2
Fore
SplineSet
487 -17 m 0,0,1
 389 -17 389 -17 311.5 10.5 c 128,-1,2
 234 38 234 38 176.5 88.5 c 128,-1,3
 119 139 119 139 81 209 c 128,-1,4
 43 279 43 279 24 364.5 c 128,-1,5
 5 450 5 450 5 547.5 c 128,-1,6
 5 645 5 645 24 750 c 0,7,8
 42 855 42 855 76 952.5 c 128,-1,9
 110 1050 110 1050 158 1135.5 c 128,-1,10
 206 1221 206 1221 268 1291 c 128,-1,11
 330 1361 330 1361 405 1411.5 c 128,-1,12
 480 1462 480 1462 568.5 1489.5 c 128,-1,13
 657 1517 657 1517 758 1517 c 0,14,15
 905 1517 905 1517 1006 1456 c 128,-1,16
 1107 1395 1107 1395 1164 1291 c 128,-1,17
 1221 1187 1221 1187 1235 1047 c 128,-1,18
 1249 907 1249 907 1221 750 c 0,19,20
 1202 645 1202 645 1168.5 547.5 c 128,-1,21
 1135 450 1135 450 1087 364.5 c 128,-1,22
 1039 279 1039 279 977 209 c 128,-1,23
 915 139 915 139 839.5 88.5 c 128,-1,24
 764 38 764 38 675.5 10.5 c 128,-1,25
 587 -17 587 -17 487 -17 c 0,0,1
865 721 m 0,26,27
 876 783 876 783 884 848 c 128,-1,28
 892 913 892 913 893.5 974.5 c 128,-1,29
 895 1036 895 1036 887 1090.5 c 128,-1,30
 879 1145 879 1145 858 1185.5 c 128,-1,31
 837 1226 837 1226 801 1250 c 128,-1,32
 765 1274 765 1274 709 1274 c 0,33,34
 657 1274 657 1274 615 1252.5 c 128,-1,35
 573 1231 573 1231 539.5 1194.5 c 128,-1,36
 506 1158 506 1158 480.5 1109.5 c 128,-1,37
 455 1061 455 1061 435.5 1006.5 c 128,-1,38
 416 952 416 952 402 894.5 c 128,-1,39
 388 837 388 837 379 783 c 0,40,41
 368 720 368 720 360 654.5 c 128,-1,42
 352 589 352 589 351 527 c 128,-1,43
 350 465 350 465 358 410.5 c 128,-1,44
 366 356 366 356 387 315 c 128,-1,45
 408 274 408 274 444 250 c 128,-1,46
 480 226 480 226 535 226 c 0,47,48
 612 226 612 226 668 273 c 128,-1,49
 724 320 724 320 763 393 c 128,-1,50
 802 466 802 466 826.5 553 c 128,-1,51
 851 640 851 640 865 721 c 0,26,27
1125 1620 m 1,52,-1
 905 1620 l 1,53,-1
 853 1723 l 1,54,-1
 846 1850 l 1,55,-1
 793 1723 l 1,56,-1
 694 1620 l 1,57,-1
 455 1620 l 1,58,-1
 699 1900 l 1,59,-1
 993 1920 l 1,60,-1
 1125 1620 l 1,52,-1
EndSplineSet
Validated: 33
EndChar

StartChar: Otilde
Encoding: 213 213 139
Width: 1300
GlyphClass: 1
Flags: W
LayerCount: 2
Fore
SplineSet
514 -17 m 0,0,1
 416 -17 416 -17 338.5 10.5 c 128,-1,2
 261 38 261 38 203.5 88.5 c 128,-1,3
 146 139 146 139 108 209 c 128,-1,4
 70 279 70 279 51 364.5 c 128,-1,5
 32 450 32 450 32 547.5 c 128,-1,6
 32 645 32 645 51 750 c 0,7,8
 69 855 69 855 103 952.5 c 128,-1,9
 137 1050 137 1050 185 1135.5 c 128,-1,10
 233 1221 233 1221 295 1291 c 128,-1,11
 357 1361 357 1361 432 1411.5 c 128,-1,12
 507 1462 507 1462 595.5 1489.5 c 128,-1,13
 684 1517 684 1517 785 1517 c 0,14,15
 932 1517 932 1517 1033 1456 c 128,-1,16
 1134 1395 1134 1395 1191 1291 c 128,-1,17
 1248 1187 1248 1187 1262 1047 c 128,-1,18
 1276 907 1276 907 1248 750 c 0,19,20
 1229 645 1229 645 1195.5 547.5 c 128,-1,21
 1162 450 1162 450 1114 364.5 c 128,-1,22
 1066 279 1066 279 1004 209 c 128,-1,23
 942 139 942 139 866.5 88.5 c 128,-1,24
 791 38 791 38 702.5 10.5 c 128,-1,25
 614 -17 614 -17 514 -17 c 0,0,1
892 721 m 0,26,27
 903 783 903 783 911 848 c 128,-1,28
 919 913 919 913 920.5 974.5 c 128,-1,29
 922 1036 922 1036 914 1090.5 c 128,-1,30
 906 1145 906 1145 885 1185.5 c 128,-1,31
 864 1226 864 1226 828 1250 c 128,-1,32
 792 1274 792 1274 736 1274 c 0,33,34
 684 1274 684 1274 642 1252.5 c 128,-1,35
 600 1231 600 1231 566.5 1194.5 c 128,-1,36
 533 1158 533 1158 507.5 1109.5 c 128,-1,37
 482 1061 482 1061 462.5 1006.5 c 128,-1,38
 443 952 443 952 429 894.5 c 128,-1,39
 415 837 415 837 406 783 c 0,40,41
 395 720 395 720 387 654.5 c 128,-1,42
 379 589 379 589 378 527 c 128,-1,43
 377 465 377 465 385 410.5 c 128,-1,44
 393 356 393 356 414 315 c 128,-1,45
 435 274 435 274 471 250 c 128,-1,46
 507 226 507 226 562 226 c 0,47,48
 639 226 639 226 695 273 c 128,-1,49
 751 320 751 320 790 393 c 128,-1,50
 829 466 829 466 853.5 553 c 128,-1,51
 878 640 878 640 892 721 c 0,26,27
455 1627 m 1,52,53
 466 1667 466 1667 490 1712.5 c 128,-1,54
 514 1758 514 1758 551 1796 c 128,-1,55
 588 1834 588 1834 638 1859 c 128,-1,56
 688 1884 688 1884 751 1884 c 0,57,58
 800 1884 800 1884 831.5 1871.5 c 128,-1,59
 863 1859 863 1859 887 1844 c 128,-1,60
 911 1829 911 1829 933.5 1816.5 c 128,-1,61
 956 1804 956 1804 987 1804 c 0,62,63
 1008 1804 1008 1804 1023.5 1811 c 128,-1,64
 1039 1818 1039 1818 1050 1830 c 128,-1,65
 1061 1842 1061 1842 1069 1858 c 128,-1,66
 1077 1874 1077 1874 1083 1892 c 1,67,-1
 1249 1882 l 1,68,69
 1238 1838 1238 1838 1216 1791.5 c 128,-1,70
 1194 1745 1194 1745 1159 1707 c 128,-1,71
 1124 1669 1124 1669 1074.5 1644.5 c 128,-1,72
 1025 1620 1025 1620 958 1620 c 0,73,74
 912 1620 912 1620 883 1632.5 c 128,-1,75
 854 1645 854 1645 830 1660 c 128,-1,76
 806 1675 806 1675 782 1687.5 c 128,-1,77
 758 1700 758 1700 723 1700 c 0,78,79
 705 1700 705 1700 692 1693 c 128,-1,80
 679 1686 679 1686 668.5 1675 c 128,-1,81
 658 1664 658 1664 650 1649.5 c 128,-1,82
 642 1635 642 1635 636 1620 c 1,83,-1
 455 1627 l 1,52,53
EndSplineSet
Validated: 33
EndChar

StartChar: Odieresis
Encoding: 214 214 140
Width: 1300
GlyphClass: 1
Flags: W
LayerCount: 2
Fore
SplineSet
518 -17 m 0,0,1
 420 -17 420 -17 342.5 10.5 c 128,-1,2
 265 38 265 38 207.5 88.5 c 128,-1,3
 150 139 150 139 112 209 c 128,-1,4
 74 279 74 279 55 364.5 c 128,-1,5
 36 450 36 450 36 547.5 c 128,-1,6
 36 645 36 645 55 750 c 0,7,8
 73 855 73 855 107 952.5 c 128,-1,9
 141 1050 141 1050 189 1135.5 c 128,-1,10
 237 1221 237 1221 299 1291 c 128,-1,11
 361 1361 361 1361 436 1411.5 c 128,-1,12
 511 1462 511 1462 599.5 1489.5 c 128,-1,13
 688 1517 688 1517 789 1517 c 0,14,15
 936 1517 936 1517 1037 1456 c 128,-1,16
 1138 1395 1138 1395 1195 1291 c 128,-1,17
 1252 1187 1252 1187 1266 1047 c 128,-1,18
 1280 907 1280 907 1252 750 c 0,19,20
 1233 645 1233 645 1199.5 547.5 c 128,-1,21
 1166 450 1166 450 1118 364.5 c 128,-1,22
 1070 279 1070 279 1008 209 c 128,-1,23
 946 139 946 139 870.5 88.5 c 128,-1,24
 795 38 795 38 706.5 10.5 c 128,-1,25
 618 -17 618 -17 518 -17 c 0,0,1
896 721 m 0,26,27
 907 783 907 783 915 848 c 128,-1,28
 923 913 923 913 924.5 974.5 c 128,-1,29
 926 1036 926 1036 918 1090.5 c 128,-1,30
 910 1145 910 1145 889 1185.5 c 128,-1,31
 868 1226 868 1226 832 1250 c 128,-1,32
 796 1274 796 1274 740 1274 c 0,33,34
 688 1274 688 1274 646 1252.5 c 128,-1,35
 604 1231 604 1231 570.5 1194.5 c 128,-1,36
 537 1158 537 1158 511.5 1109.5 c 128,-1,37
 486 1061 486 1061 466.5 1006.5 c 128,-1,38
 447 952 447 952 433 894.5 c 128,-1,39
 419 837 419 837 410 783 c 0,40,41
 399 720 399 720 391 654.5 c 128,-1,42
 383 589 383 589 382 527 c 128,-1,43
 381 465 381 465 389 410.5 c 128,-1,44
 397 356 397 356 418 315 c 128,-1,45
 439 274 439 274 475 250 c 128,-1,46
 511 226 511 226 566 226 c 0,47,48
 643 226 643 226 699 273 c 128,-1,49
 755 320 755 320 794 393 c 128,-1,50
 833 466 833 466 857.5 553 c 128,-1,51
 882 640 882 640 896 721 c 0,26,27
538 1866 m 1,52,-1
 814 1866 l 1,53,-1
 767 1600 l 1,54,-1
 491 1600 l 1,55,-1
 538 1866 l 1,52,-1
938 1866 m 1,56,-1
 1214 1866 l 1,57,-1
 1167 1600 l 1,58,-1
 891 1600 l 1,59,-1
 938 1866 l 1,56,-1
EndSplineSet
Validated: 33
EndChar

StartChar: Oslash
Encoding: 216 216 141
Width: 1300
GlyphClass: 1
Flags: W
LayerCount: 2
Fore
SplineSet
514 -17 m 0,0,1
 441 -17 441 -17 380 -2 c 1,2,-1
 331 -100 l 1,3,-1
 121 -100 l 1,4,-1
 212 80 l 1,5,-1
 203 88 l 2,6,7
 146 139 146 139 108 209 c 128,-1,8
 70 279 70 279 51 364.5 c 128,-1,9
 32 450 32 450 32 547.5 c 128,-1,10
 32 645 32 645 51 750 c 0,11,12
 69 855 69 855 103 952.5 c 128,-1,13
 137 1050 137 1050 185 1135.5 c 128,-1,14
 233 1221 233 1221 295 1291 c 128,-1,15
 357 1361 357 1361 432 1411.5 c 128,-1,16
 507 1462 507 1462 595.5 1489.5 c 128,-1,17
 684 1517 684 1517 785 1517 c 0,18,19
 863 1517 863 1517 929 1499 c 1,20,-1
 980 1600 l 1,21,-1
 1180 1600 l 1,22,-1
 1088 1416 l 1,23,24
 1150 1364 1150 1364 1191 1291 c 0,25,26
 1248 1187 1248 1187 1262 1047 c 128,-1,27
 1276 907 1276 907 1248 750 c 0,28,29
 1229 645 1229 645 1195.5 547.5 c 128,-1,30
 1162 450 1162 450 1114 364.5 c 128,-1,31
 1066 279 1066 279 1004 209 c 128,-1,32
 942 139 942 139 866.5 88.5 c 128,-1,33
 791 38 791 38 702.5 10.5 c 128,-1,34
 614 -17 614 -17 514 -17 c 0,0,1
736 1274 m 0,35,36
 684 1274 684 1274 642 1252.5 c 128,-1,37
 600 1231 600 1231 566.5 1194.5 c 128,-1,38
 533 1158 533 1158 507.5 1109.5 c 128,-1,39
 482 1061 482 1061 462.5 1006.5 c 128,-1,40
 443 952 443 952 429 894.5 c 128,-1,41
 415 837 415 837 406 783 c 0,42,43
 395 720 395 720 387 654.5 c 128,-1,44
 379 589 379 589 378 527 c 0,45,46
 377 470 377 470 383 419 c 1,47,-1
 808 1260 l 1,48,49
 778 1274 778 1274 736 1274 c 0,35,36
892 721 m 0,50,51
 903 783 903 783 911 848 c 128,-1,52
 919 913 919 913 920 974 c 0,53,54
 922 1026 922 1026 916 1072 c 1,55,-1
 499 236 l 1,56,57
 526 226 526 226 562 226 c 0,58,59
 639 226 639 226 695 273 c 128,-1,60
 751 320 751 320 790 393 c 128,-1,61
 829 466 829 466 853.5 553 c 128,-1,62
 878 640 878 640 892 721 c 0,50,51
EndSplineSet
Validated: 33
EndChar

StartChar: Ugrave
Encoding: 217 217 142
Width: 1300
GlyphClass: 1
Flags: W
LayerCount: 2
Fore
SplineSet
1261 1500 m 1,0,-1
 1091 534 l 2,1,2
 1067 395 1067 395 1011.5 291.5 c 128,-1,3
 956 188 956 188 874 119.5 c 128,-1,4
 792 51 792 51 685.5 17 c 128,-1,5
 579 -17 579 -17 453 -17 c 0,6,7
 317 -17 317 -17 230.5 26 c 128,-1,8
 144 69 144 69 99.5 148 c 128,-1,9
 55 227 55 227 48.5 337.5 c 128,-1,10
 42 448 42 448 66 582 c 2,11,-1
 186 1263 l 1,12,-1
 186 1500 l 1,13,-1
 563 1520 l 1,14,-1
 394 564 l 2,15,16
 380 483 380 483 375 419 c 128,-1,17
 370 355 370 355 381.5 311 c 128,-1,18
 393 267 393 267 425 244 c 128,-1,19
 457 221 457 221 516 221 c 0,20,21
 607 221 607 221 668.5 294.5 c 128,-1,22
 730 368 730 368 756 516 c 2,23,-1
 929 1500 l 1,24,-1
 1261 1500 l 1,0,-1
901 1600 m 1,25,-1
 686 1600 l 1,26,-1
 458 1920 l 1,27,-1
 791 1900 l 1,28,-1
 901 1600 l 1,25,-1
EndSplineSet
Validated: 33
EndChar

StartChar: Uacute
Encoding: 218 218 143
Width: 1300
GlyphClass: 1
Flags: W
LayerCount: 2
Fore
SplineSet
1261 1500 m 1,0,-1
 1091 534 l 2,1,2
 1067 395 1067 395 1011.5 291.5 c 128,-1,3
 956 188 956 188 874 119.5 c 128,-1,4
 792 51 792 51 685.5 17 c 128,-1,5
 579 -17 579 -17 453 -17 c 0,6,7
 317 -17 317 -17 230.5 26 c 128,-1,8
 144 69 144 69 99.5 148 c 128,-1,9
 55 227 55 227 48.5 337.5 c 128,-1,10
 42 448 42 448 66 582 c 2,11,-1
 186 1263 l 1,12,-1
 186 1500 l 1,13,-1
 563 1520 l 1,14,-1
 394 564 l 2,15,16
 380 483 380 483 375 419 c 128,-1,17
 370 355 370 355 381.5 311 c 128,-1,18
 393 267 393 267 425 244 c 128,-1,19
 457 221 457 221 516 221 c 0,20,21
 607 221 607 221 668.5 294.5 c 128,-1,22
 730 368 730 368 756 516 c 2,23,-1
 929 1500 l 1,24,-1
 1261 1500 l 1,0,-1
818 1900 m 1,25,-1
 1159 1920 l 1,26,-1
 817 1600 l 1,27,-1
 602 1600 l 1,28,-1
 818 1900 l 1,25,-1
EndSplineSet
Validated: 33
EndChar

StartChar: Ucircumflex
Encoding: 219 219 144
Width: 1300
GlyphClass: 1
Flags: W
LayerCount: 2
Fore
SplineSet
1261 1500 m 1,0,-1
 1091 534 l 2,1,2
 1067 395 1067 395 1011.5 291.5 c 128,-1,3
 956 188 956 188 874 119.5 c 128,-1,4
 792 51 792 51 685.5 17 c 128,-1,5
 579 -17 579 -17 453 -17 c 0,6,7
 317 -17 317 -17 230.5 26 c 128,-1,8
 144 69 144 69 99.5 148 c 128,-1,9
 55 227 55 227 48.5 337.5 c 128,-1,10
 42 448 42 448 66 582 c 2,11,-1
 186 1263 l 1,12,-1
 186 1500 l 1,13,-1
 563 1520 l 1,14,-1
 394 564 l 2,15,16
 380 483 380 483 375 419 c 128,-1,17
 370 355 370 355 381.5 311 c 128,-1,18
 393 267 393 267 425 244 c 128,-1,19
 457 221 457 221 516 221 c 0,20,21
 607 221 607 221 668.5 294.5 c 128,-1,22
 730 368 730 368 756 516 c 2,23,-1
 929 1500 l 1,24,-1
 1261 1500 l 1,0,-1
1135 1620 m 1,25,-1
 915 1620 l 1,26,-1
 863 1723 l 1,27,-1
 856 1850 l 1,28,-1
 803 1723 l 1,29,-1
 704 1620 l 1,30,-1
 465 1620 l 1,31,-1
 709 1900 l 1,32,-1
 1003 1920 l 1,33,-1
 1135 1620 l 1,25,-1
EndSplineSet
Validated: 33
EndChar

StartChar: Udieresis
Encoding: 220 220 145
Width: 1300
GlyphClass: 1
Flags: W
LayerCount: 2
Fore
SplineSet
1261 1500 m 1,0,-1
 1091 534 l 2,1,2
 1067 395 1067 395 1011.5 291.5 c 128,-1,3
 956 188 956 188 874 119.5 c 128,-1,4
 792 51 792 51 685.5 17 c 128,-1,5
 579 -17 579 -17 453 -17 c 0,6,7
 317 -17 317 -17 230.5 26 c 128,-1,8
 144 69 144 69 99.5 148 c 128,-1,9
 55 227 55 227 48.5 337.5 c 128,-1,10
 42 448 42 448 66 582 c 2,11,-1
 186 1263 l 1,12,-1
 186 1500 l 1,13,-1
 563 1520 l 1,14,-1
 394 564 l 2,15,16
 380 483 380 483 375 419 c 128,-1,17
 370 355 370 355 381.5 311 c 128,-1,18
 393 267 393 267 425 244 c 128,-1,19
 457 221 457 221 516 221 c 0,20,21
 607 221 607 221 668.5 294.5 c 128,-1,22
 730 368 730 368 756 516 c 2,23,-1
 929 1500 l 1,24,-1
 1261 1500 l 1,0,-1
486 1866 m 1,25,-1
 762 1866 l 1,26,-1
 715 1600 l 1,27,-1
 439 1600 l 1,28,-1
 486 1866 l 1,25,-1
886 1866 m 1,29,-1
 1162 1866 l 1,30,-1
 1115 1600 l 1,31,-1
 839 1600 l 1,32,-1
 886 1866 l 1,29,-1
EndSplineSet
Validated: 33
EndChar

StartChar: germandbls
Encoding: 223 223 146
Width: 1300
GlyphClass: 1
Flags: W
LayerCount: 2
Fore
SplineSet
417 -17 m 1,0,-1
 78 0 l 1,1,-1
 266 1073 l 2,2,3
 284 1176 284 1176 333.5 1254 c 128,-1,4
 383 1332 383 1332 456.5 1384.5 c 128,-1,5
 530 1437 530 1437 623.5 1463 c 128,-1,6
 717 1489 717 1489 825 1489 c 0,7,8
 927 1489 927 1489 1011 1461 c 128,-1,9
 1095 1433 1095 1433 1146 1373 c 0,10,11
 1189 1322 1189 1322 1208 1265.5 c 128,-1,12
 1227 1209 1227 1209 1216 1127 c 0,13,14
 1209 1074 1209 1074 1186 1026.5 c 128,-1,15
 1163 979 1163 979 1128 939 c 128,-1,16
 1093 899 1093 899 1048 867 c 128,-1,17
 1003 835 1003 835 952 811 c 1,18,19
 1012 790 1012 790 1061.5 759 c 128,-1,20
 1111 728 1111 728 1145 686 c 128,-1,21
 1179 644 1179 644 1192.5 589.5 c 128,-1,22
 1206 535 1206 535 1194 466 c 0,23,24
 1179 380 1179 380 1143 312 c 128,-1,25
 1107 244 1107 244 1057 192 c 128,-1,26
 1007 140 1007 140 945.5 103.5 c 128,-1,27
 884 67 884 67 818 44 c 128,-1,28
 752 21 752 21 683.5 10.5 c 128,-1,29
 615 0 615 0 551 0 c 1,30,-1
 509 224 l 1,31,32
 655 227 655 227 745.5 283 c 128,-1,33
 836 339 836 339 856 457 c 0,34,35
 866 516 866 516 856.5 558.5 c 128,-1,36
 847 601 847 601 821.5 628 c 128,-1,37
 796 655 796 655 756 668 c 128,-1,38
 716 681 716 681 665 681 c 1,39,-1
 609 902 l 1,40,41
 664 907 664 907 711 921.5 c 128,-1,42
 758 936 758 936 793.5 961 c 128,-1,43
 829 986 829 986 852.5 1022 c 128,-1,44
 876 1058 876 1058 885 1107 c 0,45,46
 891 1142 891 1142 885.5 1173 c 128,-1,47
 880 1204 880 1204 866.5 1227 c 128,-1,48
 853 1250 853 1250 831.5 1263 c 128,-1,49
 810 1276 810 1276 785 1276 c 0,50,51
 714 1276 714 1276 673 1239.5 c 128,-1,52
 632 1203 632 1203 617 1119 c 2,53,-1
 417 -17 l 1,0,-1
EndSplineSet
Validated: 33
EndChar

StartChar: agrave
Encoding: 224 224 147
Width: 1300
GlyphClass: 1
Flags: W
LayerCount: 2
Fore
SplineSet
840 885 m 1,0,1
 820 888 820 888 803 890 c 128,-1,2
 786 892 786 892 779 893 c 0,3,4
 704 893 704 893 646.5 862 c 128,-1,5
 589 831 589 831 548 779 c 128,-1,6
 507 727 507 727 482.5 657.5 c 128,-1,7
 458 588 458 588 450 510 c 0,8,9
 444 449 444 449 446.5 394.5 c 128,-1,10
 449 340 449 340 460 298.5 c 128,-1,11
 471 257 471 257 491.5 233 c 128,-1,12
 512 209 512 209 541 209 c 0,13,14
 575 209 575 209 605.5 220.5 c 128,-1,15
 636 232 636 232 662.5 250 c 128,-1,16
 689 268 689 268 709.5 289 c 128,-1,17
 730 310 730 310 745 329 c 1,18,-1
 840 885 l 1,0,1
484 -16 m 0,19,20
 407 -15 407 -15 350 8.5 c 128,-1,21
 293 32 293 32 252.5 72 c 128,-1,22
 212 112 212 112 187.5 165.5 c 128,-1,23
 163 219 163 219 151.5 280.5 c 128,-1,24
 140 342 140 342 139.5 409 c 128,-1,25
 139 476 139 476 148 542 c 0,26,27
 157 614 157 614 181 685 c 128,-1,28
 205 756 205 756 244.5 820 c 128,-1,29
 284 884 284 884 338.5 938.5 c 128,-1,30
 393 993 393 993 463.5 1032.5 c 128,-1,31
 534 1072 534 1072 621.5 1094.5 c 128,-1,32
 709 1117 709 1117 813 1117 c 0,33,34
 874 1116 874 1116 936 1108 c 0,35,36
 990 1101 990 1101 1053 1086 c 128,-1,37
 1116 1071 1116 1071 1174 1043 c 1,38,-1
 1031 209 l 1,39,-1
 1017 0 l 1,40,-1
 695 0 l 1,41,-1
 723 162 l 1,42,-1
 568 -10 l 1,43,44
 557 -12 557 -12 539 -14.5 c 128,-1,45
 521 -17 521 -17 484 -16 c 0,19,20
964 1200 m 1,46,-1
 749 1200 l 1,47,-1
 521 1520 l 1,48,-1
 854 1500 l 1,49,-1
 964 1200 l 1,46,-1
EndSplineSet
Validated: 33
EndChar

StartChar: aacute
Encoding: 225 225 148
Width: 1300
GlyphClass: 1
Flags: W
LayerCount: 2
Fore
SplineSet
840 885 m 1,0,1
 820 888 820 888 803 890 c 128,-1,2
 786 892 786 892 779 893 c 0,3,4
 704 893 704 893 646.5 862 c 128,-1,5
 589 831 589 831 548 779 c 128,-1,6
 507 727 507 727 482.5 657.5 c 128,-1,7
 458 588 458 588 450 510 c 0,8,9
 444 449 444 449 446.5 394.5 c 128,-1,10
 449 340 449 340 460 298.5 c 128,-1,11
 471 257 471 257 491.5 233 c 128,-1,12
 512 209 512 209 541 209 c 0,13,14
 575 209 575 209 605.5 220.5 c 128,-1,15
 636 232 636 232 662.5 250 c 128,-1,16
 689 268 689 268 709.5 289 c 128,-1,17
 730 310 730 310 745 329 c 1,18,-1
 840 885 l 1,0,1
484 -16 m 0,19,20
 407 -15 407 -15 350 8.5 c 128,-1,21
 293 32 293 32 252.5 72 c 128,-1,22
 212 112 212 112 187.5 165.5 c 128,-1,23
 163 219 163 219 151.5 280.5 c 128,-1,24
 140 342 140 342 139.5 409 c 128,-1,25
 139 476 139 476 148 542 c 0,26,27
 157 614 157 614 181 685 c 128,-1,28
 205 756 205 756 244.5 820 c 128,-1,29
 284 884 284 884 338.5 938.5 c 128,-1,30
 393 993 393 993 463.5 1032.5 c 128,-1,31
 534 1072 534 1072 621.5 1094.5 c 128,-1,32
 709 1117 709 1117 813 1117 c 0,33,34
 874 1116 874 1116 936 1108 c 0,35,36
 990 1101 990 1101 1053 1086 c 128,-1,37
 1116 1071 1116 1071 1174 1043 c 1,38,-1
 1031 209 l 1,39,-1
 1017 0 l 1,40,-1
 695 0 l 1,41,-1
 723 162 l 1,42,-1
 568 -10 l 1,43,44
 557 -12 557 -12 539 -14.5 c 128,-1,45
 521 -17 521 -17 484 -16 c 0,19,20
892 1500 m 1,46,-1
 1233 1520 l 1,47,-1
 891 1200 l 1,48,-1
 676 1200 l 1,49,-1
 892 1500 l 1,46,-1
EndSplineSet
Validated: 33
EndChar

StartChar: acircumflex
Encoding: 226 226 149
Width: 1300
GlyphClass: 1
Flags: W
LayerCount: 2
Fore
SplineSet
840 885 m 1,0,1
 820 888 820 888 803 890 c 128,-1,2
 786 892 786 892 779 893 c 0,3,4
 704 893 704 893 646.5 862 c 128,-1,5
 589 831 589 831 548 779 c 128,-1,6
 507 727 507 727 482.5 657.5 c 128,-1,7
 458 588 458 588 450 510 c 0,8,9
 444 449 444 449 446.5 394.5 c 128,-1,10
 449 340 449 340 460 298.5 c 128,-1,11
 471 257 471 257 491.5 233 c 128,-1,12
 512 209 512 209 541 209 c 0,13,14
 575 209 575 209 605.5 220.5 c 128,-1,15
 636 232 636 232 662.5 250 c 128,-1,16
 689 268 689 268 709.5 289 c 128,-1,17
 730 310 730 310 745 329 c 1,18,-1
 840 885 l 1,0,1
484 -16 m 0,19,20
 407 -15 407 -15 350 8.5 c 128,-1,21
 293 32 293 32 252.5 72 c 128,-1,22
 212 112 212 112 187.5 165.5 c 128,-1,23
 163 219 163 219 151.5 280.5 c 128,-1,24
 140 342 140 342 139.5 409 c 128,-1,25
 139 476 139 476 148 542 c 0,26,27
 157 614 157 614 181 685 c 128,-1,28
 205 756 205 756 244.5 820 c 128,-1,29
 284 884 284 884 338.5 938.5 c 128,-1,30
 393 993 393 993 463.5 1032.5 c 128,-1,31
 534 1072 534 1072 621.5 1094.5 c 128,-1,32
 709 1117 709 1117 813 1117 c 0,33,34
 874 1116 874 1116 936 1108 c 0,35,36
 990 1101 990 1101 1053 1086 c 128,-1,37
 1116 1071 1116 1071 1174 1043 c 1,38,-1
 1031 209 l 1,39,-1
 1017 0 l 1,40,-1
 695 0 l 1,41,-1
 723 162 l 1,42,-1
 568 -10 l 1,43,44
 557 -12 557 -12 539 -14.5 c 128,-1,45
 521 -17 521 -17 484 -16 c 0,19,20
1143 1220 m 1,46,-1
 923 1220 l 1,47,-1
 871 1323 l 1,48,-1
 864 1450 l 1,49,-1
 811 1323 l 1,50,-1
 712 1220 l 1,51,-1
 473 1220 l 1,52,-1
 717 1500 l 1,53,-1
 1011 1520 l 1,54,-1
 1143 1220 l 1,46,-1
EndSplineSet
Validated: 33
EndChar

StartChar: atilde
Encoding: 227 227 150
Width: 1300
GlyphClass: 1
Flags: W
LayerCount: 2
Fore
SplineSet
840 885 m 1,0,1
 820 888 820 888 803 890 c 128,-1,2
 786 892 786 892 779 893 c 0,3,4
 704 893 704 893 646.5 862 c 128,-1,5
 589 831 589 831 548 779 c 128,-1,6
 507 727 507 727 482.5 657.5 c 128,-1,7
 458 588 458 588 450 510 c 0,8,9
 444 449 444 449 446.5 394.5 c 128,-1,10
 449 340 449 340 460 298.5 c 128,-1,11
 471 257 471 257 491.5 233 c 128,-1,12
 512 209 512 209 541 209 c 0,13,14
 575 209 575 209 605.5 220.5 c 128,-1,15
 636 232 636 232 662.5 250 c 128,-1,16
 689 268 689 268 709.5 289 c 128,-1,17
 730 310 730 310 745 329 c 1,18,-1
 840 885 l 1,0,1
484 -16 m 0,19,20
 407 -15 407 -15 350 8.5 c 128,-1,21
 293 32 293 32 252.5 72 c 128,-1,22
 212 112 212 112 187.5 165.5 c 128,-1,23
 163 219 163 219 151.5 280.5 c 128,-1,24
 140 342 140 342 139.5 409 c 128,-1,25
 139 476 139 476 148 542 c 0,26,27
 157 614 157 614 181 685 c 128,-1,28
 205 756 205 756 244.5 820 c 128,-1,29
 284 884 284 884 338.5 938.5 c 128,-1,30
 393 993 393 993 463.5 1032.5 c 128,-1,31
 534 1072 534 1072 621.5 1094.5 c 128,-1,32
 709 1117 709 1117 813 1117 c 0,33,34
 874 1116 874 1116 936 1108 c 0,35,36
 990 1101 990 1101 1053 1086 c 128,-1,37
 1116 1071 1116 1071 1174 1043 c 1,38,-1
 1031 209 l 1,39,-1
 1017 0 l 1,40,-1
 695 0 l 1,41,-1
 723 162 l 1,42,-1
 568 -10 l 1,43,44
 557 -12 557 -12 539 -14.5 c 128,-1,45
 521 -17 521 -17 484 -16 c 0,19,20
400 1247 m 1,46,47
 411 1287 411 1287 435 1332.5 c 128,-1,48
 459 1378 459 1378 496 1416 c 128,-1,49
 533 1454 533 1454 583 1479 c 128,-1,50
 633 1504 633 1504 696 1504 c 0,51,52
 745 1504 745 1504 776.5 1491.5 c 128,-1,53
 808 1479 808 1479 832 1464 c 128,-1,54
 856 1449 856 1449 878.5 1436.5 c 128,-1,55
 901 1424 901 1424 932 1424 c 0,56,57
 953 1424 953 1424 968.5 1431 c 128,-1,58
 984 1438 984 1438 995 1450 c 128,-1,59
 1006 1462 1006 1462 1014 1478 c 128,-1,60
 1022 1494 1022 1494 1028 1512 c 1,61,-1
 1194 1502 l 1,62,63
 1183 1458 1183 1458 1161 1411.5 c 128,-1,64
 1139 1365 1139 1365 1104 1327 c 128,-1,65
 1069 1289 1069 1289 1019.5 1264.5 c 128,-1,66
 970 1240 970 1240 903 1240 c 0,67,68
 857 1240 857 1240 828 1252.5 c 128,-1,69
 799 1265 799 1265 775 1280 c 128,-1,70
 751 1295 751 1295 727 1307.5 c 128,-1,71
 703 1320 703 1320 668 1320 c 0,72,73
 650 1320 650 1320 637 1313 c 128,-1,74
 624 1306 624 1306 613.5 1295 c 128,-1,75
 603 1284 603 1284 595 1269.5 c 128,-1,76
 587 1255 587 1255 581 1240 c 1,77,-1
 400 1247 l 1,46,47
EndSplineSet
Validated: 33
EndChar

StartChar: adieresis
Encoding: 228 228 151
Width: 1300
GlyphClass: 1
Flags: W
LayerCount: 2
Fore
SplineSet
840 885 m 1,0,1
 820 888 820 888 803 890 c 128,-1,2
 786 892 786 892 779 893 c 0,3,4
 704 893 704 893 646.5 862 c 128,-1,5
 589 831 589 831 548 779 c 128,-1,6
 507 727 507 727 482.5 657.5 c 128,-1,7
 458 588 458 588 450 510 c 0,8,9
 444 449 444 449 446.5 394.5 c 128,-1,10
 449 340 449 340 460 298.5 c 128,-1,11
 471 257 471 257 491.5 233 c 128,-1,12
 512 209 512 209 541 209 c 0,13,14
 575 209 575 209 605.5 220.5 c 128,-1,15
 636 232 636 232 662.5 250 c 128,-1,16
 689 268 689 268 709.5 289 c 128,-1,17
 730 310 730 310 745 329 c 1,18,-1
 840 885 l 1,0,1
484 -16 m 0,19,20
 407 -15 407 -15 350 8.5 c 128,-1,21
 293 32 293 32 252.5 72 c 128,-1,22
 212 112 212 112 187.5 165.5 c 128,-1,23
 163 219 163 219 151.5 280.5 c 128,-1,24
 140 342 140 342 139.5 409 c 128,-1,25
 139 476 139 476 148 542 c 0,26,27
 157 614 157 614 181 685 c 128,-1,28
 205 756 205 756 244.5 820 c 128,-1,29
 284 884 284 884 338.5 938.5 c 128,-1,30
 393 993 393 993 463.5 1032.5 c 128,-1,31
 534 1072 534 1072 621.5 1094.5 c 128,-1,32
 709 1117 709 1117 813 1117 c 0,33,34
 874 1116 874 1116 936 1108 c 0,35,36
 990 1101 990 1101 1053 1086 c 128,-1,37
 1116 1071 1116 1071 1174 1043 c 1,38,-1
 1031 209 l 1,39,-1
 1017 0 l 1,40,-1
 695 0 l 1,41,-1
 723 162 l 1,42,-1
 568 -10 l 1,43,44
 557 -12 557 -12 539 -14.5 c 128,-1,45
 521 -17 521 -17 484 -16 c 0,19,20
547 1566 m 1,46,-1
 823 1566 l 1,47,-1
 776 1300 l 1,48,-1
 500 1300 l 1,49,-1
 547 1566 l 1,46,-1
947 1566 m 1,50,-1
 1223 1566 l 1,51,-1
 1176 1300 l 1,52,-1
 900 1300 l 1,53,-1
 947 1566 l 1,50,-1
EndSplineSet
Validated: 33
EndChar

StartChar: aring
Encoding: 229 229 152
Width: 1300
GlyphClass: 1
Flags: W
LayerCount: 2
Fore
SplineSet
900 1682 m 256,0,1
 959 1682 959 1682 1007 1659.5 c 128,-1,2
 1055 1637 1055 1637 1086.5 1598.5 c 128,-1,3
 1118 1560 1118 1560 1131 1508 c 128,-1,4
 1144 1456 1144 1456 1134 1397 c 0,5,6
 1123 1338 1123 1338 1092 1285.5 c 128,-1,7
 1061 1233 1061 1233 1016 1193.5 c 128,-1,8
 971 1154 971 1154 915 1131 c 0,9,10
 890 1120 890 1120 865 1115 c 1,11,12
 900 1112 900 1112 936 1108 c 0,13,14
 990 1101 990 1101 1053 1086 c 128,-1,15
 1116 1071 1116 1071 1174 1043 c 1,16,-1
 1031 209 l 1,17,-1
 1017 0 l 1,18,-1
 695 0 l 1,19,-1
 723 162 l 1,20,-1
 568 -10 l 1,21,22
 557 -12 557 -12 539 -14.5 c 128,-1,23
 521 -17 521 -17 484 -16 c 0,24,25
 407 -15 407 -15 350 8.5 c 128,-1,26
 293 32 293 32 252.5 72 c 128,-1,27
 212 112 212 112 187.5 165.5 c 128,-1,28
 163 219 163 219 151.5 280.5 c 128,-1,29
 140 342 140 342 139.5 409 c 128,-1,30
 139 476 139 476 148 542 c 0,31,32
 157 614 157 614 181 685 c 128,-1,33
 205 756 205 756 244.5 820 c 128,-1,34
 284 884 284 884 338.5 938.5 c 128,-1,35
 393 993 393 993 463.5 1032.5 c 128,-1,36
 534 1072 534 1072 621 1094 c 0,37,38
 678 1109 678 1109 741 1114 c 1,39,40
 716 1120 716 1120 693 1131 c 0,41,42
 645 1154 645 1154 613 1193.5 c 128,-1,43
 581 1233 581 1233 567 1285.5 c 128,-1,44
 553 1338 553 1338 564 1397 c 0,45,46
 574 1456 574 1456 606 1508 c 128,-1,47
 638 1560 638 1560 683.5 1598.5 c 128,-1,48
 729 1637 729 1637 785 1659.5 c 128,-1,49
 841 1682 841 1682 900 1682 c 256,0,1
840 885 m 1,50,51
 820 888 820 888 803 890 c 128,-1,52
 786 892 786 892 779 893 c 0,53,54
 704 893 704 893 646.5 862 c 128,-1,55
 589 831 589 831 548 779 c 128,-1,56
 507 727 507 727 482.5 657.5 c 128,-1,57
 458 588 458 588 450 510 c 0,58,59
 444 449 444 449 446.5 394.5 c 128,-1,60
 449 340 449 340 460 298.5 c 128,-1,61
 471 257 471 257 491.5 233 c 128,-1,62
 512 209 512 209 541 209 c 0,63,64
 575 209 575 209 605.5 220.5 c 128,-1,65
 636 232 636 232 662.5 250 c 128,-1,66
 689 268 689 268 709.5 289 c 128,-1,67
 730 310 730 310 745 329 c 1,68,-1
 840 885 l 1,50,51
833 1297 m 256,69,70
 853 1297 853 1297 872 1305 c 128,-1,71
 891 1313 891 1313 906.5 1326.5 c 128,-1,72
 922 1340 922 1340 932.5 1358 c 128,-1,73
 943 1376 943 1376 947 1396 c 0,74,75
 950 1416 950 1416 945.5 1433.5 c 128,-1,76
 941 1451 941 1451 930.5 1464.5 c 128,-1,77
 920 1478 920 1478 903.5 1485.5 c 128,-1,78
 887 1493 887 1493 867 1493 c 256,79,80
 847 1493 847 1493 828 1485.5 c 128,-1,81
 809 1478 809 1478 793.5 1464.5 c 128,-1,82
 778 1451 778 1451 767 1433.5 c 128,-1,83
 756 1416 756 1416 753 1396 c 0,84,85
 749 1376 749 1376 753.5 1358 c 128,-1,86
 758 1340 758 1340 769 1326.5 c 128,-1,87
 780 1313 780 1313 796.5 1305 c 128,-1,88
 813 1297 813 1297 833 1297 c 256,69,70
EndSplineSet
Validated: 33
EndChar

StartChar: ae
Encoding: 230 230 153
Width: 1300
GlyphClass: 1
Flags: W
LayerCount: 2
Fore
SplineSet
577 87 m 1,0,1
 531 42 531 42 461.5 12.5 c 128,-1,2
 392 -17 392 -17 297 -17 c 0,3,4
 121 -17 121 -17 50 79 c 128,-1,5
 -21 175 -21 175 11 358 c 0,6,7
 44 550 44 550 145 643 c 128,-1,8
 246 736 246 736 410 736 c 2,9,-1
 447 736 l 2,10,11
 464 736 464 736 480 734 c 1,12,13
 486 771 486 771 490 800 c 128,-1,14
 494 829 494 829 492 849.5 c 128,-1,15
 490 870 490 870 479.5 881 c 128,-1,16
 469 892 469 892 446 892 c 0,17,18
 408 892 408 892 373.5 883.5 c 128,-1,19
 339 875 339 875 311 864 c 0,20,21
 278 852 278 852 250 836 c 1,22,-1
 183 1025 l 1,23,24
 232 1051 232 1051 292 1071 c 0,25,26
 343 1088 343 1088 411.5 1102.5 c 128,-1,27
 480 1117 480 1117 561 1117 c 0,28,29
 624 1117 624 1117 669.5 1098 c 128,-1,30
 715 1079 715 1079 742 1051 c 1,31,32
 794 1084 794 1084 856.5 1100.5 c 128,-1,33
 919 1117 919 1117 985 1117 c 256,34,35
 1051 1117 1051 1117 1108 1101 c 128,-1,36
 1165 1085 1165 1085 1207.5 1049.5 c 128,-1,37
 1250 1014 1250 1014 1274.5 959 c 128,-1,38
 1299 904 1299 904 1299 826 c 0,39,40
 1299 735 1299 735 1273.5 645.5 c 128,-1,41
 1248 556 1248 556 1210 466 c 1,42,-1
 785 466 l 1,43,44
 783 455 783 455 781 443.5 c 128,-1,45
 779 432 779 432 777 421 c 0,46,47
 768 369 768 369 769 322 c 0,48,49
 769 266 769 266 799.5 234.5 c 128,-1,50
 830 203 830 203 888 200 c 1,51,52
 940 202 940 202 980 231.5 c 128,-1,53
 1020 261 1020 261 1055 299 c 1,54,-1
 1197 161 l 1,55,-1
 1155 118 l 2,56,57
 1113 78 1113 78 1074 52 c 128,-1,58
 1035 26 1035 26 994.5 10.5 c 128,-1,59
 954 -5 954 -5 910.5 -11 c 128,-1,60
 867 -17 867 -17 816 -17 c 0,61,62
 790 -17 790 -17 758.5 -10.5 c 128,-1,63
 727 -4 727 -4 694.5 9 c 128,-1,64
 662 22 662 22 631.5 41.5 c 128,-1,65
 601 61 601 61 577 87 c 1,0,1
733 681 m 1,66,-1
 1043 681 l 1,67,-1
 1058 768 l 2,68,69
 1061 786 1061 786 1059.5 807.5 c 128,-1,70
 1058 829 1058 829 1048.5 847.5 c 128,-1,71
 1039 866 1039 866 1020 879 c 128,-1,72
 1001 892 1001 892 970 892 c 0,73,74
 940 892 940 892 916.5 879 c 128,-1,75
 893 866 893 866 875.5 847.5 c 128,-1,76
 858 829 858 829 846.5 807.5 c 128,-1,77
 835 786 835 786 828 768 c 1,78,-1
 733 681 l 1,66,-1
441 513 m 1,79,-1
 432 513 l 2,80,81
 407 513 407 513 377 504.5 c 128,-1,82
 347 496 347 496 319.5 478 c 128,-1,83
 292 460 292 460 270.5 430.5 c 128,-1,84
 249 401 249 401 242 359 c 0,85,86
 229 288 229 288 247.5 248 c 128,-1,87
 266 208 266 208 309 208 c 0,88,89
 336 208 336 208 353.5 221 c 128,-1,90
 371 234 371 234 382 251 c 0,91,92
 394 269 394 269 402 294 c 2,93,-1
 441 513 l 1,79,-1
EndSplineSet
Validated: 33
EndChar

StartChar: ccedilla
Encoding: 231 231 154
Width: 1300
GlyphClass: 1
Flags: W
LayerCount: 2
Fore
SplineSet
1006 772 m 1,0,1
 969 833 969 833 915 859 c 128,-1,2
 861 885 861 885 784 885 c 0,3,4
 723 885 723 885 662.5 861.5 c 128,-1,5
 602 838 602 838 551.5 795 c 128,-1,6
 501 752 501 752 464.5 690.5 c 128,-1,7
 428 629 428 629 415 553 c 0,8,9
 403 484 403 484 419.5 425.5 c 128,-1,10
 436 367 436 367 472.5 325 c 128,-1,11
 509 283 509 283 560.5 259.5 c 128,-1,12
 612 236 612 236 670 236 c 0,13,14
 722 236 722 236 766 245.5 c 128,-1,15
 810 255 810 255 847 271.5 c 128,-1,16
 884 288 884 288 913 309 c 128,-1,17
 942 330 942 330 964 353 c 1,18,-1
 1050 137 l 1,19,20
 1029 121 1029 121 989 95 c 128,-1,21
 949 69 949 69 891.5 44 c 128,-1,22
 834 19 834 19 759 1 c 0,23,24
 733 -5 733 -5 706 -9 c 1,25,26
 723 -26 723 -26 737 -46 c 0,27,28
 752 -69 752 -69 761.5 -100.5 c 128,-1,29
 771 -132 771 -132 764 -171 c 0,30,31
 755 -221 755 -221 724 -264 c 128,-1,32
 693 -307 693 -307 648 -338.5 c 128,-1,33
 603 -370 603 -370 547.5 -388.5 c 128,-1,34
 492 -407 492 -407 435 -407 c 0,35,36
 375 -407 375 -407 320.5 -389 c 128,-1,37
 266 -371 266 -371 222 -349 c 0,38,39
 171 -323 171 -323 126 -290 c 1,40,-1
 269 -131 l 1,41,42
 298 -151 298 -151 327 -166 c 0,43,44
 351 -179 351 -179 378.5 -189.5 c 128,-1,45
 406 -200 406 -200 428 -200 c 0,46,47
 451 -200 451 -200 473.5 -187.5 c 128,-1,48
 496 -175 496 -175 501 -147 c 0,49,50
 505 -126 505 -126 497 -102.5 c 128,-1,51
 489 -79 489 -79 477 -58 c 128,-1,52
 465 -37 465 -37 452 -21.5 c 128,-1,53
 439 -6 439 -6 433 0 c 1,54,-1
 443 0 l 1,55,56
 399 11 399 11 359 29 c 0,57,58
 259 75 259 75 195.5 153.5 c 128,-1,59
 132 232 132 232 108.5 336 c 128,-1,60
 85 440 85 440 105 555 c 0,61,62
 117 624 117 624 141.5 693 c 128,-1,63
 166 762 166 762 205 824.5 c 128,-1,64
 244 887 244 887 299 940.5 c 128,-1,65
 354 994 354 994 426.5 1033 c 128,-1,66
 499 1072 499 1072 591 1094.5 c 128,-1,67
 683 1117 683 1117 796 1117 c 0,68,69
 930 1117 930 1117 1033.5 1079.5 c 128,-1,70
 1137 1042 1137 1042 1200 957 c 1,71,-1
 1006 772 l 1,0,1
EndSplineSet
Validated: 33
EndChar

StartChar: egrave
Encoding: 232 232 155
Width: 1300
GlyphClass: 1
Flags: W
LayerCount: 2
Fore
SplineSet
1078 158 m 1,0,1
 1032 121 1032 121 980 89.5 c 128,-1,2
 928 58 928 58 868 34.5 c 128,-1,3
 808 11 808 11 738 -2.5 c 128,-1,4
 668 -16 668 -16 586 -16 c 0,5,6
 442 -16 442 -16 340.5 31 c 128,-1,7
 239 78 239 78 179 156.5 c 128,-1,8
 119 235 119 235 99.5 337 c 128,-1,9
 80 439 80 439 100 550 c 0,10,11
 112 621 112 621 138 690.5 c 128,-1,12
 164 760 164 760 203.5 823 c 128,-1,13
 243 886 243 886 297 939.5 c 128,-1,14
 351 993 351 993 419.5 1032.5 c 128,-1,15
 488 1072 488 1072 571 1094.5 c 128,-1,16
 654 1117 654 1117 752 1117 c 0,17,18
 872 1117 872 1117 960 1081.5 c 128,-1,19
 1048 1046 1048 1046 1101.5 982 c 128,-1,20
 1155 918 1155 918 1173.5 829 c 128,-1,21
 1192 740 1192 740 1173 632 c 0,22,23
 1168 605 1168 605 1157 561 c 128,-1,24
 1146 517 1146 517 1132 466 c 1,25,-1
 395 466 l 1,26,27
 387 412 387 412 393.5 365 c 128,-1,28
 400 318 400 318 428 283.5 c 128,-1,29
 456 249 456 249 508 229.5 c 128,-1,30
 560 210 560 210 644 210 c 0,31,32
 696 210 696 210 736.5 221.5 c 128,-1,33
 777 233 777 233 808 248.5 c 128,-1,34
 839 264 839 264 862 281 c 128,-1,35
 885 298 885 298 901 310 c 1,36,-1
 1078 158 l 1,0,1
886 672 m 1,37,38
 894 718 894 718 888 759 c 128,-1,39
 882 800 882 800 861 831.5 c 128,-1,40
 840 863 840 863 804.5 881.5 c 128,-1,41
 769 900 769 900 718 900 c 256,42,43
 667 900 667 900 629.5 885 c 128,-1,44
 592 870 592 870 564.5 847.5 c 128,-1,45
 537 825 537 825 519 800 c 128,-1,46
 501 775 501 775 490 756 c 1,47,-1
 381 653 l 1,48,-1
 557 671 l 1,49,-1
 886 672 l 1,37,38
901 1200 m 1,50,-1
 686 1200 l 1,51,-1
 458 1520 l 1,52,-1
 791 1500 l 1,53,-1
 901 1200 l 1,50,-1
EndSplineSet
Validated: 33
EndChar

StartChar: eacute
Encoding: 233 233 156
Width: 1300
GlyphClass: 1
Flags: W
LayerCount: 2
Fore
SplineSet
1078 158 m 1,0,1
 1032 121 1032 121 980 89.5 c 128,-1,2
 928 58 928 58 868 34.5 c 128,-1,3
 808 11 808 11 738 -2.5 c 128,-1,4
 668 -16 668 -16 586 -16 c 0,5,6
 442 -16 442 -16 340.5 31 c 128,-1,7
 239 78 239 78 179 156.5 c 128,-1,8
 119 235 119 235 99.5 337 c 128,-1,9
 80 439 80 439 100 550 c 0,10,11
 112 621 112 621 138 690.5 c 128,-1,12
 164 760 164 760 203.5 823 c 128,-1,13
 243 886 243 886 297 939.5 c 128,-1,14
 351 993 351 993 419.5 1032.5 c 128,-1,15
 488 1072 488 1072 571 1094.5 c 128,-1,16
 654 1117 654 1117 752 1117 c 0,17,18
 872 1117 872 1117 960 1081.5 c 128,-1,19
 1048 1046 1048 1046 1101.5 982 c 128,-1,20
 1155 918 1155 918 1173.5 829 c 128,-1,21
 1192 740 1192 740 1173 632 c 0,22,23
 1168 605 1168 605 1157 561 c 128,-1,24
 1146 517 1146 517 1132 466 c 1,25,-1
 395 466 l 1,26,27
 387 412 387 412 393.5 365 c 128,-1,28
 400 318 400 318 428 283.5 c 128,-1,29
 456 249 456 249 508 229.5 c 128,-1,30
 560 210 560 210 644 210 c 0,31,32
 696 210 696 210 736.5 221.5 c 128,-1,33
 777 233 777 233 808 248.5 c 128,-1,34
 839 264 839 264 862 281 c 128,-1,35
 885 298 885 298 901 310 c 1,36,-1
 1078 158 l 1,0,1
886 672 m 1,37,38
 894 718 894 718 888 759 c 128,-1,39
 882 800 882 800 861 831.5 c 128,-1,40
 840 863 840 863 804.5 881.5 c 128,-1,41
 769 900 769 900 718 900 c 256,42,43
 667 900 667 900 629.5 885 c 128,-1,44
 592 870 592 870 564.5 847.5 c 128,-1,45
 537 825 537 825 519 800 c 128,-1,46
 501 775 501 775 490 756 c 1,47,-1
 381 653 l 1,48,-1
 557 671 l 1,49,-1
 886 672 l 1,37,38
818 1500 m 1,50,-1
 1159 1520 l 1,51,-1
 817 1200 l 1,52,-1
 602 1200 l 1,53,-1
 818 1500 l 1,50,-1
EndSplineSet
Validated: 33
EndChar

StartChar: ecircumflex
Encoding: 234 234 157
Width: 1300
GlyphClass: 1
Flags: W
LayerCount: 2
Fore
SplineSet
1078 158 m 1,0,1
 1032 121 1032 121 980 89.5 c 128,-1,2
 928 58 928 58 868 34.5 c 128,-1,3
 808 11 808 11 738 -2.5 c 128,-1,4
 668 -16 668 -16 586 -16 c 0,5,6
 442 -16 442 -16 340.5 31 c 128,-1,7
 239 78 239 78 179 156.5 c 128,-1,8
 119 235 119 235 99.5 337 c 128,-1,9
 80 439 80 439 100 550 c 0,10,11
 112 621 112 621 138 690.5 c 128,-1,12
 164 760 164 760 203.5 823 c 128,-1,13
 243 886 243 886 297 939.5 c 128,-1,14
 351 993 351 993 419.5 1032.5 c 128,-1,15
 488 1072 488 1072 571 1094.5 c 128,-1,16
 654 1117 654 1117 752 1117 c 0,17,18
 872 1117 872 1117 960 1081.5 c 128,-1,19
 1048 1046 1048 1046 1101.5 982 c 128,-1,20
 1155 918 1155 918 1173.5 829 c 128,-1,21
 1192 740 1192 740 1173 632 c 0,22,23
 1168 605 1168 605 1157 561 c 128,-1,24
 1146 517 1146 517 1132 466 c 1,25,-1
 395 466 l 1,26,27
 387 412 387 412 393.5 365 c 128,-1,28
 400 318 400 318 428 283.5 c 128,-1,29
 456 249 456 249 508 229.5 c 128,-1,30
 560 210 560 210 644 210 c 0,31,32
 696 210 696 210 736.5 221.5 c 128,-1,33
 777 233 777 233 808 248.5 c 128,-1,34
 839 264 839 264 862 281 c 128,-1,35
 885 298 885 298 901 310 c 1,36,-1
 1078 158 l 1,0,1
886 672 m 1,37,38
 894 718 894 718 888 759 c 128,-1,39
 882 800 882 800 861 831.5 c 128,-1,40
 840 863 840 863 804.5 881.5 c 128,-1,41
 769 900 769 900 718 900 c 256,42,43
 667 900 667 900 629.5 885 c 128,-1,44
 592 870 592 870 564.5 847.5 c 128,-1,45
 537 825 537 825 519 800 c 128,-1,46
 501 775 501 775 490 756 c 1,47,-1
 381 653 l 1,48,-1
 557 671 l 1,49,-1
 886 672 l 1,37,38
1135 1220 m 1,50,-1
 915 1220 l 1,51,-1
 863 1323 l 1,52,-1
 856 1450 l 1,53,-1
 803 1323 l 1,54,-1
 704 1220 l 1,55,-1
 465 1220 l 1,56,-1
 709 1500 l 1,57,-1
 1003 1520 l 1,58,-1
 1135 1220 l 1,50,-1
EndSplineSet
Validated: 33
EndChar

StartChar: edieresis
Encoding: 235 235 158
Width: 1300
GlyphClass: 1
Flags: W
LayerCount: 2
Fore
SplineSet
1078 158 m 1,0,1
 1032 121 1032 121 980 89.5 c 128,-1,2
 928 58 928 58 868 34.5 c 128,-1,3
 808 11 808 11 738 -2.5 c 128,-1,4
 668 -16 668 -16 586 -16 c 0,5,6
 442 -16 442 -16 340.5 31 c 128,-1,7
 239 78 239 78 179 156.5 c 128,-1,8
 119 235 119 235 99.5 337 c 128,-1,9
 80 439 80 439 100 550 c 0,10,11
 112 621 112 621 138 690.5 c 128,-1,12
 164 760 164 760 203.5 823 c 128,-1,13
 243 886 243 886 297 939.5 c 128,-1,14
 351 993 351 993 419.5 1032.5 c 128,-1,15
 488 1072 488 1072 571 1094.5 c 128,-1,16
 654 1117 654 1117 752 1117 c 0,17,18
 872 1117 872 1117 960 1081.5 c 128,-1,19
 1048 1046 1048 1046 1101.5 982 c 128,-1,20
 1155 918 1155 918 1173.5 829 c 128,-1,21
 1192 740 1192 740 1173 632 c 0,22,23
 1168 605 1168 605 1157 561 c 128,-1,24
 1146 517 1146 517 1132 466 c 1,25,-1
 395 466 l 1,26,27
 387 412 387 412 393.5 365 c 128,-1,28
 400 318 400 318 428 283.5 c 128,-1,29
 456 249 456 249 508 229.5 c 128,-1,30
 560 210 560 210 644 210 c 0,31,32
 696 210 696 210 736.5 221.5 c 128,-1,33
 777 233 777 233 808 248.5 c 128,-1,34
 839 264 839 264 862 281 c 128,-1,35
 885 298 885 298 901 310 c 1,36,-1
 1078 158 l 1,0,1
886 672 m 1,37,38
 894 718 894 718 888 759 c 128,-1,39
 882 800 882 800 861 831.5 c 128,-1,40
 840 863 840 863 804.5 881.5 c 128,-1,41
 769 900 769 900 718 900 c 256,42,43
 667 900 667 900 629.5 885 c 128,-1,44
 592 870 592 870 564.5 847.5 c 128,-1,45
 537 825 537 825 519 800 c 128,-1,46
 501 775 501 775 490 756 c 1,47,-1
 381 653 l 1,48,-1
 557 671 l 1,49,-1
 886 672 l 1,37,38
535 1566 m 1,50,-1
 811 1566 l 1,51,-1
 764 1300 l 1,52,-1
 488 1300 l 1,53,-1
 535 1566 l 1,50,-1
935 1566 m 1,54,-1
 1211 1566 l 1,55,-1
 1164 1300 l 1,56,-1
 888 1300 l 1,57,-1
 935 1566 l 1,54,-1
EndSplineSet
Validated: 33
EndChar

StartChar: igrave
Encoding: 236 236 159
Width: 1300
GlyphClass: 1
Flags: W
LayerCount: 2
Fore
SplineSet
515 834 m 1,0,-1
 606 896 l 1,1,-1
 510 876 l 1,2,-1
 247 876 l 1,3,-1
 247 1100 l 1,4,-1
 889 1100 l 1,5,-1
 770 423 l 2,6,7
 762 382 762 382 766.5 347.5 c 128,-1,8
 771 313 771 313 784.5 288.5 c 128,-1,9
 798 264 798 264 820.5 250 c 128,-1,10
 843 236 843 236 873 236 c 0,11,12
 906 236 906 236 935.5 241.5 c 128,-1,13
 965 247 965 247 993 258 c 128,-1,14
 1021 269 1021 269 1049 287 c 128,-1,15
 1077 305 1077 305 1107 330 c 1,16,-1
 1125 98 l 1,17,18
 1110 87 1110 87 1085 68 c 128,-1,19
 1060 49 1060 49 1022.5 30 c 128,-1,20
 985 11 985 11 932.5 -3 c 128,-1,21
 880 -17 880 -17 809 -17 c 0,22,23
 694 -17 694 -17 616.5 19 c 128,-1,24
 539 55 539 55 495.5 116.5 c 128,-1,25
 452 178 452 178 440 259.5 c 128,-1,26
 428 341 428 341 444 432 c 2,27,-1
 515 834 l 1,0,-1
891 1200 m 1,28,-1
 676 1200 l 1,29,-1
 448 1520 l 1,30,-1
 781 1500 l 1,31,-1
 891 1200 l 1,28,-1
EndSplineSet
Validated: 33
EndChar

StartChar: iacute
Encoding: 237 237 160
Width: 1300
GlyphClass: 1
Flags: W
LayerCount: 2
Fore
SplineSet
515 834 m 1,0,-1
 606 896 l 1,1,-1
 510 876 l 1,2,-1
 247 876 l 1,3,-1
 247 1100 l 1,4,-1
 889 1100 l 1,5,-1
 770 423 l 2,6,7
 762 382 762 382 766.5 347.5 c 128,-1,8
 771 313 771 313 784.5 288.5 c 128,-1,9
 798 264 798 264 820.5 250 c 128,-1,10
 843 236 843 236 873 236 c 0,11,12
 906 236 906 236 935.5 241.5 c 128,-1,13
 965 247 965 247 993 258 c 128,-1,14
 1021 269 1021 269 1049 287 c 128,-1,15
 1077 305 1077 305 1107 330 c 1,16,-1
 1125 98 l 1,17,18
 1110 87 1110 87 1085 68 c 128,-1,19
 1060 49 1060 49 1022.5 30 c 128,-1,20
 985 11 985 11 932.5 -3 c 128,-1,21
 880 -17 880 -17 809 -17 c 0,22,23
 694 -17 694 -17 616.5 19 c 128,-1,24
 539 55 539 55 495.5 116.5 c 128,-1,25
 452 178 452 178 440 259.5 c 128,-1,26
 428 341 428 341 444 432 c 2,27,-1
 515 834 l 1,0,-1
762 1500 m 1,28,-1
 1103 1520 l 1,29,-1
 761 1200 l 1,30,-1
 546 1200 l 1,31,-1
 762 1500 l 1,28,-1
EndSplineSet
Validated: 33
EndChar

StartChar: icircumflex
Encoding: 238 238 161
Width: 1300
GlyphClass: 1
Flags: W
LayerCount: 2
Fore
SplineSet
515 834 m 1,0,-1
 606 896 l 1,1,-1
 510 876 l 1,2,-1
 247 876 l 1,3,-1
 247 1100 l 1,4,-1
 889 1100 l 1,5,-1
 770 423 l 2,6,7
 762 382 762 382 766.5 347.5 c 128,-1,8
 771 313 771 313 784.5 288.5 c 128,-1,9
 798 264 798 264 820.5 250 c 128,-1,10
 843 236 843 236 873 236 c 0,11,12
 906 236 906 236 935.5 241.5 c 128,-1,13
 965 247 965 247 993 258 c 128,-1,14
 1021 269 1021 269 1049 287 c 128,-1,15
 1077 305 1077 305 1107 330 c 1,16,-1
 1125 98 l 1,17,18
 1110 87 1110 87 1085 68 c 128,-1,19
 1060 49 1060 49 1022.5 30 c 128,-1,20
 985 11 985 11 932.5 -3 c 128,-1,21
 880 -17 880 -17 809 -17 c 0,22,23
 694 -17 694 -17 616.5 19 c 128,-1,24
 539 55 539 55 495.5 116.5 c 128,-1,25
 452 178 452 178 440 259.5 c 128,-1,26
 428 341 428 341 444 432 c 2,27,-1
 515 834 l 1,0,-1
1094 1220 m 1,28,-1
 874 1220 l 1,29,-1
 822 1323 l 1,30,-1
 815 1450 l 1,31,-1
 762 1323 l 1,32,-1
 663 1220 l 1,33,-1
 424 1220 l 1,34,-1
 668 1500 l 1,35,-1
 962 1520 l 1,36,-1
 1094 1220 l 1,28,-1
EndSplineSet
Validated: 33
EndChar

StartChar: idieresis
Encoding: 239 239 162
Width: 1300
GlyphClass: 1
Flags: W
LayerCount: 2
Fore
SplineSet
515 834 m 1,0,-1
 606 896 l 1,1,-1
 510 876 l 1,2,-1
 247 876 l 1,3,-1
 247 1100 l 1,4,-1
 889 1100 l 1,5,-1
 770 423 l 2,6,7
 762 382 762 382 766.5 347.5 c 128,-1,8
 771 313 771 313 784.5 288.5 c 128,-1,9
 798 264 798 264 820.5 250 c 128,-1,10
 843 236 843 236 873 236 c 0,11,12
 906 236 906 236 935.5 241.5 c 128,-1,13
 965 247 965 247 993 258 c 128,-1,14
 1021 269 1021 269 1049 287 c 128,-1,15
 1077 305 1077 305 1107 330 c 1,16,-1
 1125 98 l 1,17,18
 1110 87 1110 87 1085 68 c 128,-1,19
 1060 49 1060 49 1022.5 30 c 128,-1,20
 985 11 985 11 932.5 -3 c 128,-1,21
 880 -17 880 -17 809 -17 c 0,22,23
 694 -17 694 -17 616.5 19 c 128,-1,24
 539 55 539 55 495.5 116.5 c 128,-1,25
 452 178 452 178 440 259.5 c 128,-1,26
 428 341 428 341 444 432 c 2,27,-1
 515 834 l 1,0,-1
485 1566 m 1,28,-1
 761 1566 l 1,29,-1
 714 1300 l 1,30,-1
 438 1300 l 1,31,-1
 485 1566 l 1,28,-1
885 1566 m 1,32,-1
 1161 1566 l 1,33,-1
 1114 1300 l 1,34,-1
 838 1300 l 1,35,-1
 885 1566 l 1,32,-1
EndSplineSet
Validated: 33
EndChar

StartChar: ntilde
Encoding: 241 241 163
Width: 1300
GlyphClass: 1
Flags: W
LayerCount: 2
Fore
SplineSet
411 0 m 1,0,-1
 94 0 l 1,1,-1
 288 1100 l 1,2,-1
 608 1120 l 1,3,-1
 587 1000 l 1,4,-1
 682 1100 l 1,5,6
 721 1110 721 1110 765.5 1113.5 c 128,-1,7
 810 1117 810 1117 868 1117 c 0,8,9
 959 1117 959 1117 1027 1090 c 128,-1,10
 1095 1063 1095 1063 1137 1013.5 c 128,-1,11
 1179 964 1179 964 1193.5 893.5 c 128,-1,12
 1208 823 1208 823 1192 736 c 2,13,-1
 1063 0 l 1,14,-1
 746 0 l 1,15,-1
 875 736 l 2,16,17
 882 777 882 777 875.5 806.5 c 128,-1,18
 869 836 869 836 852 855 c 128,-1,19
 835 874 835 874 810.5 883 c 128,-1,20
 786 892 786 892 758 892 c 0,21,22
 695 892 695 892 647.5 871.5 c 128,-1,23
 600 851 600 851 553 808 c 1,24,-1
 411 0 l 1,0,-1
403 1247 m 1,25,26
 414 1287 414 1287 438 1332.5 c 128,-1,27
 462 1378 462 1378 499 1416 c 128,-1,28
 536 1454 536 1454 586 1479 c 128,-1,29
 636 1504 636 1504 699 1504 c 0,30,31
 748 1504 748 1504 779.5 1491.5 c 128,-1,32
 811 1479 811 1479 835 1464 c 128,-1,33
 859 1449 859 1449 881.5 1436.5 c 128,-1,34
 904 1424 904 1424 935 1424 c 0,35,36
 956 1424 956 1424 971.5 1431 c 128,-1,37
 987 1438 987 1438 998 1450 c 128,-1,38
 1009 1462 1009 1462 1017 1478 c 128,-1,39
 1025 1494 1025 1494 1031 1512 c 1,40,-1
 1197 1502 l 1,41,42
 1186 1458 1186 1458 1164 1411.5 c 128,-1,43
 1142 1365 1142 1365 1107 1327 c 128,-1,44
 1072 1289 1072 1289 1022.5 1264.5 c 128,-1,45
 973 1240 973 1240 906 1240 c 0,46,47
 860 1240 860 1240 831 1252.5 c 128,-1,48
 802 1265 802 1265 778 1280 c 128,-1,49
 754 1295 754 1295 730 1307.5 c 128,-1,50
 706 1320 706 1320 671 1320 c 0,51,52
 653 1320 653 1320 640 1313 c 128,-1,53
 627 1306 627 1306 616.5 1295 c 128,-1,54
 606 1284 606 1284 598 1269.5 c 128,-1,55
 590 1255 590 1255 584 1240 c 1,56,-1
 403 1247 l 1,25,26
EndSplineSet
Validated: 33
EndChar

StartChar: ograve
Encoding: 242 242 164
Width: 1300
GlyphClass: 1
Flags: W
LayerCount: 2
Fore
SplineSet
556 -17 m 0,0,1
 436 -17 436 -17 343.5 26.5 c 128,-1,2
 251 70 251 70 192.5 146.5 c 128,-1,3
 134 223 134 223 112 327 c 128,-1,4
 90 431 90 431 111 553 c 0,5,6
 132 674 132 674 189.5 777.5 c 128,-1,7
 247 881 247 881 332 956.5 c 128,-1,8
 417 1032 417 1032 525.5 1074.5 c 128,-1,9
 634 1117 634 1117 757 1117 c 0,10,11
 877 1117 877 1117 968.5 1074.5 c 128,-1,12
 1060 1032 1060 1032 1117 956.5 c 128,-1,13
 1174 881 1174 881 1194.5 777.5 c 128,-1,14
 1215 674 1215 674 1194 553 c 0,15,16
 1173 431 1173 431 1117 327 c 128,-1,17
 1061 223 1061 223 977.5 146.5 c 128,-1,18
 894 70 894 70 787 26.5 c 128,-1,19
 680 -17 680 -17 556 -17 c 0,0,1
863 528 m 0,20,21
 875 596 875 596 875 662 c 128,-1,22
 875 728 875 728 858.5 780.5 c 128,-1,23
 842 833 842 833 806.5 865 c 128,-1,24
 771 897 771 897 713 897 c 0,25,26
 657 897 657 897 612 869.5 c 128,-1,27
 567 842 567 842 532.5 796 c 128,-1,28
 498 750 498 750 475 691.5 c 128,-1,29
 452 633 452 633 441 571 c 0,30,31
 429 502 429 502 430 436 c 128,-1,32
 431 370 431 370 449 318.5 c 128,-1,33
 467 267 467 267 503.5 235 c 128,-1,34
 540 203 540 203 599 203 c 0,35,36
 653 203 653 203 697 230.5 c 128,-1,37
 741 258 741 258 774.5 304 c 128,-1,38
 808 350 808 350 830 408 c 128,-1,39
 852 466 852 466 863 528 c 0,20,21
901 1200 m 1,40,-1
 686 1200 l 1,41,-1
 458 1520 l 1,42,-1
 791 1500 l 1,43,-1
 901 1200 l 1,40,-1
EndSplineSet
Validated: 33
EndChar

StartChar: oacute
Encoding: 243 243 165
Width: 1300
GlyphClass: 1
Flags: W
LayerCount: 2
Fore
SplineSet
556 -17 m 0,0,1
 436 -17 436 -17 343.5 26.5 c 128,-1,2
 251 70 251 70 192.5 146.5 c 128,-1,3
 134 223 134 223 112 327 c 128,-1,4
 90 431 90 431 111 553 c 0,5,6
 132 674 132 674 189.5 777.5 c 128,-1,7
 247 881 247 881 332 956.5 c 128,-1,8
 417 1032 417 1032 525.5 1074.5 c 128,-1,9
 634 1117 634 1117 757 1117 c 0,10,11
 877 1117 877 1117 968.5 1074.5 c 128,-1,12
 1060 1032 1060 1032 1117 956.5 c 128,-1,13
 1174 881 1174 881 1194.5 777.5 c 128,-1,14
 1215 674 1215 674 1194 553 c 0,15,16
 1173 431 1173 431 1117 327 c 128,-1,17
 1061 223 1061 223 977.5 146.5 c 128,-1,18
 894 70 894 70 787 26.5 c 128,-1,19
 680 -17 680 -17 556 -17 c 0,0,1
863 528 m 0,20,21
 875 596 875 596 875 662 c 128,-1,22
 875 728 875 728 858.5 780.5 c 128,-1,23
 842 833 842 833 806.5 865 c 128,-1,24
 771 897 771 897 713 897 c 0,25,26
 657 897 657 897 612 869.5 c 128,-1,27
 567 842 567 842 532.5 796 c 128,-1,28
 498 750 498 750 475 691.5 c 128,-1,29
 452 633 452 633 441 571 c 0,30,31
 429 502 429 502 430 436 c 128,-1,32
 431 370 431 370 449 318.5 c 128,-1,33
 467 267 467 267 503.5 235 c 128,-1,34
 540 203 540 203 599 203 c 0,35,36
 653 203 653 203 697 230.5 c 128,-1,37
 741 258 741 258 774.5 304 c 128,-1,38
 808 350 808 350 830 408 c 128,-1,39
 852 466 852 466 863 528 c 0,20,21
915 1500 m 1,40,-1
 1256 1520 l 1,41,-1
 914 1200 l 1,42,-1
 699 1200 l 1,43,-1
 915 1500 l 1,40,-1
EndSplineSet
Validated: 33
EndChar

StartChar: ocircumflex
Encoding: 244 244 166
Width: 1300
GlyphClass: 1
Flags: W
LayerCount: 2
Fore
SplineSet
556 -17 m 0,0,1
 436 -17 436 -17 343.5 26.5 c 128,-1,2
 251 70 251 70 192.5 146.5 c 128,-1,3
 134 223 134 223 112 327 c 128,-1,4
 90 431 90 431 111 553 c 0,5,6
 132 674 132 674 189.5 777.5 c 128,-1,7
 247 881 247 881 332 956.5 c 128,-1,8
 417 1032 417 1032 525.5 1074.5 c 128,-1,9
 634 1117 634 1117 757 1117 c 0,10,11
 877 1117 877 1117 968.5 1074.5 c 128,-1,12
 1060 1032 1060 1032 1117 956.5 c 128,-1,13
 1174 881 1174 881 1194.5 777.5 c 128,-1,14
 1215 674 1215 674 1194 553 c 0,15,16
 1173 431 1173 431 1117 327 c 128,-1,17
 1061 223 1061 223 977.5 146.5 c 128,-1,18
 894 70 894 70 787 26.5 c 128,-1,19
 680 -17 680 -17 556 -17 c 0,0,1
863 528 m 0,20,21
 875 596 875 596 875 662 c 128,-1,22
 875 728 875 728 858.5 780.5 c 128,-1,23
 842 833 842 833 806.5 865 c 128,-1,24
 771 897 771 897 713 897 c 0,25,26
 657 897 657 897 612 869.5 c 128,-1,27
 567 842 567 842 532.5 796 c 128,-1,28
 498 750 498 750 475 691.5 c 128,-1,29
 452 633 452 633 441 571 c 0,30,31
 429 502 429 502 430 436 c 128,-1,32
 431 370 431 370 449 318.5 c 128,-1,33
 467 267 467 267 503.5 235 c 128,-1,34
 540 203 540 203 599 203 c 0,35,36
 653 203 653 203 697 230.5 c 128,-1,37
 741 258 741 258 774.5 304 c 128,-1,38
 808 350 808 350 830 408 c 128,-1,39
 852 466 852 466 863 528 c 0,20,21
1132 1220 m 1,40,-1
 912 1220 l 1,41,-1
 860 1323 l 1,42,-1
 853 1450 l 1,43,-1
 800 1323 l 1,44,-1
 701 1220 l 1,45,-1
 462 1220 l 1,46,-1
 706 1500 l 1,47,-1
 1000 1520 l 1,48,-1
 1132 1220 l 1,40,-1
EndSplineSet
Validated: 33
EndChar

